<?xml version="1.0" standalone="no"?>
<!DOCTYPE svg PUBLIC "-//W3C//DTD SVG 1.1//EN" "http://www.w3.org/Graphics/SVG/1.1/DTD/svg11.dtd" >
<!--
2012-12-17: Created.
-->
<svg>
<metadata>
Created by FontForge 20120702 at Sun Jan 20 18:22:09 2013

Created with FontForge 2.0 (http://fontforge.sf.net)
</metadata>
<defs>
<font id="GCWZERO" horiz-adv-x="1102" >
  <font-face 
    font-family="GCWZERO"
    font-weight="500"
    font-stretch="normal"
    units-per-em="1000"
    panose-1="2 0 6 3 0 0 0 0 0 0"
    ascent="800"
    descent="-200"
    x-height="647.489"
    cap-height="650.552"
    bbox="0 -173.342 3732.34 774.007"
    underline-thickness="50"
    underline-position="-100"
    unicode-range="U+0020-007A"
  />
    <missing-glyph />
    <glyph glyph-name="A" unicode="A" horiz-adv-x="1104" 
d="M130.438 648.061c6.368 0.572021 12.769 0.872009 19.164 0.800049l708.3 0.00695801c26.11 -0.247986 52.493 -5.86298 75.484 -18.559c18.928 -10.43 35.402 -25.232 48.151 -42.683c10.456 -14.442 17.637 -31.388 19.873 -49.146
c1.19 -8.42896 0.840027 -16.963 0.890015 -25.452v-474.847c0.440002 -7.8028 -0.119995 -15.9922 -3.92596 -22.9883c-5.45203 -10.0264 -16.752 -16.3389 -28.06 -16.3711c-2.63104 -0.11035 -5.224 0.410155 -7.83002 0.527343
c-66.061 -0.397463 -132.115 -0.860353 -198.176 -1.25097c-11.262 -0.0712899 -23.238 3.04296 -31.25 11.3936c-5.901 6.22169 -7.79095 15.1406 -7.64899 23.4785c0.565979 9.9678 0.130005 19.9668 0.215027 29.9473
c-0.188049 51.687 -0.364014 103.372 -0.546021 155.052c-0.052002 6.59201 -1.90399 13.281 -5.91302 18.572c-5.10199 6.78101 -12.951 10.801 -20.795 13.518c-8.46698 2.79999 -17.434 3.894 -26.324 3.745h-345.095
c-12.256 -0.0780029 -24.414 -4.16299 -34.369 -11.296c-6.99899 -4.97 -11.717 -13.197 -11.639 -21.889c-0.026001 -60.167 -0.00598145 -120.342 -0.0119934 -180.51c0.122986 -9.3408 0.0580139 -19.2178 -4.31601 -27.7188
c-2.37198 -4.80173 -7.16699 -7.76462 -12.112 -9.35447c-9.81898 -3.19238 -20.288 -3.19238 -30.503 -3.03613c-65.177 0.220703 -130.354 0.397461 -195.531 0.632812c-6.5186 -0.131835 -13.3028 -0.21582 -19.378 2.53321
c-7.8955 3.33593 -13.1718 11.1201 -15.0107 19.3213c-1.45606 5.7656 -0.94238 11.7324 -1.02051 17.6094c-0.20117 161.565 -0.40332 323.137 -0.61133 484.703c0.0527399 8.91803 -0.37012 17.895 1.01367 26.741c2.38575 17.421 10.2031 33.928 21.8154 47.068
c10.2276 11.713 22.9512 20.983 36.4161 28.612c21.041 11.876 44.7336 18.716 68.7446 20.84zM338.843 478.938c-13.913 -0.442993 -28.125 -3.19199 -40.172 -10.462c-6.772 -4.039 -13.036 -9.66702 -15.953 -17.179c-3.45099 -9.453 -3.31497 -20.247 0.676025 -29.511
c3.72198 -8.02502 11.001 -13.686 18.545 -17.883c11.912 -6.64401 25.831 -8.625 39.301 -8.21402c111.334 0.0130005 222.669 0.00601196 334.01 0.00601196c9.39001 -0.110016 18.994 1.03598 27.644 4.89999c11.501 4.93799 20.13 15.713 22.912 27.894
c1.31897 5.95398 0.804993 12.254 -1.24701 17.981c-4.07605 11.212 -12.516 20.82 -23.317 25.927c-10.455 5.082 -22.25 6.57999 -33.751 6.56699c-109.554 -0.019989 -219.101 0.0320129 -328.648 -0.026001z" />
    <glyph glyph-name="B" unicode="B" horiz-adv-x="1100" 
d="M14.8418 641.714c7.5029 6.16302 17.4922 8.14703 26.9805 8.39398h806.343c14.121 0.248047 28.314 -0.493958 42.183 -3.30499c23.375 -4.53497 45.682 -14.766 64.034 -29.981c16.055 -13.334 30.046 -29.675 38.46 -48.917
c5.77203 -13.106 8.71802 -27.429 8.70801 -41.7531v-108.683c-0.0499878 -9.117 0.330017 -18.286 -1.08002 -27.332c-3.44995 -25.068 -16.902 -47.967 -34.928 -65.388c17.129 -16.504 30.111 -37.946 34.309 -61.549c2.48901 -12.846 1.48901 -25.985 1.69897 -38.98
v-96.97c-0.0299683 -5.844 0.140015 -11.694 -0.369995 -17.525c-1.08002 -13.5561 -4.88202 -26.935 -11.475 -38.851c-4.75104 -8.7197 -10.984 -16.5547 -17.922 -23.6347c-16.19 -16.6465 -36.872 -28.5039 -58.881 -35.6426
c-15.488 -5.16701 -31.575 -8.45998 -47.804 -10.1582c-12.983 -1.44434 -26.057 -1.5293 -39.098 -1.43848h-782.87c-5.9668 -0.0839844 -12.0391 0.227539 -17.7334 2.17383c-13.9717 4.49023 -23.5176 18.8526 -23.8174 33.293
c0.44922 189.162 0.8457 378.332 1.28223 567.501c-0.12403 5.83099 -0.3584 11.707 0.67676 17.479c1.27539 8.05701 4.84765 16.048 11.3037 21.267zM327.733 480.332c-13.724 -0.493988 -26.955 -8.10199 -34.047 -19.887c-4.048 -6.60501 -5.285 -14.493 -5.539 -22.119
c0.136993 -8.45398 1.647 -17.271 6.547 -24.365c7.146 -10.62 19.354 -17.519 32.135 -18.233c4.13898 -0.04599 8.245 -0.605988 12.39 -0.468994c108.683 -0.0979919 217.374 -0.240997 326.056 -0.35199c6.53998 -0.0130005 13.192 -0.261017 19.581 1.41898
c9.39801 2.26501 17.792 8.08902 23.506 15.839c4.95898 6.55399 6.82599 14.831 7.28302 22.894c0.27301 9.30502 -1.12 19.139 -6.48199 26.98c-5.95502 8.733 -15.287 15.163 -25.666 17.304c-6.18799 1.504 -12.559 0.904999 -18.852 1.048
c-112.309 -0.052002 -224.617 0.0650024 -336.912 -0.0589905zM294.98 234.618c-3 -4.89299 -4.47702 -10.542 -5.095 -16.21c-0.924011 -5.121 0.127991 -14.524 1.13599 -19.561c2.077 -9.345 8.33099 -17.337 16.133 -22.7c7.91299 -5.55 17.766 -7.65201 27.319 -7.327
l0.559021 -0.611008c2.92899 -0.306 5.88998 -0.136993 8.83798 -0.201996c108.045 -0.00700378 216.091 0.00700378 324.13 -0.00700378c6.49402 0.169998 13.106 0.00700378 19.399 1.875c14.33 3.95 26.636 16.223 28.789 31.197
c1.51703 7.12599 0.700012 18.716 -1.23999 25.679c-1.99799 6.79399 -6.21503 12.801 -11.545 17.407c-7.84698 7.08699 -18.507 10.556 -28.998 10.446c-6.091 0.356995 -12.188 0.155991 -18.2791 0.207993h-279.11c-16.087 -0.136993 -32.188 0.311996 -48.261 -0.306
c-13.627 -0.572998 -26.734 -8.17999 -33.775 -19.888z" />
    <glyph glyph-name="C" unicode="C" horiz-adv-x="1100" 
d="M144.347 648.794c6.37801 0.585022 12.776 0.864014 19.18 0.805969h796.548c7.44501 -0.0979614 15.02 -0.86499 22.016 -3.56995c4.948 -1.91803 9.68097 -5.05103 12.36 -9.75305c2.64703 -4.81097 4.77899 -10.013 5.33899 -15.52
c0.880005 -7.79004 0.410034 -15.638 0.530029 -23.46c0.0200195 -30.124 -0.0300293 -60.255 0.0200195 -90.386c0.0799561 -4.59702 -1.46002 -9.129 -4.05505 -12.888c-5.013 -7.14502 -12.705 -12.405 -21.235 -14.31
c-4.909 -1.19101 -9.99396 -1.255 -15.001 -0.969025c-203.073 -0.207977 -406.154 -0.429993 -609.228 -0.630981c-11.489 0.701996 -23.219 -1.71701 -33.2 -7.53601c-9.76001 -5.69598 -18.427 -13.706 -23.739 -23.771
c-3.63498 -6.89999 -5.448 -14.689 -5.52698 -22.472c-1.26801 -63.714 -0.884003 -127.447 -0.669006 -191.168c0.135986 -5.826 -0.319 -11.691 0.544983 -17.484c1.66501 -12.588 7.86801 -24.455 16.952 -33.285c6.92398 -6.729 16.398 -10.689 26.053 -10.904
c208.946 -0.00700378 417.891 -0.00700378 626.836 -0.00700378c6.646 0.469009 13.466 0.053009 19.721 -2.41899c9.15497 -3.537 17.699 -10.22 21.1509 -19.674c2.57605 -6.444 1.95605 -13.479 2.09601 -20.261c0.190002 -28.388 0.350037 -56.7765 -0.349976 -85.1584
c-0.299988 -6.7685 0.150024 -13.7841 -2.38202 -20.2148c-2.77698 -7.7246 -8.95996 -13.7715 -16.054 -17.6602c-6.18402 -3.52343 -13.1541 -5.63672 -20.254 -6.09863c-140.654 0.0849609 -281.327 0.0126953 -421.987 0.0390625
c-111.628 0.0781255 -223.257 0.0068359 -334.878 0.325195c-20.599 0.064453 -41.197 0.123047 -61.79 0.318359c-18.999 0.455083 -37.947 4.4082 -55.4368 11.8994c-17.627 7.5293 -33.7139 18.5049 -47.5635 31.7295
c-14.3886 13.7715 -25.7939 30.8135 -32.1396 49.7549c-3.57617 10.6826 -5.79981 21.8466 -6.37207 33.1016c-0.68262 133.508 -0.988283 267.022 0 400.53c1.40429 14.747 5.94336 29.175 12.8223 42.277c7.1396 13.616 17.1201 25.566 28.375 35.969
c12.9463 11.991 27.9853 21.699 44.2402 28.565c18.1475 7.63306 37.4655 12.497 57.0765 14.285z" />
    <glyph glyph-name="D" unicode="D" 
d="M33.9287 649.314c2.9092 0.468994 5.8565 0.703979 8.8047 0.787964h789.968c16.295 -0.162964 32.681 0.715027 48.859 -1.69202c25.581 -3.39697 50.419 -13.236 70.749 -29.245c15.546 -12.293 29.239 -27.318 38.408 -44.993
c6.36401 -12.267 10.283 -25.796 11.353 -39.579c0.440002 -5.18604 0.320007 -10.393 0.339966 -15.585v-382.616c-0.129944 -12.612 0.680054 -25.367 -1.88995 -37.8158c-2.47601 -13.0606 -7.76001 -25.5811 -15.4 -36.4678
c-13.373 -18.7871 -32.037 -33.5527 -52.899 -43.2363c-22.712 -10.4121 -47.448 -15.9502 -72.286 -17.9932c-14.674 -1.28223 -29.414 -0.78125 -44.122 -0.878906h-769.813c-7.1455 -0.110352 -14.499 0.0458984 -21.2402 2.71387
c-10.5166 3.91113 -18.1494 13.6338 -21.1045 24.2597c-1.67871 5.7471 -1.11914 11.7598 -1.17773 17.6485c0.41699 186.558 0.8457 373.115 1.25 559.673c-0.53418 10.796 0.27344 22.438 6.62406 31.595c5.2978 7.815 14.4541 12.064 23.5771 13.424zM333.802 480.333
c-9.76801 -0.408997 -19.666 -3.37 -27.267 -9.689c-9.29901 -7.75 -15.338 -19.093 -17.206 -31.008c-1.13202 -6.45599 -0.774017 -13.022 -0.794006 -19.542c0.221985 -64.198 0.449005 -128.401 0.677002 -192.597c0.136993 -8.401 1.13998 -16.868 3.80798 -24.865
c2.888 -8.858 8.32901 -17.076 16.17 -22.276c9.40399 -6.351 21.045 -8.21201 32.193 -8.147c106.515 -0.0130005 213.03 0 319.552 -0.00700378c6.40302 0.130005 12.839 -0.345001 19.216 0.449005c10.25 1.198 20.135 5.994 26.954 13.816
c7.55603 8.26401 11.162 19.542 11.207 30.624c-0.462036 71.362 -0.853027 142.723 -1.315 214.078c-0.234009 8.38199 -1.83502 16.835 -5.54401 24.403c-3.71002 7.57501 -9.534 14.219 -16.932 18.345c-8.604 4.84201 -18.645 6.50101 -28.413 6.46201
c-110.771 -0.0390015 -221.542 0.0650024 -332.306 -0.04599z" />
    <glyph glyph-name="E" unicode="E" horiz-adv-x="1104" 
d="M168.495 648.384c15.012 1.11102 30.076 0.77301 45.114 0.82605h729.801c13.238 0.0390015 26.808 0.414978 39.565 -3.69104c5.68005 -1.80701 11.171 -5.07697 14.278 -10.333c5.547 -9.06696 6.297 -20.076 6.28699 -30.448c0 -28.607 0.0200195 -57.215 0 -85.816
c-0.109985 -7.948 -2.53998 -16.208 -8.263 -21.946c-6.36896 -6.51202 -15.466 -9.36603 -24.2729 -10.607c-8.28503 -1.22699 -16.669 -0.668976 -25.007 -0.849976c-210.347 -0.59201 -420.699 -1.22302 -631.046 -1.82703
c-6.77698 0.03302 -13.68 0.175018 -20.256 -1.76099c-13.472 -3.69199 -25.378 -14.681 -28.055 -28.693c-1.90503 -9.48102 -1.87802 -19.372 0.155975 -28.835c3.06702 -13.069 14.154 -23.349 26.847 -27.048c5.854 -1.78702 12.022 -2.09802 18.098 -1.96201
c211.647 -0.252991 423.285 -0.488007 634.925 -0.696014c9.42999 -0.0839844 18.905 0.279999 28.276 -1.026c6.62897 -0.929993 13.447 -2.30099 19.172 -5.95999c4.50397 -2.88501 7.216 -7.87 8.37598 -12.984c1.54999 -6.181 0.970032 -12.581 1.04999 -18.886v-63.695
c0.280029 -10.585 -1.69995 -22.57 -10.329 -29.679c-4.04297 -3.17801 -9.05298 -4.80301 -14.024 -5.82901c-9.19702 -1.88499 -18.632 -1.502 -27.958 -1.541h-644.056c-7.59799 0.0130005 -15.279 -2.015 -21.589 -6.317
c-8.56003 -5.862 -14.928 -14.934 -17.229 -25.085c-2.28101 -10.352 -2.41702 -21.179 -0.442017 -31.597c1.56601 -8.065 5.53702 -15.623 11.236 -21.543c4.38101 -4.7 10.074 -8.215 16.339 -9.743c4.66599 -1.248 9.53299 -1.189 14.324 -1.104
c215.759 0.852005 431.519 1.722 647.279 2.58c8.513 0.0780029 17.111 -0.0649872 25.455 -1.95c4.66699 -1.08499 9.37201 -2.68399 13.135 -5.75099c4.13898 -3.457 6.20898 -8.73401 7.13898 -13.914c1.10999 -5.784 0.630005 -11.678 0.76001 -17.521
c0.23999 -29.8874 0.429993 -59.7692 0.690002 -89.651c0.159973 -4.6524 -0.150024 -9.377 -1.57001 -13.836c-1.94 -6.1406 -6.03198 -11.8398 -11.927 -14.7002c-6.992 -3.47656 -14.966 -4.2041 -22.668 -4.32812
c-256.701 -0.220703 -513.403 -0.421875 -770.105 -0.636719c-23.025 0.110352 -46.09 1.37793 -68.868 4.84863c-20.263 3.13184 -40.4035 7.97367 -59.2238 16.2266c-17.5664 7.708 -34.0664 18.8018 -45.8359 34.1387
c-13.5762 17.3642 -19.6455 39.6299 -19.7627 61.4591c-0.00683975 134.102 0 268.205 0 402.307c0.11719 22.044 5.77733 44.309 17.833 62.902c6.8554 10.762 15.6035 20.315 25.7344 28.075c9.4951 7.33002 20.205 12.899 31.123 17.794
c28.191 12.458 58.847 18.541 89.495 20.633z" />
    <glyph glyph-name="F" unicode="F" 
d="M175.285 650.104c6.05699 0.286987 12.119 0.448975 18.182 0.422974h754.723c12.731 0.0840454 25.905 -0.0719604 37.918 -4.81195c5.73804 -2.18201 10.485 -6.62305 12.998 -12.236c5.38397 -11.416 4.61395 -24.354 4.64398 -36.635v-63.829
c-0.130005 -5.88104 0.340027 -11.793 -0.429993 -17.641c-0.960022 -7.56702 -4.57898 -14.965 -10.739 -19.62c-8.89398 -6.767 -20.499 -8.35599 -31.367 -8.55099c-217.926 -0.651001 -435.852 -1.26901 -653.783 -1.914
c-8.82501 0.0320129 -17.797 -2.26001 -25.084 -7.35101c-5.711 -3.98599 -10.641 -9.26099 -13.636 -15.597c-2.84601 -5.94501 -3.686 -12.613 -3.98499 -19.132c-0.157013 -9.24002 0.852997 -19.008 5.89999 -26.998c6.492 -10.275 17.634 -17.309 29.583 -19.249
c5.38498 -1.04199 10.881 -0.722992 16.331 -0.769012h640.083c7.50201 0.0920105 15.029 -0.376984 22.414 -1.745c5.38501 -1.06699 10.849 -2.61099 15.367 -5.853c4.25299 -3.08701 6.70599 -8.03601 7.93604 -13.037c1.75 -6.85101 1.37 -13.968 1.40997 -20.975
v-63.126c-0.0100098 -6.095 -0.76001 -12.301 -3.15002 -17.946c-2.01495 -4.73499 -5.30298 -9.08398 -9.82898 -11.657c-4.84399 -2.78101 -10.386 -4.043 -15.87 -4.79199c-7.78802 -1.06902 -15.66 -0.736023 -23.494 -0.789001
c-214.677 0.00698853 -429.352 -0.00601196 -644.028 0.00698853c-10.087 0.266998 -20.891 -0.983002 -29.258 -7.11099c-8.24399 -6.127 -12.444 -16.194 -14.196 -26.041c-1.68698 -8.608 -1.159 -17.399 -1.19199 -26.106
c0.242004 -56.008 0.437012 -112.01 0.69101 -168.012c-0.117004 -8.9014 -3.673 -18.3955 -11.37 -23.416c-7.742 -4.80566 -17.165 -5.49609 -26.054 -5.59375c-60.775 -0.0136719 -121.557 0 -182.339 -0.00683594
c-9.4677 -0.129883 -19.6006 -0.078125 -27.9482 5.01368c-6.4336 3.78418 -10.2822 10.8819 -11.2197 18.1494c-1.07519 6.0684 0.12989 12.1836 -0.08496 18.2715c-0.21484 159.534 -0.41699 319.068 -0.63183 478.595c0.12988 21.795 5.41113 43.897 17.2568 62.358
c10.6533 17.035 26.1836 30.768 43.9678 40.009c33.8095 18.102 72.242 25.871 110.284 27.714z" />
    <glyph glyph-name="G" unicode="G" 
d="M151.146 648.517c5.72301 0.584961 11.472 0.896973 17.228 0.81897c264.914 0.00701904 529.834 -0.0200195 794.748 0.00701904c11.791 0.81897 23.79 -3.98804 31.75 -12.708c4.64996 -5.11304 7.15802 -11.967 7.30798 -18.848
c0.789978 -33.584 0.900024 -67.187 0.23999 -100.778c-0.339966 -6.87396 0.530029 -14.139 -2.53296 -20.544c-3.974 -8.69 -12.806 -14.023 -21.638 -16.721c-5.33905 -1.672 -10.965 -1.55499 -16.474 -1.31299c-172.557 -0.904999 -345.121 -0.546997 -517.678 -0.625
h-88.435c-6.04898 -0.052002 -12.148 0.325012 -18.139 -0.773987c-10.522 -1.70401 -20.369 -6.69202 -28.355 -13.69c-7.52399 -6.45801 -13.677 -14.737 -16.701 -24.245c-1.56802 -4.85797 -2.33401 -9.95697 -2.40601 -15.062
c-1.22299 -66.329 -0.916992 -132.672 -0.636993 -199.008c-0.0980225 -12.649 4.00598 -25.194 11.27 -35.522c4.702 -6.97801 11.29 -12.942 19.348 -15.699c5.14502 -1.873 10.672 -2.224 16.109 -2.075c112.726 -0.682007 225.457 -0.949005 338.183 -0.0059967
c6.65302 -0.169006 13.462 0.44899 19.614 3.161c14.711 6.47701 25.494 21.539 26.177 37.694c2.315 49.01 0 98.086 1.41803 147.115c0.28595 5.95801 2.28894 11.83 5.80798 16.657c7.21796 9.82001 19.217 16.186 31.509 15.751
c70.257 0.182007 140.515 0.571991 210.766 -0.0329895c17.481 0.00698853 33.254 -16.214 32.574 -33.714c-0.130005 -79.987 0.109985 -159.98 -0.540039 -239.973c0.240051 -7.93501 -1.47998 -15.758 -3.41895 -23.4064
c-5.39105 -20.6416 -16.935 -39.5088 -32.492 -54.0704c-14.288 -13.3574 -31.171 -23.9199 -49.303 -31.2226c-20.421 -8.18847 -42.689 -11.4267 -64.612 -10.0352c-70.219 0.461914 -140.443 0.40332 -210.668 0.435546
c-144.391 -0.0517578 -288.775 -0.396484 -433.166 -0.0839844c-19.589 0.0644531 -39.178 0.123047 -58.76 0.266602c-18.853 0.051757 -37.739 3.45996 -55.2859 10.3926c-18.9971 7.4726 -36.3027 18.957 -51.1113 32.9599
c-14.086 13.3575 -25.4873 29.7207 -32.1533 48.0147c-4.0186 11.0892 -6.6143 22.7562 -7.24419 34.5402c-0.71582 68.495 -0.52734 137.003 -0.59277 205.505c0.00683999 62.648 -0.0127001 125.302 0.00683999 187.951c0.91699 19.413 6.64648 38.592 16.6103 55.293
c9.4815 15.94 22.3653 29.721 37.0108 41.037c17.8984 13.801 39.2295 23.0099 61.4985 26.801c10.951 2.47699 21.988 4.63599 33.167 5.75604z" />
    <glyph glyph-name="H" unicode="H" horiz-adv-x="1104" 
d="M755.847 648.099c7.00702 1.16302 14.137 0.596985 21.21 0.669006c61.961 -0.397034 123.922 -0.786987 185.882 -1.19c2.80798 0.0200195 5.58295 0.651001 8.41199 0.53302c10.14 0 20.15 -5.04401 26.164 -13.202c3.97498 -5.47198 5.69501 -12.278 5.95496 -18.961
c-0.159973 -32.482 -0.0299683 -64.977 -0.0699463 -97.466v-480.338c0.339966 -6.6631 0.0699463 -13.5332 -2.46002 -19.7998c-4.49902 -11.5704 -16.673 -19.2276 -28.919 -19.4815c-3.05597 -0.18847 -6.05902 0.48145 -9.08801 0.520512
c-65.868 -0.416012 -131.735 -0.858402 -197.609 -1.25488c-11.402 -0.07129 -23.563 3.12012 -31.559 11.6943c-5.987 6.54493 -7.651 15.8339 -7.31299 24.4277c0.454956 5.9023 0.175964 11.8242 0.214966 17.7324
c-0.195007 55.1816 -0.383972 110.363 -0.578979 165.543c-0.0449829 6.87801 -2.09302 13.866 -6.474 19.242c-5.12299 6.343 -12.676 10.16 -20.249 12.779c-8.48199 2.795 -17.466 3.881 -26.372 3.73099h-345.119c-12.546 -0.0779877 -25.026 -4.30899 -35.089 -11.785
c-6.64902 -4.953 -11.024 -12.935 -10.973 -21.302c-0.0320129 -58.508 -0.00601196 -117.017 -0.0120239 -175.527c0 -9.4248 0.553009 -19.1367 -2.53497 -28.1983c-1.52802 -4.6279 -4.45901 -9.00289 -8.90601 -11.2451
c-8.06702 -4.24512 -17.414 -4.91407 -26.359 -5.21973c-69.338 0.213867 -138.67 0.448242 -208.009 0.649414c-7.5986 -0.324219 -15.7441 0.982426 -21.7568 5.97461c-6.93557 5.74608 -10.1797 14.8916 -10.3936 23.7061
c-0.0459001 65.8613 -0.16309 131.722 -0.23437 197.583c-0.28614 128.283 0.18261 256.566 0.22753 384.85c-0.32519 8.125 1.28711 16.679 6.31832 23.264c3.5362 4.88904 9.003 8.17804 14.8731 9.41205c5.2978 1.30096 10.7773 0.753967 16.166 0.884949
c64.3596 0.195007 128.719 0.403015 193.079 0.605042c9.97699 0.154968 20.164 0.200989 29.823 -2.62c5.246 -1.521 10.537 -4.31702 13.17 -9.33405c4.823 -8.95197 4.64001 -19.489 4.53699 -29.37v-178.1c-0.0390015 -4.992 1.20901 -10.037 3.88101 -14.281
c2.521 -4.08301 6.16199 -7.366 10.178 -9.927c7.70999 -4.888 16.486 -8.164 25.573 -9.211c4.056 -0.526001 8.15799 -0.389984 12.24 -0.402008c113.762 -0.00698853 227.53 0.00500488 341.292 -0.00698853c12.877 0.0579834 26.124 2.70401 37.077 9.75699
c5.83099 3.71201 10.491 9.379 12.513 16.036c2.18396 6.57199 1.39099 13.566 1.56696 20.366c0.189026 53.088 0.370056 106.176 0.56604 159.269c-0.0200195 4.33002 0.154968 8.672 -0.208008 12.995c-0.416992 8.49603 1.03302 17.661 6.68097 24.35
c5.72803 6.59796 14.171 10.31 22.687 11.649z" />
    <glyph glyph-name="I" unicode="I" horiz-adv-x="362" 
d="M28.499 649.771c6.5576 1.047 13.2139 0.734985 19.8242 0.781006l182.177 -0.00701904c8.659 -0.201965 18.042 -2.04999 24.398 -8.39398c6.019 -5.98499 7.65199 -14.919 7.339 -23.103c-0.649994 -8.00897 -0.22699 -16.065 -0.332001 -24.093
c0.306 -187.596 0.0589905 -375.192 0.169006 -562.801c0.286987 -7.3984 -1.177 -15.1865 -5.724 -21.2041c-2.571 -3.61133 -6.32501 -6.24024 -10.444 -7.80176c-6.961 -2.66016 -14.515 -3.19434 -21.906 -3.14844c-61.804 0.00683594 -123.613 0 -185.423 0
c-6.8125 -0.136719 -13.7998 0.410156 -20.1503 3.03809c-4.4434 1.82812 -8.43852 4.87304 -11.0411 8.93941c-3.24023 4.9913 -4.38476 11.042 -4.46972 16.917c-0.12403 3.6953 0.52734 7.3653 0.37109 11.0674c-0.18848 133.6 -0.34473 267.207 -0.53418 400.807
c-0.24023 2.17899 0.61816 4.27499 0.37109 6.45499c-0.0126901 54.88 0 109.767 -0.00683022 164.647c0.11719 5.40704 -0.44239 10.872 0.69629 16.208c1.17187 5.93402 4.11914 11.652 8.80372 15.55c4.5146 3.62994 10.2471 5.26398 15.8818 6.14197z" />
    <glyph glyph-name="J" unicode="J" 
d="M767.215 649.768c6.54498 1.03601 13.193 0.729004 19.797 0.775024l182.346 -0.00701904c7.22302 -0.182007 14.738 -1.43903 20.871 -5.48199c5.00098 -3.25 8.41498 -8.58301 9.79102 -14.34c1.52997 -5.73102 1.17999 -11.708 0.76001 -17.563
c0.199951 -159.529 0.419983 -319.065 0.619995 -478.601c0.22998 -13.474 -1.30005 -27.031 -5.18604 -39.9582c-5.828 -19.6787 -17.556 -37.4697 -32.977 -50.9619c-13.889 -12.1641 -30.729 -20.3828 -47.849 -26.9463
c-25.716 -9.61817 -53.053 -14.3262 -80.39 -15.9932c-13.806 -0.879883 -27.637 -0.665039 -41.455 -0.69043h-721.543c-10.4121 0.129883 -20.832 -0.326172 -31.2246 0.364258c-8.7647 0.729492 -17.8428 1.93457 -25.5986 6.36914
c-5.91313 3.3467 -9.42875 9.6631 -11.1485 16.0449c-1.83594 6.6817 -2.12305 13.669 -1.97949 20.5586c-0.17578 25.6182 -0.38379 51.2422 -0.56641 76.8601c-0.0126899 5.457 -0.3457 10.973 0.74903 16.359c1.23046 6.726 4.54492 13.186 9.87795 17.562
c8.6679 7.13701 20.3506 8.92101 31.2451 9.155c218.164 0.665009 436.32 1.27701 654.476 1.92101c11.253 -0.0780029 22.818 3.27699 31.323 10.863c6.466 5.46399 10.458 13.427 11.871 21.704c1.453 7.274 0.606018 14.697 0.762024 22.05v387.479
c0.065979 5.203 -0.109985 10.406 0.0390015 15.609c0.377991 7.44403 3.15796 15.031 8.77197 20.122c4.58502 4.05103 10.679 5.82202 16.618 6.74701z" />
    <glyph glyph-name="K" unicode="K" horiz-adv-x="1094" 
d="M35.2617 653.865h192.898c9.95999 0.117004 20.529 0.197021 29.516 -4.73798c7.021 -3.71802 11.517 -10.982 13.285 -18.567c1.88501 -7.26398 1.28201 -14.81 1.34799 -22.232c-0.117981 -72.852 -0.235992 -145.706 -0.354004 -218.558
c-0.215973 -69.601 0.0660095 -139.202 0.138 -208.802c0.0720215 -49.071 0.157013 -98.1477 0.229004 -147.225c-0.255981 -9.3194 -2.828 -19.3067 -10.007 -25.7393c-7.153 -6.30274 -17.1 -7.86719 -26.315 -8.00391
c-63.271 -0.0195312 -126.544 0 -189.816 -0.00683594c-4.8291 0.124024 -9.7178 -0.542969 -14.4893 0.484375c-7.9902 1.40723 -14.9863 6.41992 -19.6787 12.9317c-6.66892 8.7236 -9.6074 19.8955 -9.0908 30.792
c0.0195401 188.481 0.0195401 376.962 0.00683999 565.443c-0.56934 11.4 2.72266 23.095 9.99996 31.989c5.3204 6.95703 13.5401 11.682 22.3301 12.232zM598.211 651.64c6.57703 1.177 13.278 0.849976 19.934 0.856995
c84.214 -0.419006 168.428 -0.811035 252.65 -1.24298c4.72504 0.0249634 9.76404 -1.40704 12.925 -5.11804c3.50806 -4.08398 4.54901 -9.67297 4.63904 -14.908c0.112 -7.78204 -3.25201 -15.262 -8.22504 -21.1201c-2.638 -3.24597 -5.82495 -5.96796 -9.026 -8.638
c-70.254 -59.79 -140.476 -119.614 -210.725 -179.404c-9.56201 -8.311 -19.535 -16.152 -28.639 -24.967c-2.42102 -2.34299 -5.03204 -4.509 -7.32904 -6.97c-3.22699 -4.28601 -6.43396 -9.20099 -6.29596 -14.784c-0.0720215 -4.37799 2.09399 -8.35101 4.45599 -11.891
c2.31097 -3.72501 5.94299 -6.29001 8.992 -9.35901c9.70599 -9.064 19.379 -18.167 29.111 -27.205c41.275 -35.027 82.453 -70.177 123.69 -105.248c65.759 -55.74 131.309 -111.728 196.983 -167.572c3.04901 -2.6377 6.18396 -5.1699 9.17401 -7.8857
c6.10699 -5.7403 11.095 -13.1875 12.125 -21.669c0.659973 -6.1523 -0.0700073 -12.8867 -3.79401 -18.0175c-3.23901 -4.417 -8.97101 -6.01368 -14.227 -5.86328c-87.244 -0.418946 -174.488 -0.883789 -261.733 -1.26367
c-5.289 0.020508 -10.53 0.818359 -15.681 1.97071c-3.38306 0.81738 -6.99506 0.95508 -10.111 2.61718c-3.94598 1.99024 -7.172 5.07227 -10.916 7.37602c-2.57196 1.538 -4.58197 3.8017 -6.72797 5.8437c-8.97302 9.1563 -18.54 17.6963 -27.84 26.5117
c-110.143 103.194 -220.3 206.374 -330.437 309.568c-5.42502 6.56302 -10.314 14.109 -11.747 22.643c-1.34201 8.51498 2.32999 16.754 6.957 23.671c1.603 2.311 3.108 4.72601 5.117 6.715c74.339 69.64 148.717 139.254 223.049 208.906
c6.26898 5.93604 12.703 11.703 18.73 17.893c2.89899 2.77502 5.56299 5.90302 9.08398 7.93201c4.49603 2.87897 8.43604 6.96997 13.782 8.23999c4.026 0.770996 8.02399 1.63599 12.056 2.38202z" />
    <glyph glyph-name="L" unicode="L" horiz-adv-x="1104" 
d="M26.6182 649.819c2.6953 0.437012 5.4306 0.67804 8.166 0.710022l190.186 0.00701904c8.52299 -0.052002 17.497 -0.801025 25.038 -5.15002c7.92502 -4.74097 11.773 -14.209 12.054 -23.144c0 -136.313 0.00497437 -272.633 -0.00701904 -408.952
c-0.312988 -10.08 0.957001 -20.643 6.336 -29.388c5.91901 -9.612 16.39 -15.882 27.395 -17.803c5.18399 -1.02299 10.478 -0.912003 15.733 -0.917999c216.187 -0.638992 432.375 -1.257 648.563 -1.90199c10.243 -0.182007 21.033 -1.61501 29.72 -7.457
c5.58099 -3.724 9.57202 -9.597 11.248 -16.071c1.76001 -6.147 1.33002 -12.6 1.37 -18.923v-78.7938c-0.0799561 -7.2539 -0.769958 -14.6192 -3.18896 -21.502c-1.81 -5.0595 -4.75299 -9.9502 -9.29303 -12.9912c-4.54401 -3.04102 -9.89099 -4.61036 -15.205 -5.67872
c-8.04199 -1.54296 -16.254 -1.92675 -24.42 -1.8623h-712.313c-17.374 0.0390625 -34.741 -0.0839844 -52.108 0.0722656c-24.478 0.40332 -49.002 3.08007 -72.757 9.10937c-19.4055 4.94236 -38.2903 12.21 -55.592 22.3487
c-15.5049 9.1494 -28.8477 21.9775 -38.3096 37.3135c-9.42871 15.0097 -14.6514 32.4162 -16.2149 50.0102c-0.81347 8.01 -0.5205 16.072 -0.55957 24.108c0.20801 156.727 0.42286 313.449 0.61231 470.17c-0.73633 8.48499 -0.76172 17.693 3.95215 25.148
c4.16796 6.79199 11.9493 10.3669 19.5948 11.5389z" />
    <glyph glyph-name="M" unicode="M" horiz-adv-x="1390" 
d="M116.557 649.384c5.811 0.835999 11.689 0.289001 17.542 0.497009c7.99001 -0.131958 15.98 0.0640259 23.964 0c23.707 -0.953979 47.511 -1.76898 70.958 -5.53101c18.4 -2.81799 34.819 -12.249 49.93 -22.4709c21.143 -14.519 40.179 -31.718 58.664 -49.329
c16.34 -15.53 33.623 -30.055 50.627 -44.88c72.068 -62.51 144.129 -125.035 216.184 -187.56c4.99597 -4.38098 10.105 -8.63998 14.986 -13.141c6.84601 -6.039 15.648 -9.79099 24.768 -10.894c6.66901 -1.10202 13.384 0.678986 19.628 2.88998
c6.33704 2.36902 11.841 6.42502 16.626 11.089c80.137 69.535 160.282 139.077 240.441 208.599c9.52301 8.297 19.168 16.476 28.436 25.053c15.284 14.095 30.108 28.705 46.354 41.756c10.505 8.52502 21.405 16.619 33.035 23.612
c9.89001 5.89001 20.37 11.1281 31.67 13.846c13.85 3.10004 28.08 4.16199 42.22 5.21301c16.3401 0.984985 32.7001 2.03503 49.0701 1.70099c7.75 0.0469971 15.51 0 23.27 0.0140381c14.08 -1.29199 28.3099 -2.82605 41.7899 -7.26703
c10.89 -3.69202 21.02 -9.26202 30.5901 -15.529c9.37988 -5.961 17.5699 -13.717 24.0099 -22.693c13.16 -18.653 19.9 -41.358 20.42 -63.957c-0.160034 -162.224 -0.410034 -324.453 -0.650024 -486.677c-0.289917 -12.0976 -2.07996 -24.8506 -9.21997 -35.0439
c-6.07996 -8.68168 -16.29 -13.4698 -26.4399 -15.876c-15.02 -3.73731 -30.62 -2.6416 -45.9601 -2.80469c-27.22 0.00585938 -54.4399 0.00585938 -81.6699 0c-9.55005 0.0859375 -19.16 -0.438477 -28.63 1.10156c-11.14 1.64453 -22.8301 4.42188 -31.4401 11.9755
c-8.01001 7.3711 -10.98 18.334 -12.47 28.6602c-1.41003 9.8301 -1.06006 19.7695 -1.07996 29.6563c0.109985 72.6074 0.609985 145.214 0.899902 217.823c-0.0299072 11.095 -0.119995 22.177 -0.219971 33.263c-0.179932 4.31799 0.550049 8.793 -1.01001 12.948
c-1.20996 3.54199 -4.45996 6.62698 -8.37 6.83499c-3.73999 0.118011 -6.97998 -2.09799 -9.63 -4.448c-106.334 -92.41 -212.536 -184.969 -318.493 -277.796c-18.312 -15.2354 -42.503 -22.8477 -66.375 -22.4229c-14.008 -0.514599 -28.197 1.0234 -41.481 5.542
c-11.245 3.791 -21.728 9.6865 -30.813 17.208c-105.805 92.7473 -211.907 185.17 -318.103 277.483c-2.483 2.198 -5.44499 4.245 -8.894 4.43399c-4.00299 0.171997 -7.52399 -2.797 -8.89999 -6.33801c-1.634 -3.85599 -1.14799 -8.09598 -1.17599 -12.16
c-0.458008 -32.821 -0.0800018 -65.647 0.0529938 -98.469c0.259995 -53.483 0.544998 -106.96 0.619003 -160.438c0.106003 -10.7168 -0.147003 -21.5625 -2.81 -32.0117c-1.73401 -6.7178 -4.51801 -13.3975 -9.43401 -18.4912
c-5.444 -5.56351 -12.897 -8.71292 -20.351 -10.7745c-7.95601 -2.11328 -16.185 -3.20996 -24.421 -3.57421c-34.754 -0.00683594 -69.512 0 -104.271 -0.00683594c-10.6084 0.0654297 -21.2812 -0.404297 -31.8018 1.23828
c-10.2773 1.52637 -20.791 4.51465 -28.8681 11.2246c-7.0088 5.7988 -10.9541 14.3701 -12.9121 22.999c-1.53516 6.6533 -2.05859 13.4942 -2.08594 20.3037c-0.21289 160.649 -0.43164 321.296 -0.64355 481.935c-0.0468798 20.553 5.22656 41.144 15.5136 59.054
c6.6973 11.598 16.0362 21.746 27.2959 29.221c10.9444 7.26501 22.5958 13.789 35.3028 17.572c10.9717 3.23401 22.3832 4.70801 33.7562 5.836z" />
    <glyph glyph-name="N" unicode="N" 
d="M137.077 644.819c21.426 0.220032 42.851 0.878052 64.282 0.665039c0.433014 -0.452026 0.956009 -0.658997 1.589 -0.619995c22.02 -0.52301 44.053 -1.30499 65.989 -3.35303c9.73599 -1.00098 19.518 -2.06097 29.003 -4.56897
c11.643 -3.27502 22.374 -9.13501 32.525 -15.609c16.108 -10.422 30.878 -22.75 45.073 -35.62c10.383 -9.44 20.281 -19.397 30.607 -28.895c15.848 -14.556 32.182 -28.571 48.251 -42.888c20.805 -18.33 41.519 -36.777 62.382 -55.036
c14.964 -13.032 29.696 -26.33 44.576 -39.464c64.106 -56.943 128.324 -113.761 192.501 -170.632c2.927 -2.584 7.04303 -4.86501 11.017 -3.366c4.34198 1.60799 6.52002 6.338 6.76501 10.713c0.296997 34.882 0.496948 69.773 0.270996 104.657
c-0.283997 73.449 -0.795044 146.899 -0.886047 220.355c-0.10199 13.027 0.234009 26.446 4.98901 38.754c2.59698 6.888 7.35199 13.032 13.833 16.645c10.9 6.20898 23.654 7.98499 35.982 8.80499c35.542 0.0390015 71.085 0.00695801 106.628 0.0199585
c14.498 0.207031 29.469 -0.0969849 43.115 -5.59497c7.81104 -3.08899 14.867 -8.53503 18.899 -16.011c6.28198 -11.3781 7.18201 -24.7531 7.052 -37.487c0.199951 -157.851 0.419983 -315.71 0.619995 -473.561c0.039978 -20.9731 -5.38501 -42.0229 -16.046 -60.1206
c-6.125 -10.3056 -14.35 -19.3837 -24.145 -26.3095c-8.34198 -5.7637 -17.0699 -11.0362 -26.413 -15.003c-10.997 -4.74898 -22.886 -6.91988 -34.709 -8.36714c-9.466 -1.06641 -18.957 -2.09375 -28.481 -2.3457c-23.021 -0.083985 -46.035 -0.96875 -69.05 -0.65918
c-1.83502 0.898437 -3.90204 0.569336 -5.854 0.666016c-19.855 0.536129 -39.716 1.2793 -59.5 3.03027c-13.711 1.41504 -27.751 2.57129 -40.615 7.90134c-18.911 7.876 -35.5161 20.2305 -51.288 33.1075c-17.522 14.2783 -33.307 30.496 -49.912 45.79
c-22.207 20.042 -44.795 39.645 -67.157 59.513c-4.51599 3.85001 -8.75494 8.05701 -13.517 11.604c-88.368 78.554 -176.859 156.98 -265.39 235.353c-2.869 2.45502 -6.88701 4.522 -10.687 3.043c-4.33501 -1.63498 -6.49301 -6.36499 -6.73201 -10.739
c-0.272003 -34.011 -0.498001 -68.029 -0.272003 -102.04c0.266006 -69.347 0.731003 -138.694 0.866013 -208.035c-0.103012 -10.5508 0.362991 -21.1152 -0.394012 -31.6465c-0.871994 -10.2539 -2.72699 -20.8955 -8.54799 -29.6113
c-5.13 -7.6699 -13.898 -11.8369 -22.524 -14.2539c-9.68401 -2.60351 -19.751 -3.83105 -29.772 -3.60449c-31.446 -0.00683594 -62.893 0 -94.3389 -0.00683594c-11.417 0.0771484 -22.9306 -0.49707 -34.2304 1.54395
c-10.1836 1.75098 -20.6377 5.20801 -28.0996 12.6836c-7.15922 7.2686 -10.3506 17.4385 -11.6817 27.3301c-1.13769 7.9599 -0.83984 16.0176 -0.8916 24.0293c-0.20019 155.706 -0.41406 311.413 -0.61426 467.112c-0.0253899 20.96 5.39551 41.979 16.0362 60.07
c6.1904 10.409 14.5185 19.564 24.4424 26.516c8.2314 5.66595 16.8379 10.848 26.0449 14.764c11.4492 4.95502 23.8545 7.12701 36.17 8.56702c10.712 1.16901 21.457 2.33197 32.24 2.20996z" />
    <glyph glyph-name="O" unicode="O" 
d="M128.968 647.775c6.369 0.578979 12.763 0.897949 19.159 0.838989h708.354c27.538 -0.176025 55.445 -6.37604 79.278 -20.524c18.5811 -11.049 34.698 -26.302 46.78 -44.234c11.244 -16.787 17.771 -36.758 18.051 -56.997
c0.279968 -136.281 0.47998 -272.561 0.72998 -408.841c0.0999756 -14.409 -2.70898 -28.9086 -8.81799 -41.9916c-8.33099 -17.8985 -22.317 -32.6582 -38.104 -44.253c-19.302 -14.038 -42.088 -22.5839 -65.297 -27.5498
c-15.403 -3.25586 -31.151 -4.7705 -46.878 -4.85449c-230.077 0.208007 -460.147 0.422851 -690.223 0.630859c-21.629 -0.182617 -43.42 2.9375 -63.7559 10.4697c-17.0927 6.2783 -33.0097 15.669 -46.8652 27.4785c-12.7519 10.8409 -23.7031 24.0918 -30.6182 39.4239
c-5.97261 13.1015 -8.82515 27.5359 -8.81246 41.9189c-0.20117 139.523 -0.42871 279.048 -0.62402 418.571c0.03223 17.327 4.79004 34.712 14.2783 49.264c7.585 11.809 17.8467 21.72 29.2207 29.863c24.5147 17.782 54.0469 28.155 84.1448 30.786zM332.937 479.058
c-9.918 -0.416016 -19.959 -3.57501 -27.538 -10.152c-9.22098 -8.065 -15.279 -19.568 -17.02 -31.677c-0.910004 -5.634 -0.644012 -11.36 -0.657013 -17.041c0.202026 -64.548 0.410004 -129.091 0.604004 -193.635c0.150024 -12.439 2.12601 -25.418 8.98801 -36.057
c5.233 -8.241 13.759 -14.064 23.099 -16.671c10.301 -3.112 21.161 -2.424 31.775 -2.495h310.008c7.15601 0.0590057 14.422 -0.408997 21.448 1.313c9.56 2.067 18.288 7.629 24.164 15.455c6.31 8.11699 9.13 18.503 9.14301 28.687
c-0.447998 66.291 -0.849976 132.576 -1.28601 198.867c-0.182983 8.89798 0.447998 17.912 -1.53998 26.66c-2.40503 11.711 -9.04102 22.876 -19.297 29.318c-8.90997 5.621 -19.666 7.51898 -30.064 7.47998c-110.61 -0.0389709 -221.225 0.0650024 -331.827 -0.0519714z
" />
    <glyph glyph-name="P" unicode="P" 
d="M140.353 647.803c6.79201 0.539001 13.609 0.825012 20.42 0.804993c211.225 -0.194946 422.45 -0.441956 633.673 -0.681946c30.846 0.0910034 61.873 0.175964 92.419 -4.70502c14.189 -2.33301 28.175 -5.96002 41.66 -10.958
c18.4189 -6.81799 35.935 -17.451 48.257 -32.996c12.733 -16.151 20.629 -35.928 23.278 -56.278c1.16998 -8.59204 1.58002 -17.281 1.42999 -25.944c0.140015 -52.41 0.549988 -104.819 0.650024 -157.23c-0.299988 -12.706 -2.03003 -25.508 -6.47803 -37.467
c-6.92096 -18.309 -19.991 -34.537 -37.306 -43.915c-10.839 -5.93402 -22.701 -9.72302 -34.685 -12.544c-12.804 -2.95102 -25.77 -5.16 -38.807 -6.72702c-18.562 -2.24799 -37.266 -2.93698 -55.939 -3.48999c-15.169 -0.565994 -30.332 -0.181992 -45.507 -0.265991
c-107.029 0.0059967 -214.059 -0.0190125 -321.088 0.0130005c-8.83899 -0.59201 -17.724 -0.17601 -26.582 -0.299011h-109.869c-6.707 0.0130005 -13.434 0.0449982 -20.115 -0.610992c-13.239 -1.46201 -25.555 -9.755 -31.723 -21.584
c-3.55499 -6.75301 -4.13998 -14.506 -4.63998 -21.981c0.122986 -58.934 0.169006 -117.876 0.304993 -176.81c-0.174988 -9.3008 -2.56598 -19.2832 -9.586 -25.8604c-7 -6.44141 -16.943 -8.0918 -26.12 -8.27344
c-64.485 -0.0458984 -128.978 0.0253906 -193.469 -0.0390625c-8.1435 -0.682617 -16.6904 1.34472 -23.0332 6.65527c-8.50093 7.13579 -13.8046 17.7686 -15.0263 28.7451c-0.52637 4.1211 -0.2666 8.2803 -0.30566 12.4141c-0.00683999 142.782 0 285.563 0 428.344
c0.02636 14.279 -0.0585999 28.558 0.0458901 42.83c0.44141 23.741 6.02442 47.9 19.1983 67.9041c6.3105 9.677 14.246 18.269 23.2343 25.516c12.9795 10.431 27.7393 18.594 43.3633 24.333c16.8012 6.19397 34.5232 9.65698 52.3452 11.101zM305.276 482.963
c-11.932 -0.481018 -22.818 -7.57101 -29.297 -17.399c-5.48599 -7.91599 -7.15701 -17.743 -7.35101 -27.192c-0.0329895 -6.181 0.552002 -12.439 2.48199 -18.341c2.27502 -6.883 6.66202 -12.979 12.212 -17.613c6.03799 -5.04999 13.941 -7.5 21.753 -7.63
c11.698 -0.0709839 23.398 -0.052002 35.103 -0.0979919c17.761 0.052002 35.524 -0.389008 53.287 -0.377014c16.677 -0.382996 33.366 -0.0390015 50.05 -0.109985c83.846 0.188995 167.693 0.376984 251.539 0.53299c6.29199 0.117004 12.719 -0.376984 18.829 1.46201
c7.72699 2.047 14.31 7.23401 18.944 13.656c6.37 8.487 8.00098 19.477 7.70898 29.837c-0.29303 6.36298 -1.125 12.817 -3.53601 18.757c-5.40698 13.187 -18.094 23.715 -32.626 24.483c-12.004 0.278992 -24.015 0.0190125 -36.025 0.0710144
c-83.184 -0.143005 -166.361 -0.299011 -249.544 -0.442017c-1.52798 0.0849915 -3.035 0.377014 -4.56299 0.332001c-36.324 -0.052002 -72.647 0.259003 -108.966 0.0710144z" />
    <glyph glyph-name="Q" unicode="Q" 
d="M128.977 647.698c6.368 0.578003 12.769 0.896973 19.169 0.838989h697.944c13.569 0.207031 27.196 -0.27301 40.576 -2.724c24.563 -4.22998 48.152 -14.626 67.304 -30.665c16.213 -13.594 30.262 -30.328 38.4821 -49.979
c5.36798 -12.736 8.078 -26.559 8.078 -40.374c0.179993 -104.644 0.359985 -209.279 0.549988 -313.916c0.149963 -32.037 -0.140015 -64.074 0.0100098 -96.117c0.0599976 -25.3382 0.109985 -50.6751 0.169983 -76.0188
c1.14996 -14.7764 -7.24701 -30.2627 -21.037 -36.1885c-6.02502 -2.60645 -12.672 -3.29492 -19.17 -3.2041c-73.199 0.039062 -146.402 -0.09082 -219.6 0.117187c-196.484 0.168946 -392.969 0.357422 -589.453 0.532227
c-21.477 -0.181641 -43.11 2.89844 -63.3203 10.3193c-17.3897 6.336 -33.5703 15.8828 -47.6133 27.9239c-12.2363 10.4756 -22.7832 23.1601 -29.6514 37.8007c-6.38863 13.4522 -9.44234 28.3791 -9.42281 43.2471c-0.20117 139.48 -0.42871 278.961 -0.62403 418.448
c0.02637 17.032 4.60059 34.137 13.7832 48.543c7.5507 12.016 17.8701 22.101 29.3466 30.374c24.5762 17.929 54.2354 28.398 84.479 31.042zM324.161 477.883c-9.44202 -1.87799 -18.188 -7.07098 -24.186 -14.614c-8.08401 -9.60501 -12.25 -22.16 -12.256 -34.65
c0.169006 -62.384 0.382996 -124.762 0.571014 -187.146c0.123993 -11.737 -0.578003 -23.667 2.379 -35.143c2.42398 -10.177 7.759 -20.021 16.435 -26.156c9.59 -6.93399 21.775 -8.93599 33.375 -8.858c53.292 0.00700378 106.58 -0.0509949 159.873 0.0270081
c9.46701 -0.235001 19.111 0.934998 27.851 4.76199c6.83002 2.957 12.737 7.89601 16.974 14.004c6.40698 9.04601 9.01898 20.269 9.20203 31.225c0.220947 20.133 -0.0460205 40.277 -0.00701904 60.416c0.351013 10.3 5.46497 20.203 13.264 26.857
c6.914 5.823 16.174 7.974 25.044 7.92801c25.311 0.0140076 50.629 0.0390015 75.94 -0.0130005c11.209 0.389984 22.796 3.633 31.296 11.249c9.31799 8.29102 14.29 20.613 15.329 32.862l0.500977 0.0190125c0.351013 17.884 -0.0979614 35.781 -0.109985 53.67
c-0.221985 8.68301 0.44104 17.449 -1.16998 26.033c-1.96301 11.373 -7.70703 22.368 -17.032 29.385c-8.922 6.746 -20.347 9.17599 -31.342 9.31302h-320.421c-7.17398 -0.0650024 -14.446 0.441986 -21.51 -1.17001z" />
    <glyph glyph-name="R" unicode="R" horiz-adv-x="1126" 
d="M75.335 631.5c26.188 12.336 55.385 17.232 84.214 17.52c220.151 -0.182007 440.295 -0.462036 660.438 -0.690002c18.365 0.0529785 36.75 -0.5 55.038 -2.27502c23.011 -2.09601 45.8719 -7.01099 67.264 -15.797c18.005 -7.47302 34.719 -19.043 45.939 -35.112
c5.96698 -8.40302 10.638 -17.677 14.1819 -27.334c4.86005 -13.529 6.91003 -27.918 7.29004 -42.233c0.169983 -53.243 0.47998 -106.487 0.709961 -159.73c0.150024 -13.781 -1.21997 -27.737 -5.69 -40.855c-6.08899 -17.564 -17.805 -33.408 -33.615 -43.514
c-10.903 -6.90701 -23.234 -11.218 -35.695 -14.411c-24.256 -5.95099 -49.155 -9.073 -74.098 -10.256c-24.033 -1.20898 -48.105 -1.52299 -72.165 -1.52899c80.348 -67.901 160.704 -135.791 241.063 -203.685c3.5 -2.9922 7.19006 -5.8203 10.1801 -9.3525
c5.02002 -5.6387 8.58997 -12.7979 8.83997 -20.4131c0.119995 -5.6123 -0.839966 -11.6875 -4.60999 -16.1025c-3.30994 -3.87598 -8.66003 -5.20899 -13.6 -5.10547c-87.165 -0.422852 -174.332 -0.866211 -261.498 -1.26172
c-7.776 -0.135742 -15.33 1.82129 -22.8979 3.27149c-6.09503 1.54785 -10.436 6.4248 -15.739 9.47563c-4.65302 3.7783 -8.61499 8.3046 -12.972 12.3945c-115.246 107.163 -230.498 214.327 -345.742 321.49c-2.62698 2.58002 -5.66 4.80402 -7.74399 7.87399
c-4.20599 5.75601 -8.091 12.058 -9.36301 19.159c-1.082 5.814 0.687012 12.142 4.80899 16.435c3.58301 3.67499 8.94501 4.99399 13.956 4.83899c108.319 0.233002 216.631 0.480988 324.951 0.682007c7.31995 0.182983 14.848 -0.572021 21.929 1.74298
c13.111 4.03201 22.783 16.297 24.979 29.571c1.61804 9.22198 1.263 18.782 -1.03699 27.859c-4.31598 16.059 -19.498 29.294 -36.625 29.183c-136.703 -0.17099 -273.408 -0.468994 -410.11 -0.691986c-6.073 -0.244995 -11.808 -3.24402 -15.823 -7.711
c-6.99197 -7.73901 -10.489 -18.139 -10.877 -28.426c0.261993 -33.161 0.151001 -66.335 0.256989 -99.503c0.177002 -102.981 0.308014 -205.962 0.511017 -308.95c0.313995 -10.1055 -1.38901 -21.1748 -8.66202 -28.8027
c-7.005 -7.22461 -17.646 -9.07812 -27.322 -9.25488c-63.039 -0.0322266 -126.076 -0.00585938 -189.114 -0.0126953c-6.1279 0.15625 -12.3974 -0.749024 -18.3652 1.07227c-8.4062 2.21777 -15.123 8.47559 -19.5332 15.7324
c-4.22363 6.7578 -6.44531 14.6592 -6.71484 22.5937c-0.00683999 158.89 -0.00683999 317.787 0 476.684c0.02637 24.512 5.36621 49.609 18.9082 70.4c12.8574 20.109 32.7216 34.866 54.1543 45.03z" />
    <glyph glyph-name="S" unicode="S" 
d="M165.307 649.225c15.03 1.11102 30.1 0.77301 45.157 0.825012h731.414c13.126 0.0650024 26.622 0.29303 39.202 -4.01801c5.70801 -1.91101 11 -5.55298 13.9 -10.948c5.67999 -10.129 5.82001 -22.144 5.72003 -33.449v-81.24
c-0.0100098 -7.867 -2.177 -16.078 -7.63202 -21.961c-5.94098 -6.535 -14.672 -9.62198 -23.189 -11.027c-8.82904 -1.54703 -17.82 -0.936005 -26.733 -1.11102c-210.434 -0.59198 -420.868 -1.22299 -631.301 -1.827c-6.716 0.026001 -13.548 0.175995 -20.063 -1.70999
c-12.886 -3.479 -24.386 -13.555 -27.786 -26.7c-2.29501 -9.47299 -2.42599 -19.426 -0.722015 -29.009c2.24402 -13.035 12.554 -23.704 24.77 -28.138c5.34399 -1.944 11.052 -2.76898 16.727 -2.78299c116.367 -0.143005 232.734 -0.23999 349.1 -0.397003
c51.5811 0.053009 103.169 -0.324005 154.75 0.0979919c29.535 0.241028 59.252 -2.73599 87.741 -10.721c18.58 -5.272 36.687 -12.644 53.096 -22.897c18.567 -11.78 33.442 -29.242 42.115 -49.442c6.755 -15.668 9.65698 -32.832 9.487 -49.838v-113.149
c-0.0999756 -13.399 0.619995 -26.916 -1.776 -40.178c-3.758 -23.6519 -15.356 -45.9898 -32.702 -62.523c-13.606 -13.1845 -30.757 -21.9414 -48.187 -28.9365c-36.479 -14.3613 -76.111 -18.7236 -115.073 -18.1455h-731.322
c-8.874 0.0517578 -17.748 -0.0908203 -26.623 0.078125c-10.0958 0.552734 -20.6221 1.49512 -29.6846 6.3584c-6.19533 3.28321 -9.90822 9.75778 -11.793 16.3047c-1.87304 6.4043 -2.41894 13.1133 -2.458 19.7647c-0.00585997 29.0468 0.0068301 58.0951 0 87.1491
c-0.0585999 8.933 2.93261 18.333 9.94729 24.224c8.8222 7.48199 20.8564 9.381 32.0576 9.81c213.216 0.643997 426.426 1.23601 639.642 1.879c8.22998 0.228012 16.578 -0.610992 24.698 1.09901c13.86 2.80899 26.558 13.172 30.303 27.078
c2.32001 9.401 2.48901 19.289 0.864014 28.819c-2.33398 14.583 -14.654 26.227 -28.69 29.764c-5.67499 1.547 -11.592 1.69 -17.43 1.586c-146.064 0.188995 -292.128 0.332001 -438.187 0.494003c-18.839 -0.0709991 -37.68 0.195999 -56.515 0.396988
c-38.799 -0.442993 -78.249 3.90701 -114.552 18.256c-16.8125 6.77399 -33.3584 15.147 -46.6992 27.629c-17.4688 16.118 -29.4053 38.027 -33.6045 61.412c-1.41113 7.59302 -2.13281 15.31 -2.19141 23.034v134.602c0.12989 20.928 5.16895 42.051 16.0449 60.053
c6.8066 11.416 15.6621 21.604 26.0899 29.86c9.6933 7.76202 20.7587 13.607 32.0449 18.698c28.3393 12.619 59.2003 18.769 90.0433 20.876z" />
    <glyph glyph-name="T" unicode="T" horiz-adv-x="1100" 
d="M35.082 650.506c5.042 0.572021 10.1104 0.858032 15.1787 0.800049h891.352c12.953 0.0719604 26.2401 0.28595 38.699 -3.82605c5.55499 -1.815 10.883 -5.08698 13.922 -10.234c5.66101 -9.26996 6.32599 -20.532 6.28601 -31.131l-0.0100098 -85.249
c-0.109985 -7.95703 -2.54102 -16.213 -8.26001 -21.964c-6.435 -6.57101 -15.634 -9.42102 -24.521 -10.65c-7.56702 -1.13202 -15.218 -0.657013 -22.83 -0.820007c-90.011 -0.227997 -180.029 -0.514008 -270.04 -0.768005
c-7.36499 -0.0249939 -14.743 0.123993 -22.068 -0.662994c-5.55701 -0.813019 -10.611 -3.897 -14.216 -8.15201c-6.87 -8.02899 -10.156 -18.666 -10.312 -29.134c0.325989 -18.653 0.135986 -37.313 0.234009 -55.972
c0.190002 -117.987 0.364014 -235.973 0.559998 -353.961c0.421997 -10.8779 -1.45099 -23.0703 -9.922 -30.747c-4.56702 -4.09961 -10.573 -6.2002 -16.551 -7.18262c-6.42798 -1.09961 -12.967 -0.742187 -19.446 -0.800781
c-63.044 -0.0322266 -126.101 0.0585942 -189.138 -0.0517578c-8.01501 0.40332 -15.725 4.15039 -21.047 10.1426c-8.20401 8.9004 -12.244 21.1709 -11.717 33.2002c0.0390015 124.493 0.00601196 248.979 0.0200195 373.472
c0.115997 6.298 -0.292999 12.616 0.310974 18.887c-0.141998 7.76199 0.833008 15.635 -1.021 23.279c-2.16599 9.44 -7 19.004 -15.478 24.229c-5.061 3.18701 -11.197 3.116 -16.948 3.40201c-94.552 0.325989 -189.104 0.605988 -283.663 0.859009
c-11.542 0.208984 -23.9424 1.88098 -33.2715 9.258c-7.28023 5.69998 -10.5986 15.126 -10.6503 24.151c0 30.07 -0.045898 60.148 0.025391 90.219c0.364258 10.41 1.82226 21.828 9.11523 29.856c6.66212 6.62299 16.4541 8.35999 25.4062 9.55096z" />
    <glyph glyph-name="U" unicode="U" 
d="M35.6338 648.409c61.8662 -0.117004 123.746 -0.0189819 185.626 -0.0529785c10.544 -0.129028 21.568 0.903992 31.553 -3.26703c6.13301 -2.40302 11.168 -7.289 13.871 -13.292c2.57202 -5.48297 3.521 -11.583 3.67001 -17.599
c-0.259003 -134.686 -0.416016 -269.374 -0.669006 -404.066c-0.701996 -9.94101 0.662994 -20.289 5.62601 -29.067c3.138 -5.703 7.711 -10.998 13.922 -13.395c2.96201 -1.183 6.185 -1.605 9.362 -1.50099c88.983 -0.0130005 177.967 -0.507004 266.943 -0.221008
c45.048 0.0720062 90.088 0.150009 135.129 0.240005c4.58002 0.156998 9.271 -0.512009 13.746 0.780991c4.815 1.29901 8.98499 4.41101 12.097 8.257c5.34601 6.60001 8.44598 14.864 9.35498 23.27c0.682007 5.151 0.0980225 10.343 0.176025 15.508
c-0.202026 129.502 -0.410034 258.998 -0.611023 388.5c0.0780029 7.56799 -0.585022 15.261 1.31903 22.68c1.63696 6.89899 5.43097 13.558 11.505 17.45c6.85394 4.43005 15.2339 5.59302 23.251 5.71704c64.304 0.0319824 128.606 -0.0270386 192.909 0.0319824
c8.14099 0.682007 16.684 -1.31897 23.037 -6.62c7.867 -6.57501 13.019 -16.163 14.699 -26.234c1 -5.36499 0.609985 -10.836 0.669983 -16.26v-441.149c-0.200012 -16.43 0.820007 -32.983 -1.81 -49.283c-2.95599 -19.8595 -10.519 -39.2393 -23.115 -54.9932
c-13.579 -17.0987 -32.191 -29.6114 -52.018 -38.3819c-25.609 -11.1738 -53.766 -15.4619 -81.571 -15.4619c-71.91 0.0322266 -143.821 0.168945 -215.725 0.208008c-154.196 0.364258 -308.386 -0.15625 -462.581 -0.208008
c-18.743 -0.227539 -37.583 1.28027 -55.864 5.53516c-19.2493 4.4375 -37.8489 12.0127 -54.2922 23.0234c-15.2276 10.0117 -28.4932 23.2715 -37.3809 39.2656c-11.336 20.0742 -15.6436 43.4298 -15.5401 66.2908
c-0.0126898 156.989 0.0195301 313.979 -0.0195298 470.962c-0.58398 12.785 4.04785 25.889 13.3057 34.848c5.164 5.073 12.2002 8.09503 19.4248 8.48401z" />
    <glyph glyph-name="V" unicode="V" 
d="M15.1846 639.048c5.1064 4.99603 12.0293 8.01904 19.1533 8.43402c62.5156 -0.0570068 125.045 -0.00500488 187.567 -0.0250244c9.90201 -0.0389404 20.224 0.655029 29.568 -3.258c5.68999 -2.25098 10.478 -6.59796 13.256 -12.049
c3.01599 -5.76105 4.10699 -12.328 4.26898 -18.77c-0.0679932 -23.864 0.375 -88.361 0.343018 -112.226c-0.0329895 -23.864 6.073 -33.554 16.387 -45.134c66.051 -58.545 115.037 -102.981 181.108 -161.506c5.67099 -4.99002 11.173 -10.453 18.226 -13.477
c5.20398 -2.32898 10.848 -3.67899 16.545 -3.97098c10.55 0.311981 20.906 4.52298 28.711 11.627c68.297 60.433 120.86 106.375 189.119 166.854c14.564 15.363 15.946 26.947 15.914 50.814c-0.03302 23.868 -0.535034 83.17 -0.60199 107.038
c0.187988 8.25299 2.00397 16.903 7.35699 23.416c4.172 5.20502 10.538 8.13702 16.955 9.448c7.065 1.54999 14.338 1.14203 21.522 1.19397c62.924 0.0200195 125.868 -0.0389404 188.793 0.0320435c6.97504 -0.408997 13.774 -3.29602 18.842 -8.117
c8.14899 -7.73999 12.962 -18.731 13.562 -29.924c0.199951 -4.96997 -0.0100098 -9.95398 0.0599976 -14.93c0.0199585 -61.867 0.309998 -101.928 0.339966 -163.794c0.539978 -11.885 -1.01001 -27.021 -24.017 -45.309
c-56.618 -50.019 -90.0941 -79.228 -146.718 -129.241c-17.051 -15.612 -34.596 -30.703 -51.868 -46.088c-35.966 -31.761 -71.898 -63.547 -107.883 -95.282l0.0910034 -0.694c-29.633 -26.3366 -59.265 -52.692 -88.826 -79.1198
c-6.83301 -5.9238 -13.204 -12.4257 -20.698 -17.5449c-10.037 -6.9814 -21.47 -11.9258 -33.403 -14.5722c-12.347 -2.81641 -25.123 -3.01074 -37.711 -2.33594c-13.553 0.908201 -27.003 4.31445 -39.091 10.5625c-8.319 4.2442 -15.898 9.8301 -22.691 16.2149
c-32.403 28.9511 -64.8 57.9218 -97.365 86.6855c0.306 1.031 -0.824005 1.479 -1.40701 2.076c-49.585 43.79 -99.163 87.593 -148.741 131.397c-13.333 12.282 -140.866 125.328 -154.42 137.389c-19.1201 17.813 -25.8457 32.557 -25.5615 53.648
c0.07812 67.129 0.00682998 102.537 0.03222 169.666c0.31836 11.4709 5.02832 22.84 13.2823 30.8719z" />
    <glyph glyph-name="W" unicode="W" horiz-adv-x="1531" 
d="M47.6973 648.329c4.458 0.515015 8.9463 0.814026 13.4365 0.775024c37.2539 -0.0209961 74.5072 0.0180054 111.761 -0.0209961c8.403 -0.513 16.838 -1.70898 24.892 -4.36102c6.481 -2.17798 12.887 -5.47998 17.413 -10.928
c5.46201 -6.67603 7.89801 -15.373 9.252 -23.869c1.15001 -7.34601 1.43001 -14.802 1.38 -22.232c-0.0509949 -123.924 -1.617 -247.85 -0.636002 -371.775c-0.169998 -3.90601 0.00500488 -8.11099 2.097 -11.504c1.77901 -2.94 5.23801 -4.97501 8.61501 -4.175
c3.98999 0.846008 6.842 4.071 9.78999 6.729c74.269 68.528 148.534 137.062 222.761 205.642c63.139 58.361 126.311 116.697 189.242 175.297c10.002 8.90601 21.865 15.549 34.545 19.216c12.961 3.78302 26.604 4.67999 39.975 3.41302
c13.374 -1.28802 26.573 -5.29803 38.228 -12.305c6.85706 -4.08301 13.137 -9.16803 18.793 -14.893c116.645 -110.151 232.628 -221.061 348.838 -331.706c3.66003 -2.59401 6.72009 -6 10.12 -8.95801c14.24 -13.13 28.4701 -26.268 42.7101 -39.4
c2.31995 -2.086 5.16992 -3.937 8.35999 -3.84c3.71997 0.188995 6.79993 3.30199 7.92993 6.87099c1.5 4.32901 0.720093 8.983 0.920044 13.468c0.329956 36.404 0.0400391 72.812 0.140015 109.215v267.208c0.349976 12.591 2.39001 25.904 9.83997 36.226
c5.82007 7.85199 15.39 11.214 24.4601 12.788c9.42993 1.68396 19.0099 1.22699 28.5199 1.29199c38.91 -0.00604248 77.8101 0.00799561 116.71 -0.0130005c9.63 -0.111023 19.7 -2.39203 27.35 -8.82098c6.93994 -5.74005 11.1 -14.3781 13.12 -23.225
c1.93994 -8.30096 2.28003 -16.902 2.04004 -25.411c0.0100098 -107.699 0.409912 -215.399 0.449951 -323.099c-0.23999 -51.776 0.0799561 -103.559 0.0400391 -155.341c-0.27002 -20.1252 -5.35999 -40.2248 -15.02 -57.6916
c-5.81006 -10.4209 -13.65 -19.6445 -23.03 -26.7246c-13.27 -9.7295 -27.88 -18.0762 -43.95 -21.3926c-10.76 -2.40429 -21.74 -3.43847 -32.6901 -4.44629c-9.16992 -0.890625 -18.38 -0.551758 -27.5699 -0.792969c-24.76 -0.598635 -49.53 -0.649415 -74.29 -0.362304
c-26.4399 0.30957 -52.88 0.881836 -79.25 2.80664c-11.49 0.91113 -23.01 1.9502 -34.34 4.25781c-12.16 2.43164 -23.37 8.31441 -33.86 14.9912c-15.9601 10.3096 -30.52 22.7764 -44.4901 35.8027c-9.44 8.7823 -18.37 18.1182 -27.622 27.1075
c-7.698 7.5927 -15.633 14.9121 -23.598 22.1925c-74.098 72.155 -148.143 144.362 -222.22 216.537c-3.85297 3.94498 -8.40302 7.228 -13.53 9.06699c-10.219 3.668 -21.7 1.535 -31.086 -3.63199c-5.492 -2.91901 -9.67505 -7.70901 -14.298 -11.831
c-79.969 -73.605 -159.989 -147.158 -239.955 -220.762c-17.225 -16.0821 -33.226 -33.5694 -51.051 -48.9551c-15.252 -13.1895 -31.286 -25.833 -49.484 -34.3028c-12.874 -6.13668 -27.158 -7.49508 -41.076 -8.96383
c-30.329 -2.75586 -60.797 -3.30957 -91.227 -3.69238c-20.384 -0.143555 -40.774 -0.313477 -61.153 0.195312c-9.584 0.181641 -19.167 0.331055 -28.756 0.396484c-10.876 0.421875 -21.721 1.61133 -32.5038 3.11914
c-9.85149 1.52833 -19.6914 3.80958 -28.8183 8.06058c-9.753 4.499 -18.9365 10.2968 -27.4834 16.9209c-16.4258 13.1054 -26.8399 32.873 -32.0781 53.4336c-3.07812 11.8701 -4.12109 24.2093 -3.85254 36.4673c0.2002 158.606 0.39942 317.21 0.60547 475.821
c0.15625 12.397 1.70996 25.496 8.52242 36.013c5.3633 8.32098 14.3789 13.151 23.4688 15.661c4.1269 1.16302 8.3467 1.92902 12.5928 2.43597z" />
    <glyph glyph-name="X" unicode="X" horiz-adv-x="1103" 
d="M137.748 648.858c47.236 0.229004 94.465 0.463013 141.7 0.685059c5.927 0.122986 11.834 -0.65802 17.61 -1.966c3.526 -0.847046 7.31998 -0.983032 10.532 -2.81903c4.173 -2.271 7.685 -5.53101 11.767 -7.96002c5.064 -4.00195 9.17801 -9.03998 13.98 -13.361
c47.608 -44.372 95.203 -88.747 142.811 -133.117c3.84698 -3.56 7.60199 -7.22501 11.67 -10.538c4.116 -2.95502 8.79199 -5.86401 14.058 -5.69501c5.31198 -0.0249939 9.98898 2.98099 14.097 6.03299c45.149 42.093 90.31 84.184 135.472 126.276
c8.96198 8.461 18.186 16.656 26.833 25.45c2.21796 2.12201 4.32501 4.43799 7.01898 5.99402c4.53998 2.81097 8.43799 6.89795 13.73 8.34399c7.71301 1.49701 15.419 3.50195 23.34 3.35901c86.975 -0.403015 173.949 -0.840027 260.918 -1.26404
c4.63104 0.085022 9.59601 -1.008 12.958 -4.39197c3.867 -3.87305 5.07703 -9.54901 5.27704 -14.827c0.279968 -7.46002 -2.64703 -14.755 -7.258 -20.541c-2.67603 -3.46997 -5.92004 -6.43097 -9.302 -9.19098c-41.329 -35.004 -82.657 -70.009 -123.98 -105.013
c-55.229 -46.796 -110.57 -93.458 -165.766 -140.294c-5.23297 -4.54199 -10.852 -8.72198 -15.379 -14c-2.93701 -4.00198 -5.867 -8.49399 -5.97205 -13.617c-0.234985 -6.01999 3.29004 -11.383 7.01904 -15.822c9.98895 -9.35901 20.023 -18.68 30.057 -28
c6.76398 -6.50299 14.196 -12.27 21.28 -18.42c39.771 -33.846 79.772 -67.424 119.59 -101.223c42.637 -36.111 85.274 -72.2281 127.911 -108.337c6.927 -5.8516 14.496 -11.5411 18.545 -19.8848c3.63501 -7.0234 4.28497 -15.4971 1.73297 -22.9746
c-1.31396 -3.90529 -4.14697 -7.39454 -8.01898 -9.00197c-4.36401 -1.94629 -9.25 -1.47851 -13.895 -1.55566c-82.205 -0.404297 -164.411 -0.800781 -246.617 -1.2041c-6.78296 0 -13.626 -0.325196 -20.331 0.916992c-3.89899 0.749019 -7.77802 1.55566 -11.67 2.30469
c-4.83398 1.13281 -8.54303 4.61426 -12.507 7.34865c-6.20801 3.6572 -10.683 9.4306 -15.909 14.2529c-50.519 47.0977 -101.032 94.2083 -151.577 141.278c-3.61804 3.808 -8.05301 6.90601 -13.037 8.644c-3.80099 1.12601 -8.02701 0.891006 -11.605 -0.832993
c-6.397 -2.75301 -11.245 -7.86301 -16.281 -12.485c-48.734 -45.424 -97.474 -90.8543 -146.207 -136.285c-4.409 -4.1259 -8.37997 -8.7343 -13.103 -12.5097c-5.01099 -2.91603 -9.14499 -7.37404 -14.764 -9.18361c-3.729 -0.8584 -7.50302 -1.49024 -11.245 -2.29102
c-8.634 -1.77734 -17.485 -1.03515 -26.231 -1.13867c-82.624 0.416016 -165.242 0.793945 -247.86 1.2168c-4.9384 -0.05176 -10.2304 1.53613 -13.3642 5.53906c-3.69629 4.76464 -4.52637 11.1298 -4.14746 16.9746c0.74609 9.5283 6.55469 17.8662 13.6065 24.0039
c77.1494 65.3406 154.273 130.715 231.495 195.964c11.663 9.901 23.313 19.807 34.99 29.68c5.88 4.73199 11.238 10.044 16.798 15.133c7.95401 7.492 16.045 14.84 23.955 22.384c3.54501 4.38602 6.953 9.59302 6.72403 15.458
c-0.085022 5.12201 -3.009 9.61301 -5.93301 13.623c-4.017 4.71799 -8.94901 8.51898 -13.639 12.535c-39.595 33.508 -79.118 67.105 -118.799 100.514c-57.95 49.081 -115.9 98.178 -173.85 147.253c-7.32616 5.95496 -13.6523 13.961 -15.1045 23.49
c-0.84375 6.20898 -0.18946 13.03 3.4209 18.329c3.04882 4.41901 8.63478 6.255 13.8291 6.17603c39.543 0.214966 79.086 0.383972 118.628 0.584961z" />
    <glyph glyph-name="Y" unicode="Y" 
d="M21.0361 647.744c86.9759 0.424011 173.95 0.859985 260.919 1.263c7.91501 0.148987 15.608 -1.86102 23.314 -3.35303c5.89999 -1.685 10.166 -6.39099 15.359 -9.39697c5.233 -4.29004 9.64801 -9.47101 14.666 -14.007
c48.191 -44.911 96.369 -89.828 144.56 -134.738c5.86099 -5.40298 11.708 -11.612 19.729 -13.643c7.43799 -1.60699 14.562 2.72101 19.729 7.63501c44.017 41.058 88.061 82.089 132.084 123.134c9.38098 8.85699 19.043 17.429 28.103 26.627
c2.13898 2.02301 4.13397 4.26898 6.68597 5.79797c3.76001 2.29803 7.005 5.37604 10.957 7.36902c3.10596 1.65198 6.698 1.797 10.073 2.59601c5.573 1.263 11.271 2.05701 17.002 1.979c86.792 -0.410034 173.577 -0.838989 260.369 -1.263
c4.78198 0.0910034 9.94299 -1.11902 13.279 -4.758c3.745 -4.06104 4.83502 -9.80103 4.935 -15.146c0.119995 -7.75806 -3.24701 -15.211 -8.23798 -21.049c-3.336 -4.10004 -7.58801 -7.30304 -11.572 -10.739c-41.421 -35.089 -82.847 -70.171 -124.268 -105.26
c-39.073 -33.168 -78.308 -66.142 -117.38 -99.311c-32.74 -27.928 -65.591 -55.734 -98.514 -83.448c-0.569031 -2.48599 -0.968994 -5.017 -0.929993 -7.57599v-255.116c-0.085022 -7.3945 0.425964 -14.8408 -0.778015 -22.1758
c-0.830017 -5.1484 -2.289 -10.4277 -5.65802 -14.5351c-2.83899 -3.44922 -7.09796 -5.31054 -11.277 -6.61816c-6.784 -2.00488 -13.908 -2.54492 -20.953 -2.69531c-71.08 0.260742 -142.152 0.456055 -213.232 0.683594
c-6.78299 0.267578 -13.789 2.36328 -18.734 7.17969c-6.064 5.81831 -8.87 14.2861 -9.086 22.5195c-0.019989 42.3008 -0.10498 84.6018 -0.143982 126.902c-0.111023 49.909 0.0709839 99.811 -0.105011 149.714c-0.0450134 0.813995 0.04599 1.60098 0.274994 2.36899
c-18.61 15.276 -36.796 31.06 -55.224 46.55c-40.386 34.25 -80.753 68.518 -121.245 102.637c-56.426 47.801 -112.86 95.588 -169.28 143.388c-7.02536 6.12402 -12.8086 14.436 -13.5674 23.932c-0.37891 5.90399 0.45215 12.34 4.23926 17.112
c3.28419 4.12701 8.81839 5.57104 13.9072 5.44104z" />
    <glyph glyph-name="Z" unicode="Z" 
d="M31.292 648.472c2.2422 0.416016 4.5098 0.695007 6.7842 0.72699l919.57 0.00701904c11.067 -0.0780029 22.172 -3.87299 30.608 -11.112c5.836 -4.83502 10.392 -11.393 12.126 -18.827c1.40997 -5.38104 0.880005 -10.976 0.97998 -16.474
c-0.0299683 -25.117 0.0400391 -50.241 -0.039978 -75.358c-0.390015 -11.081 -5.742 -21.329 -12.663 -29.745c-4.07501 -5.00299 -8.83197 -9.44202 -14.056 -13.217c-3.44501 -2.59299 -7.36401 -4.43298 -11.075 -6.59
c-165.572 -92.606 -331.15 -185.204 -496.722 -277.81c-4.77698 -2.944 -10.398 -4.881 -13.979 -9.41c-3.32703 -3.97099 -5.10101 -9.88499 -2.71002 -14.752c2.418 -4.71199 7.14902 -7.85699 12.081 -9.48799c7.819 -2.619 16.176 -2.177 24.305 -2.242
c143.478 -0.565994 286.954 -1.13699 430.437 -1.702c14.427 -0.0850067 28.854 -0.0720062 43.281 -0.202011c11.574 -0.337997 22.953 -5.08899 31.427 -12.945c5.875 -5.537 9.034 -13.589 8.98401 -21.615c0.0200195 -27.716 0 -55.4328 0.0100098 -83.1428
c-0.150024 -6.499 0.619995 -13.1924 -1.48804 -19.4707c-2.69 -8.623 -9.35797 -15.4336 -16.91 -20.0742c-5.77002 -3.55469 -12.581 -5.39356 -19.352 -5.04883c-307.632 0.0322265 -615.258 -0.006836 -922.89 0.0195312
c-9.9561 -0.124023 -18.9824 5.33496 -25.9492 12.0352c-6.86232 6.4267 -12.4053 15.0634 -12.6006 24.7207c-0.0644599 28.3857 0.03222 56.7656 -0.0459 85.1511c-0.34375 8.20801 2.77539 16.143 7.11621 22.973c5.02339 7.993 11.7627 15.129 20.1983 19.548
c171.225 96.069 342.445 192.151 513.664 288.227c3.37299 1.91 7.10901 3.61401 9.35101 6.92801c2.93097 4.12 2.30701 9.87799 -0.213989 14.03c-2.638 4.17899 -7.41504 6.35599 -12.061 7.448c-5.21899 1.241 -10.626 1.37698 -15.961 1.267
c-158.339 0.643982 -316.672 1.28601 -475.011 1.93701c-7.2197 0.213989 -14.7646 -0.781006 -21.6143 2.09799c-8.7998 3.59399 -16.1884 10.405 -20.9775 18.561c-2.4043 4.263 -3.78906 9.117 -3.82813 14.023c-0.20117 29.667 -0.38965 59.333 -0.58496 88.999
c-0.00585997 4.79602 -0.37695 9.69702 1.00098 14.363c3.62598 13.205 15.3047 23.823 28.8086 26.163z" />
    <glyph glyph-name="a" unicode="a" horiz-adv-x="1104" 
d="M130.438 648.061c6.368 0.572021 12.769 0.872009 19.164 0.800049l708.3 0.00695801c26.11 -0.247986 52.493 -5.86298 75.484 -18.559c18.928 -10.43 35.402 -25.232 48.151 -42.683c10.456 -14.442 17.637 -31.388 19.873 -49.146
c1.19 -8.42896 0.840027 -16.963 0.890015 -25.452v-474.847c0.440002 -7.8028 -0.119995 -15.9922 -3.92596 -22.9883c-5.45203 -10.0264 -16.752 -16.3389 -28.06 -16.3711c-2.63104 -0.11035 -5.224 0.410155 -7.83002 0.527343
c-66.061 -0.397463 -132.115 -0.860353 -198.176 -1.25097c-11.262 -0.0712899 -23.238 3.04296 -31.25 11.3936c-5.901 6.22169 -7.79095 15.1406 -7.64899 23.4785c0.565979 9.9678 0.130005 19.9668 0.215027 29.9473
c-0.188049 51.687 -0.364014 103.372 -0.546021 155.052c-0.052002 6.59201 -1.90399 13.281 -5.91302 18.572c-5.10199 6.78101 -12.951 10.801 -20.795 13.518c-8.46698 2.79999 -17.434 3.894 -26.324 3.745h-345.095
c-12.256 -0.0780029 -24.414 -4.16299 -34.369 -11.296c-6.99899 -4.97 -11.717 -13.197 -11.639 -21.889c-0.026001 -60.167 -0.00598145 -120.342 -0.0119934 -180.51c0.122986 -9.3408 0.0580139 -19.2178 -4.31601 -27.7188
c-2.37198 -4.80173 -7.16699 -7.76462 -12.112 -9.35447c-9.81898 -3.19238 -20.288 -3.19238 -30.503 -3.03613c-65.177 0.220703 -130.354 0.397461 -195.531 0.632812c-6.5186 -0.131835 -13.3028 -0.21582 -19.378 2.53321
c-7.8955 3.33593 -13.1718 11.1201 -15.0107 19.3213c-1.45606 5.7656 -0.94238 11.7324 -1.02051 17.6094c-0.20117 161.565 -0.40332 323.137 -0.61133 484.703c0.0527399 8.91803 -0.37012 17.895 1.01367 26.741c2.38575 17.421 10.2031 33.928 21.8154 47.068
c10.2276 11.713 22.9512 20.983 36.4161 28.612c21.041 11.876 44.7336 18.716 68.7446 20.84zM338.843 478.938c-13.913 -0.442993 -28.125 -3.19199 -40.172 -10.462c-6.772 -4.039 -13.036 -9.66702 -15.953 -17.179c-3.45099 -9.453 -3.31497 -20.247 0.676025 -29.511
c3.72198 -8.02502 11.001 -13.686 18.545 -17.883c11.912 -6.64401 25.831 -8.625 39.301 -8.21402c111.334 0.0130005 222.669 0.00601196 334.01 0.00601196c9.39001 -0.110016 18.994 1.03598 27.644 4.89999c11.501 4.93799 20.13 15.713 22.912 27.894
c1.31897 5.95398 0.804993 12.254 -1.24701 17.981c-4.07605 11.212 -12.516 20.82 -23.317 25.927c-10.455 5.082 -22.25 6.57999 -33.751 6.56699c-109.554 -0.019989 -219.101 0.0320129 -328.648 -0.026001z" />
    <glyph glyph-name="b" unicode="b" horiz-adv-x="1100" 
d="M14.8418 641.714c7.5029 6.16302 17.4922 8.14703 26.9805 8.39398h806.343c14.121 0.248047 28.314 -0.493958 42.183 -3.30499c23.375 -4.53497 45.682 -14.766 64.034 -29.981c16.055 -13.334 30.046 -29.675 38.46 -48.917
c5.77203 -13.106 8.71802 -27.429 8.70801 -41.7531v-108.683c-0.0499878 -9.117 0.330017 -18.286 -1.08002 -27.332c-3.44995 -25.068 -16.902 -47.967 -34.928 -65.388c17.129 -16.504 30.111 -37.946 34.309 -61.549c2.48901 -12.846 1.48901 -25.985 1.69897 -38.98
v-96.97c-0.0299683 -5.844 0.140015 -11.694 -0.369995 -17.525c-1.08002 -13.5561 -4.88202 -26.935 -11.475 -38.851c-4.75104 -8.7197 -10.984 -16.5547 -17.922 -23.6347c-16.19 -16.6465 -36.872 -28.5039 -58.881 -35.6426
c-15.488 -5.16701 -31.575 -8.45998 -47.804 -10.1582c-12.983 -1.44434 -26.057 -1.5293 -39.098 -1.43848h-782.87c-5.9668 -0.0839844 -12.0391 0.227539 -17.7334 2.17383c-13.9717 4.49023 -23.5176 18.8526 -23.8174 33.293
c0.44922 189.162 0.8457 378.332 1.28223 567.501c-0.12403 5.83099 -0.3584 11.707 0.67676 17.479c1.27539 8.05701 4.84765 16.048 11.3037 21.267zM327.733 480.332c-13.724 -0.493988 -26.955 -8.10199 -34.047 -19.887c-4.048 -6.60501 -5.285 -14.493 -5.539 -22.119
c0.136993 -8.45398 1.647 -17.271 6.547 -24.365c7.146 -10.62 19.354 -17.519 32.135 -18.233c4.13898 -0.04599 8.245 -0.605988 12.39 -0.468994c108.683 -0.0979919 217.374 -0.240997 326.056 -0.35199c6.53998 -0.0130005 13.192 -0.261017 19.581 1.41898
c9.39801 2.26501 17.792 8.08902 23.506 15.839c4.95898 6.55399 6.82599 14.831 7.28302 22.894c0.27301 9.30502 -1.12 19.139 -6.48199 26.98c-5.95502 8.733 -15.287 15.163 -25.666 17.304c-6.18799 1.504 -12.559 0.904999 -18.852 1.048
c-112.309 -0.052002 -224.617 0.0650024 -336.912 -0.0589905zM294.98 234.618c-3 -4.89299 -4.47702 -10.542 -5.095 -16.21c-0.924011 -5.121 0.127991 -14.524 1.13599 -19.561c2.077 -9.345 8.33099 -17.337 16.133 -22.7c7.91299 -5.55 17.766 -7.65201 27.319 -7.327
l0.559021 -0.611008c2.92899 -0.306 5.88998 -0.136993 8.83798 -0.201996c108.045 -0.00700378 216.091 0.00700378 324.13 -0.00700378c6.49402 0.169998 13.106 0.00700378 19.399 1.875c14.33 3.95 26.636 16.223 28.789 31.197
c1.51703 7.12599 0.700012 18.716 -1.23999 25.679c-1.99799 6.79399 -6.21503 12.801 -11.545 17.407c-7.84698 7.08699 -18.507 10.556 -28.998 10.446c-6.091 0.356995 -12.188 0.155991 -18.2791 0.207993h-279.11c-16.087 -0.136993 -32.188 0.311996 -48.261 -0.306
c-13.627 -0.572998 -26.734 -8.17999 -33.775 -19.888z" />
    <glyph glyph-name="c" unicode="c" horiz-adv-x="1100" 
d="M144.347 648.794c6.37801 0.585022 12.776 0.864014 19.18 0.805969h796.548c7.44501 -0.0979614 15.02 -0.86499 22.016 -3.56995c4.948 -1.91803 9.68097 -5.05103 12.36 -9.75305c2.64703 -4.81097 4.77899 -10.013 5.33899 -15.52
c0.880005 -7.79004 0.410034 -15.638 0.530029 -23.46c0.0200195 -30.124 -0.0300293 -60.255 0.0200195 -90.386c0.0799561 -4.59702 -1.46002 -9.129 -4.05505 -12.888c-5.013 -7.14502 -12.705 -12.405 -21.235 -14.31
c-4.909 -1.19101 -9.99396 -1.255 -15.001 -0.969025c-203.073 -0.207977 -406.154 -0.429993 -609.228 -0.630981c-11.489 0.701996 -23.219 -1.71701 -33.2 -7.53601c-9.76001 -5.69598 -18.427 -13.706 -23.739 -23.771
c-3.63498 -6.89999 -5.448 -14.689 -5.52698 -22.472c-1.26801 -63.714 -0.884003 -127.447 -0.669006 -191.168c0.135986 -5.826 -0.319 -11.691 0.544983 -17.484c1.66501 -12.588 7.86801 -24.455 16.952 -33.285c6.92398 -6.729 16.398 -10.689 26.053 -10.904
c208.946 -0.00700378 417.891 -0.00700378 626.836 -0.00700378c6.646 0.469009 13.466 0.053009 19.721 -2.41899c9.15497 -3.537 17.699 -10.22 21.1509 -19.674c2.57605 -6.444 1.95605 -13.479 2.09601 -20.261c0.190002 -28.388 0.350037 -56.7765 -0.349976 -85.1584
c-0.299988 -6.7685 0.150024 -13.7841 -2.38202 -20.2148c-2.77698 -7.7246 -8.95996 -13.7715 -16.054 -17.6602c-6.18402 -3.52343 -13.1541 -5.63672 -20.254 -6.09863c-140.654 0.0849609 -281.327 0.0126953 -421.987 0.0390625
c-111.628 0.0781255 -223.257 0.0068359 -334.878 0.325195c-20.599 0.064453 -41.197 0.123047 -61.79 0.318359c-18.999 0.455083 -37.947 4.4082 -55.4368 11.8994c-17.627 7.5293 -33.7139 18.5049 -47.5635 31.7295
c-14.3886 13.7715 -25.7939 30.8135 -32.1396 49.7549c-3.57617 10.6826 -5.79981 21.8466 -6.37207 33.1016c-0.68262 133.508 -0.988283 267.022 0 400.53c1.40429 14.747 5.94336 29.175 12.8223 42.277c7.1396 13.616 17.1201 25.566 28.375 35.969
c12.9463 11.991 27.9853 21.699 44.2402 28.565c18.1475 7.63306 37.4655 12.497 57.0765 14.285z" />
    <glyph glyph-name="d" unicode="d" 
d="M33.9287 649.314c2.9092 0.468994 5.8565 0.703979 8.8047 0.787964h789.968c16.295 -0.162964 32.681 0.715027 48.859 -1.69202c25.581 -3.39697 50.419 -13.236 70.749 -29.245c15.546 -12.293 29.239 -27.318 38.408 -44.993
c6.36401 -12.267 10.283 -25.796 11.353 -39.579c0.440002 -5.18604 0.320007 -10.393 0.339966 -15.585v-382.616c-0.129944 -12.612 0.680054 -25.367 -1.88995 -37.8158c-2.47601 -13.0606 -7.76001 -25.5811 -15.4 -36.4678
c-13.373 -18.7871 -32.037 -33.5527 -52.899 -43.2363c-22.712 -10.4121 -47.448 -15.9502 -72.286 -17.9932c-14.674 -1.28223 -29.414 -0.78125 -44.122 -0.878906h-769.813c-7.1455 -0.110352 -14.499 0.0458984 -21.2402 2.71387
c-10.5166 3.91113 -18.1494 13.6338 -21.1045 24.2597c-1.67871 5.7471 -1.11914 11.7598 -1.17773 17.6485c0.41699 186.558 0.8457 373.115 1.25 559.673c-0.53418 10.796 0.27344 22.438 6.62406 31.595c5.2978 7.815 14.4541 12.064 23.5771 13.424zM333.802 480.333
c-9.76801 -0.408997 -19.666 -3.37 -27.267 -9.689c-9.29901 -7.75 -15.338 -19.093 -17.206 -31.008c-1.13202 -6.45599 -0.774017 -13.022 -0.794006 -19.542c0.221985 -64.198 0.449005 -128.401 0.677002 -192.597c0.136993 -8.401 1.13998 -16.868 3.80798 -24.865
c2.888 -8.858 8.32901 -17.076 16.17 -22.276c9.40399 -6.351 21.045 -8.21201 32.193 -8.147c106.515 -0.0130005 213.03 0 319.552 -0.00700378c6.40302 0.130005 12.839 -0.345001 19.216 0.449005c10.25 1.198 20.135 5.994 26.954 13.816
c7.55603 8.26401 11.162 19.542 11.207 30.624c-0.462036 71.362 -0.853027 142.723 -1.315 214.078c-0.234009 8.38199 -1.83502 16.835 -5.54401 24.403c-3.71002 7.57501 -9.534 14.219 -16.932 18.345c-8.604 4.84201 -18.645 6.50101 -28.413 6.46201
c-110.771 -0.0390015 -221.542 0.0650024 -332.306 -0.04599z" />
    <glyph glyph-name="e" unicode="e" horiz-adv-x="1104" 
d="M168.495 648.384c15.012 1.11102 30.076 0.77301 45.114 0.82605h729.801c13.238 0.0390015 26.808 0.414978 39.565 -3.69104c5.68005 -1.80701 11.171 -5.07697 14.278 -10.333c5.547 -9.06696 6.297 -20.076 6.28699 -30.448c0 -28.607 0.0200195 -57.215 0 -85.816
c-0.109985 -7.948 -2.53998 -16.208 -8.263 -21.946c-6.36896 -6.51202 -15.466 -9.36603 -24.2729 -10.607c-8.28503 -1.22699 -16.669 -0.668976 -25.007 -0.849976c-210.347 -0.59201 -420.699 -1.22302 -631.046 -1.82703
c-6.77698 0.03302 -13.68 0.175018 -20.256 -1.76099c-13.472 -3.69199 -25.378 -14.681 -28.055 -28.693c-1.90503 -9.48102 -1.87802 -19.372 0.155975 -28.835c3.06702 -13.069 14.154 -23.349 26.847 -27.048c5.854 -1.78702 12.022 -2.09802 18.098 -1.96201
c211.647 -0.252991 423.285 -0.488007 634.925 -0.696014c9.42999 -0.0839844 18.905 0.279999 28.276 -1.026c6.62897 -0.929993 13.447 -2.30099 19.172 -5.95999c4.50397 -2.88501 7.216 -7.87 8.37598 -12.984c1.54999 -6.181 0.970032 -12.581 1.04999 -18.886v-63.695
c0.280029 -10.585 -1.69995 -22.57 -10.329 -29.679c-4.04297 -3.17801 -9.05298 -4.80301 -14.024 -5.82901c-9.19702 -1.88499 -18.632 -1.502 -27.958 -1.541h-644.056c-7.59799 0.0130005 -15.279 -2.015 -21.589 -6.317
c-8.56003 -5.862 -14.928 -14.934 -17.229 -25.085c-2.28101 -10.352 -2.41702 -21.179 -0.442017 -31.597c1.56601 -8.065 5.53702 -15.623 11.236 -21.543c4.38101 -4.7 10.074 -8.215 16.339 -9.743c4.66599 -1.248 9.53299 -1.189 14.324 -1.104
c215.759 0.852005 431.519 1.722 647.279 2.58c8.513 0.0780029 17.111 -0.0649872 25.455 -1.95c4.66699 -1.08499 9.37201 -2.68399 13.135 -5.75099c4.13898 -3.457 6.20898 -8.73401 7.13898 -13.914c1.10999 -5.784 0.630005 -11.678 0.76001 -17.521
c0.23999 -29.8874 0.429993 -59.7692 0.690002 -89.651c0.159973 -4.6524 -0.150024 -9.377 -1.57001 -13.836c-1.94 -6.1406 -6.03198 -11.8398 -11.927 -14.7002c-6.992 -3.47656 -14.966 -4.2041 -22.668 -4.32812
c-256.701 -0.220703 -513.403 -0.421875 -770.105 -0.636719c-23.025 0.110352 -46.09 1.37793 -68.868 4.84863c-20.263 3.13184 -40.4035 7.97367 -59.2238 16.2266c-17.5664 7.708 -34.0664 18.8018 -45.8359 34.1387
c-13.5762 17.3642 -19.6455 39.6299 -19.7627 61.4591c-0.00683975 134.102 0 268.205 0 402.307c0.11719 22.044 5.77733 44.309 17.833 62.902c6.8554 10.762 15.6035 20.315 25.7344 28.075c9.4951 7.33002 20.205 12.899 31.123 17.794
c28.191 12.458 58.847 18.541 89.495 20.633z" />
    <glyph glyph-name="f" unicode="f" 
d="M175.285 650.104c6.05699 0.286987 12.119 0.448975 18.182 0.422974h754.723c12.731 0.0840454 25.905 -0.0719604 37.918 -4.81195c5.73804 -2.18201 10.485 -6.62305 12.998 -12.236c5.38397 -11.416 4.61395 -24.354 4.64398 -36.635v-63.829
c-0.130005 -5.88104 0.340027 -11.793 -0.429993 -17.641c-0.960022 -7.56702 -4.57898 -14.965 -10.739 -19.62c-8.89398 -6.767 -20.499 -8.35599 -31.367 -8.55099c-217.926 -0.651001 -435.852 -1.26901 -653.783 -1.914
c-8.82501 0.0320129 -17.797 -2.26001 -25.084 -7.35101c-5.711 -3.98599 -10.641 -9.26099 -13.636 -15.597c-2.84601 -5.94501 -3.686 -12.613 -3.98499 -19.132c-0.157013 -9.24002 0.852997 -19.008 5.89999 -26.998c6.492 -10.275 17.634 -17.309 29.583 -19.249
c5.38498 -1.04199 10.881 -0.722992 16.331 -0.769012h640.083c7.50201 0.0920105 15.029 -0.376984 22.414 -1.745c5.38501 -1.06699 10.849 -2.61099 15.367 -5.853c4.25299 -3.08701 6.70599 -8.03601 7.93604 -13.037c1.75 -6.85101 1.37 -13.968 1.40997 -20.975
v-63.126c-0.0100098 -6.095 -0.76001 -12.301 -3.15002 -17.946c-2.01495 -4.73499 -5.30298 -9.08398 -9.82898 -11.657c-4.84399 -2.78101 -10.386 -4.043 -15.87 -4.79199c-7.78802 -1.06902 -15.66 -0.736023 -23.494 -0.789001
c-214.677 0.00698853 -429.352 -0.00601196 -644.028 0.00698853c-10.087 0.266998 -20.891 -0.983002 -29.258 -7.11099c-8.24399 -6.127 -12.444 -16.194 -14.196 -26.041c-1.68698 -8.608 -1.159 -17.399 -1.19199 -26.106
c0.242004 -56.008 0.437012 -112.01 0.69101 -168.012c-0.117004 -8.9014 -3.673 -18.3955 -11.37 -23.416c-7.742 -4.80566 -17.165 -5.49609 -26.054 -5.59375c-60.775 -0.0136719 -121.557 0 -182.339 -0.00683594
c-9.4677 -0.129883 -19.6006 -0.078125 -27.9482 5.01368c-6.4336 3.78418 -10.2822 10.8819 -11.2197 18.1494c-1.07519 6.0684 0.12989 12.1836 -0.08496 18.2715c-0.21484 159.534 -0.41699 319.068 -0.63183 478.595c0.12988 21.795 5.41113 43.897 17.2568 62.358
c10.6533 17.035 26.1836 30.768 43.9678 40.009c33.8095 18.102 72.242 25.871 110.284 27.714z" />
    <glyph glyph-name="g" unicode="g" 
d="M151.146 648.517c5.72301 0.584961 11.472 0.896973 17.228 0.81897c264.914 0.00701904 529.834 -0.0200195 794.748 0.00701904c11.791 0.81897 23.79 -3.98804 31.75 -12.708c4.64996 -5.11304 7.15802 -11.967 7.30798 -18.848
c0.789978 -33.584 0.900024 -67.187 0.23999 -100.778c-0.339966 -6.87396 0.530029 -14.139 -2.53296 -20.544c-3.974 -8.69 -12.806 -14.023 -21.638 -16.721c-5.33905 -1.672 -10.965 -1.55499 -16.474 -1.31299c-172.557 -0.904999 -345.121 -0.546997 -517.678 -0.625
h-88.435c-6.04898 -0.052002 -12.148 0.325012 -18.139 -0.773987c-10.522 -1.70401 -20.369 -6.69202 -28.355 -13.69c-7.52399 -6.45801 -13.677 -14.737 -16.701 -24.245c-1.56802 -4.85797 -2.33401 -9.95697 -2.40601 -15.062
c-1.22299 -66.329 -0.916992 -132.672 -0.636993 -199.008c-0.0980225 -12.649 4.00598 -25.194 11.27 -35.522c4.702 -6.97801 11.29 -12.942 19.348 -15.699c5.14502 -1.873 10.672 -2.224 16.109 -2.075c112.726 -0.682007 225.457 -0.949005 338.183 -0.0059967
c6.65302 -0.169006 13.462 0.44899 19.614 3.161c14.711 6.47701 25.494 21.539 26.177 37.694c2.315 49.01 0 98.086 1.41803 147.115c0.28595 5.95801 2.28894 11.83 5.80798 16.657c7.21796 9.82001 19.217 16.186 31.509 15.751
c70.257 0.182007 140.515 0.571991 210.766 -0.0329895c17.481 0.00698853 33.254 -16.214 32.574 -33.714c-0.130005 -79.987 0.109985 -159.98 -0.540039 -239.973c0.240051 -7.93501 -1.47998 -15.758 -3.41895 -23.4064
c-5.39105 -20.6416 -16.935 -39.5088 -32.492 -54.0704c-14.288 -13.3574 -31.171 -23.9199 -49.303 -31.2226c-20.421 -8.18847 -42.689 -11.4267 -64.612 -10.0352c-70.219 0.461914 -140.443 0.40332 -210.668 0.435546
c-144.391 -0.0517578 -288.775 -0.396484 -433.166 -0.0839844c-19.589 0.0644531 -39.178 0.123047 -58.76 0.266602c-18.853 0.051757 -37.739 3.45996 -55.2859 10.3926c-18.9971 7.4726 -36.3027 18.957 -51.1113 32.9599
c-14.086 13.3575 -25.4873 29.7207 -32.1533 48.0147c-4.0186 11.0892 -6.6143 22.7562 -7.24419 34.5402c-0.71582 68.495 -0.52734 137.003 -0.59277 205.505c0.00683999 62.648 -0.0127001 125.302 0.00683999 187.951c0.91699 19.413 6.64648 38.592 16.6103 55.293
c9.4815 15.94 22.3653 29.721 37.0108 41.037c17.8984 13.801 39.2295 23.0099 61.4985 26.801c10.951 2.47699 21.988 4.63599 33.167 5.75604z" />
    <glyph glyph-name="h" unicode="h" horiz-adv-x="1104" 
d="M755.847 648.099c7.00702 1.16302 14.137 0.596985 21.21 0.669006c61.961 -0.397034 123.922 -0.786987 185.882 -1.19c2.80798 0.0200195 5.58295 0.651001 8.41199 0.53302c10.14 0 20.15 -5.04401 26.164 -13.202c3.97498 -5.47198 5.69501 -12.278 5.95496 -18.961
c-0.159973 -32.482 -0.0299683 -64.977 -0.0699463 -97.466v-480.338c0.339966 -6.6631 0.0699463 -13.5332 -2.46002 -19.7998c-4.49902 -11.5704 -16.673 -19.2276 -28.919 -19.4815c-3.05597 -0.18847 -6.05902 0.48145 -9.08801 0.520512
c-65.868 -0.416012 -131.735 -0.858402 -197.609 -1.25488c-11.402 -0.07129 -23.563 3.12012 -31.559 11.6943c-5.987 6.54493 -7.651 15.8339 -7.31299 24.4277c0.454956 5.9023 0.175964 11.8242 0.214966 17.7324
c-0.195007 55.1816 -0.383972 110.363 -0.578979 165.543c-0.0449829 6.87801 -2.09302 13.866 -6.474 19.242c-5.12299 6.343 -12.676 10.16 -20.249 12.779c-8.48199 2.795 -17.466 3.881 -26.372 3.73099h-345.119c-12.546 -0.0779877 -25.026 -4.30899 -35.089 -11.785
c-6.64902 -4.953 -11.024 -12.935 -10.973 -21.302c-0.0320129 -58.508 -0.00601196 -117.017 -0.0120239 -175.527c0 -9.4248 0.553009 -19.1367 -2.53497 -28.1983c-1.52802 -4.6279 -4.45901 -9.00289 -8.90601 -11.2451
c-8.06702 -4.24512 -17.414 -4.91407 -26.359 -5.21973c-69.338 0.213867 -138.67 0.448242 -208.009 0.649414c-7.5986 -0.324219 -15.7441 0.982426 -21.7568 5.97461c-6.93557 5.74608 -10.1797 14.8916 -10.3936 23.7061
c-0.0459001 65.8613 -0.16309 131.722 -0.23437 197.583c-0.28614 128.283 0.18261 256.566 0.22753 384.85c-0.32519 8.125 1.28711 16.679 6.31832 23.264c3.5362 4.88904 9.003 8.17804 14.8731 9.41205c5.2978 1.30096 10.7773 0.753967 16.166 0.884949
c64.3596 0.195007 128.719 0.403015 193.079 0.605042c9.97699 0.154968 20.164 0.200989 29.823 -2.62c5.246 -1.521 10.537 -4.31702 13.17 -9.33405c4.823 -8.95197 4.64001 -19.489 4.53699 -29.37v-178.1c-0.0390015 -4.992 1.20901 -10.037 3.88101 -14.281
c2.521 -4.08301 6.16199 -7.366 10.178 -9.927c7.70999 -4.888 16.486 -8.164 25.573 -9.211c4.056 -0.526001 8.15799 -0.389984 12.24 -0.402008c113.762 -0.00698853 227.53 0.00500488 341.292 -0.00698853c12.877 0.0579834 26.124 2.70401 37.077 9.75699
c5.83099 3.71201 10.491 9.379 12.513 16.036c2.18396 6.57199 1.39099 13.566 1.56696 20.366c0.189026 53.088 0.370056 106.176 0.56604 159.269c-0.0200195 4.33002 0.154968 8.672 -0.208008 12.995c-0.416992 8.49603 1.03302 17.661 6.68097 24.35
c5.72803 6.59796 14.171 10.31 22.687 11.649z" />
    <glyph glyph-name="i" unicode="i" horiz-adv-x="362" 
d="M28.499 649.771c6.5576 1.047 13.2139 0.734985 19.8242 0.781006l182.177 -0.00701904c8.659 -0.201965 18.042 -2.04999 24.398 -8.39398c6.019 -5.98499 7.65199 -14.919 7.339 -23.103c-0.649994 -8.00897 -0.22699 -16.065 -0.332001 -24.093
c0.306 -187.596 0.0589905 -375.192 0.169006 -562.801c0.286987 -7.3984 -1.177 -15.1865 -5.724 -21.2041c-2.571 -3.61133 -6.32501 -6.24024 -10.444 -7.80176c-6.961 -2.66016 -14.515 -3.19434 -21.906 -3.14844c-61.804 0.00683594 -123.613 0 -185.423 0
c-6.8125 -0.136719 -13.7998 0.410156 -20.1503 3.03809c-4.4434 1.82812 -8.43852 4.87304 -11.0411 8.93941c-3.24023 4.9913 -4.38476 11.042 -4.46972 16.917c-0.12403 3.6953 0.52734 7.3653 0.37109 11.0674c-0.18848 133.6 -0.34473 267.207 -0.53418 400.807
c-0.24023 2.17899 0.61816 4.27499 0.37109 6.45499c-0.0126901 54.88 0 109.767 -0.00683022 164.647c0.11719 5.40704 -0.44239 10.872 0.69629 16.208c1.17187 5.93402 4.11914 11.652 8.80372 15.55c4.5146 3.62994 10.2471 5.26398 15.8818 6.14197z" />
    <glyph glyph-name="j" unicode="j" 
d="M767.215 649.768c6.54498 1.03601 13.193 0.729004 19.797 0.775024l182.346 -0.00701904c7.22302 -0.182007 14.738 -1.43903 20.871 -5.48199c5.00098 -3.25 8.41498 -8.58301 9.79102 -14.34c1.52997 -5.73102 1.17999 -11.708 0.76001 -17.563
c0.199951 -159.529 0.419983 -319.065 0.619995 -478.601c0.22998 -13.474 -1.30005 -27.031 -5.18604 -39.9582c-5.828 -19.6787 -17.556 -37.4697 -32.977 -50.9619c-13.889 -12.1641 -30.729 -20.3828 -47.849 -26.9463
c-25.716 -9.61817 -53.053 -14.3262 -80.39 -15.9932c-13.806 -0.879883 -27.637 -0.665039 -41.455 -0.69043h-721.543c-10.4121 0.129883 -20.832 -0.326172 -31.2246 0.364258c-8.7647 0.729492 -17.8428 1.93457 -25.5986 6.36914
c-5.91313 3.3467 -9.42875 9.6631 -11.1485 16.0449c-1.83594 6.6817 -2.12305 13.669 -1.97949 20.5586c-0.17578 25.6182 -0.38379 51.2422 -0.56641 76.8601c-0.0126899 5.457 -0.3457 10.973 0.74903 16.359c1.23046 6.726 4.54492 13.186 9.87795 17.562
c8.6679 7.13701 20.3506 8.92101 31.2451 9.155c218.164 0.665009 436.32 1.27701 654.476 1.92101c11.253 -0.0780029 22.818 3.27699 31.323 10.863c6.466 5.46399 10.458 13.427 11.871 21.704c1.453 7.274 0.606018 14.697 0.762024 22.05v387.479
c0.065979 5.203 -0.109985 10.406 0.0390015 15.609c0.377991 7.44403 3.15796 15.031 8.77197 20.122c4.58502 4.05103 10.679 5.82202 16.618 6.74701z" />
    <glyph glyph-name="k" unicode="k" horiz-adv-x="1094" 
d="M35.2617 653.865h192.898c9.95999 0.117004 20.529 0.197021 29.516 -4.73798c7.021 -3.71802 11.517 -10.982 13.285 -18.567c1.88501 -7.26398 1.28201 -14.81 1.34799 -22.232c-0.117981 -72.852 -0.235992 -145.706 -0.354004 -218.558
c-0.215973 -69.601 0.0660095 -139.202 0.138 -208.802c0.0720215 -49.071 0.157013 -98.1477 0.229004 -147.225c-0.255981 -9.3194 -2.828 -19.3067 -10.007 -25.7393c-7.153 -6.30274 -17.1 -7.86719 -26.315 -8.00391
c-63.271 -0.0195312 -126.544 0 -189.816 -0.00683594c-4.8291 0.124024 -9.7178 -0.542969 -14.4893 0.484375c-7.9902 1.40723 -14.9863 6.41992 -19.6787 12.9317c-6.66892 8.7236 -9.6074 19.8955 -9.0908 30.792
c0.0195401 188.481 0.0195401 376.962 0.00683999 565.443c-0.56934 11.4 2.72266 23.095 9.99996 31.989c5.3204 6.95703 13.5401 11.682 22.3301 12.232zM598.211 651.64c6.57703 1.177 13.278 0.849976 19.934 0.856995
c84.214 -0.419006 168.428 -0.811035 252.65 -1.24298c4.72504 0.0249634 9.76404 -1.40704 12.925 -5.11804c3.50806 -4.08398 4.54901 -9.67297 4.63904 -14.908c0.112 -7.78204 -3.25201 -15.262 -8.22504 -21.1201c-2.638 -3.24597 -5.82495 -5.96796 -9.026 -8.638
c-70.254 -59.79 -140.476 -119.614 -210.725 -179.404c-9.56201 -8.311 -19.535 -16.152 -28.639 -24.967c-2.42102 -2.34299 -5.03204 -4.509 -7.32904 -6.97c-3.22699 -4.28601 -6.43396 -9.20099 -6.29596 -14.784c-0.0720215 -4.37799 2.09399 -8.35101 4.45599 -11.891
c2.31097 -3.72501 5.94299 -6.29001 8.992 -9.35901c9.70599 -9.064 19.379 -18.167 29.111 -27.205c41.275 -35.027 82.453 -70.177 123.69 -105.248c65.759 -55.74 131.309 -111.728 196.983 -167.572c3.04901 -2.6377 6.18396 -5.1699 9.17401 -7.8857
c6.10699 -5.7403 11.095 -13.1875 12.125 -21.669c0.659973 -6.1523 -0.0700073 -12.8867 -3.79401 -18.0175c-3.23901 -4.417 -8.97101 -6.01368 -14.227 -5.86328c-87.244 -0.418946 -174.488 -0.883789 -261.733 -1.26367
c-5.289 0.020508 -10.53 0.818359 -15.681 1.97071c-3.38306 0.81738 -6.99506 0.95508 -10.111 2.61718c-3.94598 1.99024 -7.172 5.07227 -10.916 7.37602c-2.57196 1.538 -4.58197 3.8017 -6.72797 5.8437c-8.97302 9.1563 -18.54 17.6963 -27.84 26.5117
c-110.143 103.194 -220.3 206.374 -330.437 309.568c-5.42502 6.56302 -10.314 14.109 -11.747 22.643c-1.34201 8.51498 2.32999 16.754 6.957 23.671c1.603 2.311 3.108 4.72601 5.117 6.715c74.339 69.64 148.717 139.254 223.049 208.906
c6.26898 5.93604 12.703 11.703 18.73 17.893c2.89899 2.77502 5.56299 5.90302 9.08398 7.93201c4.49603 2.87897 8.43604 6.96997 13.782 8.23999c4.026 0.770996 8.02399 1.63599 12.056 2.38202z" />
    <glyph glyph-name="l" unicode="l" horiz-adv-x="1104" 
d="M26.6182 649.819c2.6953 0.437012 5.4306 0.67804 8.166 0.710022l190.186 0.00701904c8.52299 -0.052002 17.497 -0.801025 25.038 -5.15002c7.92502 -4.74097 11.773 -14.209 12.054 -23.144c0 -136.313 0.00497437 -272.633 -0.00701904 -408.952
c-0.312988 -10.08 0.957001 -20.643 6.336 -29.388c5.91901 -9.612 16.39 -15.882 27.395 -17.803c5.18399 -1.02299 10.478 -0.912003 15.733 -0.917999c216.187 -0.638992 432.375 -1.257 648.563 -1.90199c10.243 -0.182007 21.033 -1.61501 29.72 -7.457
c5.58099 -3.724 9.57202 -9.597 11.248 -16.071c1.76001 -6.147 1.33002 -12.6 1.37 -18.923v-78.7938c-0.0799561 -7.2539 -0.769958 -14.6192 -3.18896 -21.502c-1.81 -5.0595 -4.75299 -9.9502 -9.29303 -12.9912c-4.54401 -3.04102 -9.89099 -4.61036 -15.205 -5.67872
c-8.04199 -1.54296 -16.254 -1.92675 -24.42 -1.8623h-712.313c-17.374 0.0390625 -34.741 -0.0839844 -52.108 0.0722656c-24.478 0.40332 -49.002 3.08007 -72.757 9.10937c-19.4055 4.94236 -38.2903 12.21 -55.592 22.3487
c-15.5049 9.1494 -28.8477 21.9775 -38.3096 37.3135c-9.42871 15.0097 -14.6514 32.4162 -16.2149 50.0102c-0.81347 8.01 -0.5205 16.072 -0.55957 24.108c0.20801 156.727 0.42286 313.449 0.61231 470.17c-0.73633 8.48499 -0.76172 17.693 3.95215 25.148
c4.16796 6.79199 11.9493 10.3669 19.5948 11.5389z" />
    <glyph glyph-name="m" unicode="m" horiz-adv-x="1390" 
d="M116.557 649.384c5.811 0.835999 11.689 0.289001 17.542 0.497009c7.99001 -0.131958 15.98 0.0640259 23.964 0c23.707 -0.953979 47.511 -1.76898 70.958 -5.53101c18.4 -2.81799 34.819 -12.249 49.93 -22.4709c21.143 -14.519 40.179 -31.718 58.664 -49.329
c16.34 -15.53 33.623 -30.055 50.627 -44.88c72.068 -62.51 144.129 -125.035 216.184 -187.56c4.99597 -4.38098 10.105 -8.63998 14.986 -13.141c6.84601 -6.039 15.648 -9.79099 24.768 -10.894c6.66901 -1.10202 13.384 0.678986 19.628 2.88998
c6.33704 2.36902 11.841 6.42502 16.626 11.089c80.137 69.535 160.282 139.077 240.441 208.599c9.52301 8.297 19.168 16.476 28.436 25.053c15.284 14.095 30.108 28.705 46.354 41.756c10.505 8.52502 21.405 16.619 33.035 23.612
c9.89001 5.89001 20.37 11.1281 31.67 13.846c13.85 3.10004 28.08 4.16199 42.22 5.21301c16.3401 0.984985 32.7001 2.03503 49.0701 1.70099c7.75 0.0469971 15.51 0 23.27 0.0140381c14.08 -1.29199 28.3099 -2.82605 41.7899 -7.26703
c10.89 -3.69202 21.02 -9.26202 30.5901 -15.529c9.37988 -5.961 17.5699 -13.717 24.0099 -22.693c13.16 -18.653 19.9 -41.358 20.42 -63.957c-0.160034 -162.224 -0.410034 -324.453 -0.650024 -486.677c-0.289917 -12.0976 -2.07996 -24.8506 -9.21997 -35.0439
c-6.07996 -8.68168 -16.29 -13.4698 -26.4399 -15.876c-15.02 -3.73731 -30.62 -2.6416 -45.9601 -2.80469c-27.22 0.00585938 -54.4399 0.00585938 -81.6699 0c-9.55005 0.0859375 -19.16 -0.438477 -28.63 1.10156c-11.14 1.64453 -22.8301 4.42188 -31.4401 11.9755
c-8.01001 7.3711 -10.98 18.334 -12.47 28.6602c-1.41003 9.8301 -1.06006 19.7695 -1.07996 29.6563c0.109985 72.6074 0.609985 145.214 0.899902 217.823c-0.0299072 11.095 -0.119995 22.177 -0.219971 33.263c-0.179932 4.31799 0.550049 8.793 -1.01001 12.948
c-1.20996 3.54199 -4.45996 6.62698 -8.37 6.83499c-3.73999 0.118011 -6.97998 -2.09799 -9.63 -4.448c-106.334 -92.41 -212.536 -184.969 -318.493 -277.796c-18.312 -15.2354 -42.503 -22.8477 -66.375 -22.4229c-14.008 -0.514599 -28.197 1.0234 -41.481 5.542
c-11.245 3.791 -21.728 9.6865 -30.813 17.208c-105.805 92.7473 -211.907 185.17 -318.103 277.483c-2.483 2.198 -5.44499 4.245 -8.894 4.43399c-4.00299 0.171997 -7.52399 -2.797 -8.89999 -6.33801c-1.634 -3.85599 -1.14799 -8.09598 -1.17599 -12.16
c-0.458008 -32.821 -0.0800018 -65.647 0.0529938 -98.469c0.259995 -53.483 0.544998 -106.96 0.619003 -160.438c0.106003 -10.7168 -0.147003 -21.5625 -2.81 -32.0117c-1.73401 -6.7178 -4.51801 -13.3975 -9.43401 -18.4912
c-5.444 -5.56351 -12.897 -8.71292 -20.351 -10.7745c-7.95601 -2.11328 -16.185 -3.20996 -24.421 -3.57421c-34.754 -0.00683594 -69.512 0 -104.271 -0.00683594c-10.6084 0.0654297 -21.2812 -0.404297 -31.8018 1.23828
c-10.2773 1.52637 -20.791 4.51465 -28.8681 11.2246c-7.0088 5.7988 -10.9541 14.3701 -12.9121 22.999c-1.53516 6.6533 -2.05859 13.4942 -2.08594 20.3037c-0.21289 160.649 -0.43164 321.296 -0.64355 481.935c-0.0468798 20.553 5.22656 41.144 15.5136 59.054
c6.6973 11.598 16.0362 21.746 27.2959 29.221c10.9444 7.26501 22.5958 13.789 35.3028 17.572c10.9717 3.23401 22.3832 4.70801 33.7562 5.836z" />
    <glyph glyph-name="n" unicode="n" 
d="M137.077 644.819c21.426 0.220032 42.851 0.878052 64.282 0.665039c0.433014 -0.452026 0.956009 -0.658997 1.589 -0.619995c22.02 -0.52301 44.053 -1.30499 65.989 -3.35303c9.73599 -1.00098 19.518 -2.06097 29.003 -4.56897
c11.643 -3.27502 22.374 -9.13501 32.525 -15.609c16.108 -10.422 30.878 -22.75 45.073 -35.62c10.383 -9.44 20.281 -19.397 30.607 -28.895c15.848 -14.556 32.182 -28.571 48.251 -42.888c20.805 -18.33 41.519 -36.777 62.382 -55.036
c14.964 -13.032 29.696 -26.33 44.576 -39.464c64.106 -56.943 128.324 -113.761 192.501 -170.632c2.927 -2.584 7.04303 -4.86501 11.017 -3.366c4.34198 1.60799 6.52002 6.338 6.76501 10.713c0.296997 34.882 0.496948 69.773 0.270996 104.657
c-0.283997 73.449 -0.795044 146.899 -0.886047 220.355c-0.10199 13.027 0.234009 26.446 4.98901 38.754c2.59698 6.888 7.35199 13.032 13.833 16.645c10.9 6.20898 23.654 7.98499 35.982 8.80499c35.542 0.0390015 71.085 0.00695801 106.628 0.0199585
c14.498 0.207031 29.469 -0.0969849 43.115 -5.59497c7.81104 -3.08899 14.867 -8.53503 18.899 -16.011c6.28198 -11.3781 7.18201 -24.7531 7.052 -37.487c0.199951 -157.851 0.419983 -315.71 0.619995 -473.561c0.039978 -20.9731 -5.38501 -42.0229 -16.046 -60.1206
c-6.125 -10.3056 -14.35 -19.3837 -24.145 -26.3095c-8.34198 -5.7637 -17.0699 -11.0362 -26.413 -15.003c-10.997 -4.74898 -22.886 -6.91988 -34.709 -8.36714c-9.466 -1.06641 -18.957 -2.09375 -28.481 -2.3457c-23.021 -0.083985 -46.035 -0.96875 -69.05 -0.65918
c-1.83502 0.898437 -3.90204 0.569336 -5.854 0.666016c-19.855 0.536129 -39.716 1.2793 -59.5 3.03027c-13.711 1.41504 -27.751 2.57129 -40.615 7.90134c-18.911 7.876 -35.5161 20.2305 -51.288 33.1075c-17.522 14.2783 -33.307 30.496 -49.912 45.79
c-22.207 20.042 -44.795 39.645 -67.157 59.513c-4.51599 3.85001 -8.75494 8.05701 -13.517 11.604c-88.368 78.554 -176.859 156.98 -265.39 235.353c-2.869 2.45502 -6.88701 4.522 -10.687 3.043c-4.33501 -1.63498 -6.49301 -6.36499 -6.73201 -10.739
c-0.272003 -34.011 -0.498001 -68.029 -0.272003 -102.04c0.266006 -69.347 0.731003 -138.694 0.866013 -208.035c-0.103012 -10.5508 0.362991 -21.1152 -0.394012 -31.6465c-0.871994 -10.2539 -2.72699 -20.8955 -8.54799 -29.6113
c-5.13 -7.6699 -13.898 -11.8369 -22.524 -14.2539c-9.68401 -2.60351 -19.751 -3.83105 -29.772 -3.60449c-31.446 -0.00683594 -62.893 0 -94.3389 -0.00683594c-11.417 0.0771484 -22.9306 -0.49707 -34.2304 1.54395
c-10.1836 1.75098 -20.6377 5.20801 -28.0996 12.6836c-7.15922 7.2686 -10.3506 17.4385 -11.6817 27.3301c-1.13769 7.9599 -0.83984 16.0176 -0.8916 24.0293c-0.20019 155.706 -0.41406 311.413 -0.61426 467.112c-0.0253899 20.96 5.39551 41.979 16.0362 60.07
c6.1904 10.409 14.5185 19.564 24.4424 26.516c8.2314 5.66595 16.8379 10.848 26.0449 14.764c11.4492 4.95502 23.8545 7.12701 36.17 8.56702c10.712 1.16901 21.457 2.33197 32.24 2.20996z" />
    <glyph glyph-name="o" unicode="o" 
d="M128.968 647.775c6.369 0.578979 12.763 0.897949 19.159 0.838989h708.354c27.538 -0.176025 55.445 -6.37604 79.278 -20.524c18.5811 -11.049 34.698 -26.302 46.78 -44.234c11.244 -16.787 17.771 -36.758 18.051 -56.997
c0.279968 -136.281 0.47998 -272.561 0.72998 -408.841c0.0999756 -14.409 -2.70898 -28.9086 -8.81799 -41.9916c-8.33099 -17.8985 -22.317 -32.6582 -38.104 -44.253c-19.302 -14.038 -42.088 -22.5839 -65.297 -27.5498
c-15.403 -3.25586 -31.151 -4.7705 -46.878 -4.85449c-230.077 0.208007 -460.147 0.422851 -690.223 0.630859c-21.629 -0.182617 -43.42 2.9375 -63.7559 10.4697c-17.0927 6.2783 -33.0097 15.669 -46.8652 27.4785c-12.7519 10.8409 -23.7031 24.0918 -30.6182 39.4239
c-5.97261 13.1015 -8.82515 27.5359 -8.81246 41.9189c-0.20117 139.523 -0.42871 279.048 -0.62402 418.571c0.03223 17.327 4.79004 34.712 14.2783 49.264c7.585 11.809 17.8467 21.72 29.2207 29.863c24.5147 17.782 54.0469 28.155 84.1448 30.786zM332.937 479.058
c-9.918 -0.416016 -19.959 -3.57501 -27.538 -10.152c-9.22098 -8.065 -15.279 -19.568 -17.02 -31.677c-0.910004 -5.634 -0.644012 -11.36 -0.657013 -17.041c0.202026 -64.548 0.410004 -129.091 0.604004 -193.635c0.150024 -12.439 2.12601 -25.418 8.98801 -36.057
c5.233 -8.241 13.759 -14.064 23.099 -16.671c10.301 -3.112 21.161 -2.424 31.775 -2.495h310.008c7.15601 0.0590057 14.422 -0.408997 21.448 1.313c9.56 2.067 18.288 7.629 24.164 15.455c6.31 8.11699 9.13 18.503 9.14301 28.687
c-0.447998 66.291 -0.849976 132.576 -1.28601 198.867c-0.182983 8.89798 0.447998 17.912 -1.53998 26.66c-2.40503 11.711 -9.04102 22.876 -19.297 29.318c-8.90997 5.621 -19.666 7.51898 -30.064 7.47998c-110.61 -0.0389709 -221.225 0.0650024 -331.827 -0.0519714z
" />
    <glyph glyph-name="p" unicode="p" 
d="M140.353 647.803c6.79201 0.539001 13.609 0.825012 20.42 0.804993c211.225 -0.194946 422.45 -0.441956 633.673 -0.681946c30.846 0.0910034 61.873 0.175964 92.419 -4.70502c14.189 -2.33301 28.175 -5.96002 41.66 -10.958
c18.4189 -6.81799 35.935 -17.451 48.257 -32.996c12.733 -16.151 20.629 -35.928 23.278 -56.278c1.16998 -8.59204 1.58002 -17.281 1.42999 -25.944c0.140015 -52.41 0.549988 -104.819 0.650024 -157.23c-0.299988 -12.706 -2.03003 -25.508 -6.47803 -37.467
c-6.92096 -18.309 -19.991 -34.537 -37.306 -43.915c-10.839 -5.93402 -22.701 -9.72302 -34.685 -12.544c-12.804 -2.95102 -25.77 -5.16 -38.807 -6.72702c-18.562 -2.24799 -37.266 -2.93698 -55.939 -3.48999c-15.169 -0.565994 -30.332 -0.181992 -45.507 -0.265991
c-107.029 0.0059967 -214.059 -0.0190125 -321.088 0.0130005c-8.83899 -0.59201 -17.724 -0.17601 -26.582 -0.299011h-109.869c-6.707 0.0130005 -13.434 0.0449982 -20.115 -0.610992c-13.239 -1.46201 -25.555 -9.755 -31.723 -21.584
c-3.55499 -6.75301 -4.13998 -14.506 -4.63998 -21.981c0.122986 -58.934 0.169006 -117.876 0.304993 -176.81c-0.174988 -9.3008 -2.56598 -19.2832 -9.586 -25.8604c-7 -6.44141 -16.943 -8.0918 -26.12 -8.27344
c-64.485 -0.0458984 -128.978 0.0253906 -193.469 -0.0390625c-8.1435 -0.682617 -16.6904 1.34472 -23.0332 6.65527c-8.50093 7.13579 -13.8046 17.7686 -15.0263 28.7451c-0.52637 4.1211 -0.2666 8.2803 -0.30566 12.4141c-0.00683999 142.782 0 285.563 0 428.344
c0.02636 14.279 -0.0585999 28.558 0.0458901 42.83c0.44141 23.741 6.02442 47.9 19.1983 67.9041c6.3105 9.677 14.246 18.269 23.2343 25.516c12.9795 10.431 27.7393 18.594 43.3633 24.333c16.8012 6.19397 34.5232 9.65698 52.3452 11.101zM305.276 482.963
c-11.932 -0.481018 -22.818 -7.57101 -29.297 -17.399c-5.48599 -7.91599 -7.15701 -17.743 -7.35101 -27.192c-0.0329895 -6.181 0.552002 -12.439 2.48199 -18.341c2.27502 -6.883 6.66202 -12.979 12.212 -17.613c6.03799 -5.04999 13.941 -7.5 21.753 -7.63
c11.698 -0.0709839 23.398 -0.052002 35.103 -0.0979919c17.761 0.052002 35.524 -0.389008 53.287 -0.377014c16.677 -0.382996 33.366 -0.0390015 50.05 -0.109985c83.846 0.188995 167.693 0.376984 251.539 0.53299c6.29199 0.117004 12.719 -0.376984 18.829 1.46201
c7.72699 2.047 14.31 7.23401 18.944 13.656c6.37 8.487 8.00098 19.477 7.70898 29.837c-0.29303 6.36298 -1.125 12.817 -3.53601 18.757c-5.40698 13.187 -18.094 23.715 -32.626 24.483c-12.004 0.278992 -24.015 0.0190125 -36.025 0.0710144
c-83.184 -0.143005 -166.361 -0.299011 -249.544 -0.442017c-1.52798 0.0849915 -3.035 0.377014 -4.56299 0.332001c-36.324 -0.052002 -72.647 0.259003 -108.966 0.0710144z" />
    <glyph glyph-name="q" unicode="q" 
d="M128.977 647.698c6.368 0.578003 12.769 0.896973 19.169 0.838989h697.944c13.569 0.207031 27.196 -0.27301 40.576 -2.724c24.563 -4.22998 48.152 -14.626 67.304 -30.665c16.213 -13.594 30.262 -30.328 38.4821 -49.979
c5.36798 -12.736 8.078 -26.559 8.078 -40.374c0.179993 -104.644 0.359985 -209.279 0.549988 -313.916c0.149963 -32.037 -0.140015 -64.074 0.0100098 -96.117c0.0599976 -25.3382 0.109985 -50.6751 0.169983 -76.0188
c1.14996 -14.7764 -7.24701 -30.2627 -21.037 -36.1885c-6.02502 -2.60645 -12.672 -3.29492 -19.17 -3.2041c-73.199 0.039062 -146.402 -0.09082 -219.6 0.117187c-196.484 0.168946 -392.969 0.357422 -589.453 0.532227
c-21.477 -0.181641 -43.11 2.89844 -63.3203 10.3193c-17.3897 6.336 -33.5703 15.8828 -47.6133 27.9239c-12.2363 10.4756 -22.7832 23.1601 -29.6514 37.8007c-6.38863 13.4522 -9.44234 28.3791 -9.42281 43.2471c-0.20117 139.48 -0.42871 278.961 -0.62403 418.448
c0.02637 17.032 4.60059 34.137 13.7832 48.543c7.5507 12.016 17.8701 22.101 29.3466 30.374c24.5762 17.929 54.2354 28.398 84.479 31.042zM324.161 477.883c-9.44202 -1.87799 -18.188 -7.07098 -24.186 -14.614c-8.08401 -9.60501 -12.25 -22.16 -12.256 -34.65
c0.169006 -62.384 0.382996 -124.762 0.571014 -187.146c0.123993 -11.737 -0.578003 -23.667 2.379 -35.143c2.42398 -10.177 7.759 -20.021 16.435 -26.156c9.59 -6.93399 21.775 -8.93599 33.375 -8.858c53.292 0.00700378 106.58 -0.0509949 159.873 0.0270081
c9.46701 -0.235001 19.111 0.934998 27.851 4.76199c6.83002 2.957 12.737 7.89601 16.974 14.004c6.40698 9.04601 9.01898 20.269 9.20203 31.225c0.220947 20.133 -0.0460205 40.277 -0.00701904 60.416c0.351013 10.3 5.46497 20.203 13.264 26.857
c6.914 5.823 16.174 7.974 25.044 7.92801c25.311 0.0140076 50.629 0.0390015 75.94 -0.0130005c11.209 0.389984 22.796 3.633 31.296 11.249c9.31799 8.29102 14.29 20.613 15.329 32.862l0.500977 0.0190125c0.351013 17.884 -0.0979614 35.781 -0.109985 53.67
c-0.221985 8.68301 0.44104 17.449 -1.16998 26.033c-1.96301 11.373 -7.70703 22.368 -17.032 29.385c-8.922 6.746 -20.347 9.17599 -31.342 9.31302h-320.421c-7.17398 -0.0650024 -14.446 0.441986 -21.51 -1.17001z" />
    <glyph glyph-name="r" unicode="r" horiz-adv-x="1126" 
d="M75.335 631.5c26.188 12.336 55.385 17.232 84.214 17.52c220.151 -0.182007 440.295 -0.462036 660.438 -0.690002c18.365 0.0529785 36.75 -0.5 55.038 -2.27502c23.011 -2.09601 45.8719 -7.01099 67.264 -15.797c18.005 -7.47302 34.719 -19.043 45.939 -35.112
c5.96698 -8.40302 10.638 -17.677 14.1819 -27.334c4.86005 -13.529 6.91003 -27.918 7.29004 -42.233c0.169983 -53.243 0.47998 -106.487 0.709961 -159.73c0.150024 -13.781 -1.21997 -27.737 -5.69 -40.855c-6.08899 -17.564 -17.805 -33.408 -33.615 -43.514
c-10.903 -6.90701 -23.234 -11.218 -35.695 -14.411c-24.256 -5.95099 -49.155 -9.073 -74.098 -10.256c-24.033 -1.20898 -48.105 -1.52299 -72.165 -1.52899c80.348 -67.901 160.704 -135.791 241.063 -203.685c3.5 -2.9922 7.19006 -5.8203 10.1801 -9.3525
c5.02002 -5.6387 8.58997 -12.7979 8.83997 -20.4131c0.119995 -5.6123 -0.839966 -11.6875 -4.60999 -16.1025c-3.30994 -3.87598 -8.66003 -5.20899 -13.6 -5.10547c-87.165 -0.422852 -174.332 -0.866211 -261.498 -1.26172
c-7.776 -0.135742 -15.33 1.82129 -22.8979 3.27149c-6.09503 1.54785 -10.436 6.4248 -15.739 9.47563c-4.65302 3.7783 -8.61499 8.3046 -12.972 12.3945c-115.246 107.163 -230.498 214.327 -345.742 321.49c-2.62698 2.58002 -5.66 4.80402 -7.74399 7.87399
c-4.20599 5.75601 -8.091 12.058 -9.36301 19.159c-1.082 5.814 0.687012 12.142 4.80899 16.435c3.58301 3.67499 8.94501 4.99399 13.956 4.83899c108.319 0.233002 216.631 0.480988 324.951 0.682007c7.31995 0.182983 14.848 -0.572021 21.929 1.74298
c13.111 4.03201 22.783 16.297 24.979 29.571c1.61804 9.22198 1.263 18.782 -1.03699 27.859c-4.31598 16.059 -19.498 29.294 -36.625 29.183c-136.703 -0.17099 -273.408 -0.468994 -410.11 -0.691986c-6.073 -0.244995 -11.808 -3.24402 -15.823 -7.711
c-6.99197 -7.73901 -10.489 -18.139 -10.877 -28.426c0.261993 -33.161 0.151001 -66.335 0.256989 -99.503c0.177002 -102.981 0.308014 -205.962 0.511017 -308.95c0.313995 -10.1055 -1.38901 -21.1748 -8.66202 -28.8027
c-7.005 -7.22461 -17.646 -9.07812 -27.322 -9.25488c-63.039 -0.0322266 -126.076 -0.00585938 -189.114 -0.0126953c-6.1279 0.15625 -12.3974 -0.749024 -18.3652 1.07227c-8.4062 2.21777 -15.123 8.47559 -19.5332 15.7324
c-4.22363 6.7578 -6.44531 14.6592 -6.71484 22.5937c-0.00683999 158.89 -0.00683999 317.787 0 476.684c0.02637 24.512 5.36621 49.609 18.9082 70.4c12.8574 20.109 32.7216 34.866 54.1543 45.03z" />
    <glyph glyph-name="s" unicode="s" 
d="M165.307 649.225c15.03 1.11102 30.1 0.77301 45.157 0.825012h731.414c13.126 0.0650024 26.622 0.29303 39.202 -4.01801c5.70801 -1.91101 11 -5.55298 13.9 -10.948c5.67999 -10.129 5.82001 -22.144 5.72003 -33.449v-81.24
c-0.0100098 -7.867 -2.177 -16.078 -7.63202 -21.961c-5.94098 -6.535 -14.672 -9.62198 -23.189 -11.027c-8.82904 -1.54703 -17.82 -0.936005 -26.733 -1.11102c-210.434 -0.59198 -420.868 -1.22299 -631.301 -1.827c-6.716 0.026001 -13.548 0.175995 -20.063 -1.70999
c-12.886 -3.479 -24.386 -13.555 -27.786 -26.7c-2.29501 -9.47299 -2.42599 -19.426 -0.722015 -29.009c2.24402 -13.035 12.554 -23.704 24.77 -28.138c5.34399 -1.944 11.052 -2.76898 16.727 -2.78299c116.367 -0.143005 232.734 -0.23999 349.1 -0.397003
c51.5811 0.053009 103.169 -0.324005 154.75 0.0979919c29.535 0.241028 59.252 -2.73599 87.741 -10.721c18.58 -5.272 36.687 -12.644 53.096 -22.897c18.567 -11.78 33.442 -29.242 42.115 -49.442c6.755 -15.668 9.65698 -32.832 9.487 -49.838v-113.149
c-0.0999756 -13.399 0.619995 -26.916 -1.776 -40.178c-3.758 -23.6519 -15.356 -45.9898 -32.702 -62.523c-13.606 -13.1845 -30.757 -21.9414 -48.187 -28.9365c-36.479 -14.3613 -76.111 -18.7236 -115.073 -18.1455h-731.322
c-8.874 0.0517578 -17.748 -0.0908203 -26.623 0.078125c-10.0958 0.552734 -20.6221 1.49512 -29.6846 6.3584c-6.19533 3.28321 -9.90822 9.75778 -11.793 16.3047c-1.87304 6.4043 -2.41894 13.1133 -2.458 19.7647c-0.00585997 29.0468 0.0068301 58.0951 0 87.1491
c-0.0585999 8.933 2.93261 18.333 9.94729 24.224c8.8222 7.48199 20.8564 9.381 32.0576 9.81c213.216 0.643997 426.426 1.23601 639.642 1.879c8.22998 0.228012 16.578 -0.610992 24.698 1.09901c13.86 2.80899 26.558 13.172 30.303 27.078
c2.32001 9.401 2.48901 19.289 0.864014 28.819c-2.33398 14.583 -14.654 26.227 -28.69 29.764c-5.67499 1.547 -11.592 1.69 -17.43 1.586c-146.064 0.188995 -292.128 0.332001 -438.187 0.494003c-18.839 -0.0709991 -37.68 0.195999 -56.515 0.396988
c-38.799 -0.442993 -78.249 3.90701 -114.552 18.256c-16.8125 6.77399 -33.3584 15.147 -46.6992 27.629c-17.4688 16.118 -29.4053 38.027 -33.6045 61.412c-1.41113 7.59302 -2.13281 15.31 -2.19141 23.034v134.602c0.12989 20.928 5.16895 42.051 16.0449 60.053
c6.8066 11.416 15.6621 21.604 26.0899 29.86c9.6933 7.76202 20.7587 13.607 32.0449 18.698c28.3393 12.619 59.2003 18.769 90.0433 20.876z" />
    <glyph glyph-name="t" unicode="t" horiz-adv-x="1100" 
d="M35.082 650.506c5.042 0.572021 10.1104 0.858032 15.1787 0.800049h891.352c12.953 0.0719604 26.2401 0.28595 38.699 -3.82605c5.55499 -1.815 10.883 -5.08698 13.922 -10.234c5.66101 -9.26996 6.32599 -20.532 6.28601 -31.131l-0.0100098 -85.249
c-0.109985 -7.95703 -2.54102 -16.213 -8.26001 -21.964c-6.435 -6.57101 -15.634 -9.42102 -24.521 -10.65c-7.56702 -1.13202 -15.218 -0.657013 -22.83 -0.820007c-90.011 -0.227997 -180.029 -0.514008 -270.04 -0.768005
c-7.36499 -0.0249939 -14.743 0.123993 -22.068 -0.662994c-5.55701 -0.813019 -10.611 -3.897 -14.216 -8.15201c-6.87 -8.02899 -10.156 -18.666 -10.312 -29.134c0.325989 -18.653 0.135986 -37.313 0.234009 -55.972
c0.190002 -117.987 0.364014 -235.973 0.559998 -353.961c0.421997 -10.8779 -1.45099 -23.0703 -9.922 -30.747c-4.56702 -4.09961 -10.573 -6.2002 -16.551 -7.18262c-6.42798 -1.09961 -12.967 -0.742187 -19.446 -0.800781
c-63.044 -0.0322266 -126.101 0.0585942 -189.138 -0.0517578c-8.01501 0.40332 -15.725 4.15039 -21.047 10.1426c-8.20401 8.9004 -12.244 21.1709 -11.717 33.2002c0.0390015 124.493 0.00601196 248.979 0.0200195 373.472
c0.115997 6.298 -0.292999 12.616 0.310974 18.887c-0.141998 7.76199 0.833008 15.635 -1.021 23.279c-2.16599 9.44 -7 19.004 -15.478 24.229c-5.061 3.18701 -11.197 3.116 -16.948 3.40201c-94.552 0.325989 -189.104 0.605988 -283.663 0.859009
c-11.542 0.208984 -23.9424 1.88098 -33.2715 9.258c-7.28023 5.69998 -10.5986 15.126 -10.6503 24.151c0 30.07 -0.045898 60.148 0.025391 90.219c0.364258 10.41 1.82226 21.828 9.11523 29.856c6.66212 6.62299 16.4541 8.35999 25.4062 9.55096z" />
    <glyph glyph-name="u" unicode="u" 
d="M35.6338 648.409c61.8662 -0.117004 123.746 -0.0189819 185.626 -0.0529785c10.544 -0.129028 21.568 0.903992 31.553 -3.26703c6.13301 -2.40302 11.168 -7.289 13.871 -13.292c2.57202 -5.48297 3.521 -11.583 3.67001 -17.599
c-0.259003 -134.686 -0.416016 -269.374 -0.669006 -404.066c-0.701996 -9.94101 0.662994 -20.289 5.62601 -29.067c3.138 -5.703 7.711 -10.998 13.922 -13.395c2.96201 -1.183 6.185 -1.605 9.362 -1.50099c88.983 -0.0130005 177.967 -0.507004 266.943 -0.221008
c45.048 0.0720062 90.088 0.150009 135.129 0.240005c4.58002 0.156998 9.271 -0.512009 13.746 0.780991c4.815 1.29901 8.98499 4.41101 12.097 8.257c5.34601 6.60001 8.44598 14.864 9.35498 23.27c0.682007 5.151 0.0980225 10.343 0.176025 15.508
c-0.202026 129.502 -0.410034 258.998 -0.611023 388.5c0.0780029 7.56799 -0.585022 15.261 1.31903 22.68c1.63696 6.89899 5.43097 13.558 11.505 17.45c6.85394 4.43005 15.2339 5.59302 23.251 5.71704c64.304 0.0319824 128.606 -0.0270386 192.909 0.0319824
c8.14099 0.682007 16.684 -1.31897 23.037 -6.62c7.867 -6.57501 13.019 -16.163 14.699 -26.234c1 -5.36499 0.609985 -10.836 0.669983 -16.26v-441.149c-0.200012 -16.43 0.820007 -32.983 -1.81 -49.283c-2.95599 -19.8595 -10.519 -39.2393 -23.115 -54.9932
c-13.579 -17.0987 -32.191 -29.6114 -52.018 -38.3819c-25.609 -11.1738 -53.766 -15.4619 -81.571 -15.4619c-71.91 0.0322266 -143.821 0.168945 -215.725 0.208008c-154.196 0.364258 -308.386 -0.15625 -462.581 -0.208008
c-18.743 -0.227539 -37.583 1.28027 -55.864 5.53516c-19.2493 4.4375 -37.8489 12.0127 -54.2922 23.0234c-15.2276 10.0117 -28.4932 23.2715 -37.3809 39.2656c-11.336 20.0742 -15.6436 43.4298 -15.5401 66.2908
c-0.0126898 156.989 0.0195301 313.979 -0.0195298 470.962c-0.58398 12.785 4.04785 25.889 13.3057 34.848c5.164 5.073 12.2002 8.09503 19.4248 8.48401z" />
    <glyph glyph-name="v" unicode="v" 
d="M15.1846 639.048c5.1064 4.99603 12.0293 8.01904 19.1533 8.43402c62.5156 -0.0570068 125.045 -0.00500488 187.567 -0.0250244c9.90201 -0.0389404 20.224 0.655029 29.568 -3.258c5.68999 -2.25098 10.478 -6.59796 13.256 -12.049
c3.01599 -5.76105 4.10699 -12.328 4.26898 -18.77c-0.0679932 -23.864 0.375 -88.361 0.343018 -112.226c-0.0329895 -23.864 6.073 -33.554 16.387 -45.134c66.051 -58.545 115.037 -102.981 181.108 -161.506c5.67099 -4.99002 11.173 -10.453 18.226 -13.477
c5.20398 -2.32898 10.848 -3.67899 16.545 -3.97098c10.55 0.311981 20.906 4.52298 28.711 11.627c68.297 60.433 120.86 106.375 189.119 166.854c14.564 15.363 15.946 26.947 15.914 50.814c-0.03302 23.868 -0.535034 83.17 -0.60199 107.038
c0.187988 8.25299 2.00397 16.903 7.35699 23.416c4.172 5.20502 10.538 8.13702 16.955 9.448c7.065 1.54999 14.338 1.14203 21.522 1.19397c62.924 0.0200195 125.868 -0.0389404 188.793 0.0320435c6.97504 -0.408997 13.774 -3.29602 18.842 -8.117
c8.14899 -7.73999 12.962 -18.731 13.562 -29.924c0.199951 -4.96997 -0.0100098 -9.95398 0.0599976 -14.93c0.0199585 -61.867 0.309998 -101.928 0.339966 -163.794c0.539978 -11.885 -1.01001 -27.021 -24.017 -45.309
c-56.618 -50.019 -90.0941 -79.228 -146.718 -129.241c-17.051 -15.612 -34.596 -30.703 -51.868 -46.088c-35.966 -31.761 -71.898 -63.547 -107.883 -95.282l0.0910034 -0.694c-29.633 -26.3366 -59.265 -52.692 -88.826 -79.1198
c-6.83301 -5.9238 -13.204 -12.4257 -20.698 -17.5449c-10.037 -6.9814 -21.47 -11.9258 -33.403 -14.5722c-12.347 -2.81641 -25.123 -3.01074 -37.711 -2.33594c-13.553 0.908201 -27.003 4.31445 -39.091 10.5625c-8.319 4.2442 -15.898 9.8301 -22.691 16.2149
c-32.403 28.9511 -64.8 57.9218 -97.365 86.6855c0.306 1.031 -0.824005 1.479 -1.40701 2.076c-49.585 43.79 -99.163 87.593 -148.741 131.397c-13.333 12.282 -140.866 125.328 -154.42 137.389c-19.1201 17.813 -25.8457 32.557 -25.5615 53.648
c0.07812 67.129 0.00682998 102.537 0.03222 169.666c0.31836 11.4709 5.02832 22.84 13.2823 30.8719z" />
    <glyph glyph-name="w" unicode="w" horiz-adv-x="1531" 
d="M47.6973 648.329c4.458 0.515015 8.9463 0.814026 13.4365 0.775024c37.2539 -0.0209961 74.5072 0.0180054 111.761 -0.0209961c8.403 -0.513 16.838 -1.70898 24.892 -4.36102c6.481 -2.17798 12.887 -5.47998 17.413 -10.928
c5.46201 -6.67603 7.89801 -15.373 9.252 -23.869c1.15001 -7.34601 1.43001 -14.802 1.38 -22.232c-0.0509949 -123.924 -1.617 -247.85 -0.636002 -371.775c-0.169998 -3.90601 0.00500488 -8.11099 2.097 -11.504c1.77901 -2.94 5.23801 -4.97501 8.61501 -4.175
c3.98999 0.846008 6.842 4.071 9.78999 6.729c74.269 68.528 148.534 137.062 222.761 205.642c63.139 58.361 126.311 116.697 189.242 175.297c10.002 8.90601 21.865 15.549 34.545 19.216c12.961 3.78302 26.604 4.67999 39.975 3.41302
c13.374 -1.28802 26.573 -5.29803 38.228 -12.305c6.85706 -4.08301 13.137 -9.16803 18.793 -14.893c116.645 -110.151 232.628 -221.061 348.838 -331.706c3.66003 -2.59401 6.72009 -6 10.12 -8.95801c14.24 -13.13 28.4701 -26.268 42.7101 -39.4
c2.31995 -2.086 5.16992 -3.937 8.35999 -3.84c3.71997 0.188995 6.79993 3.30199 7.92993 6.87099c1.5 4.32901 0.720093 8.983 0.920044 13.468c0.329956 36.404 0.0400391 72.812 0.140015 109.215v267.208c0.349976 12.591 2.39001 25.904 9.83997 36.226
c5.82007 7.85199 15.39 11.214 24.4601 12.788c9.42993 1.68396 19.0099 1.22699 28.5199 1.29199c38.91 -0.00604248 77.8101 0.00799561 116.71 -0.0130005c9.63 -0.111023 19.7 -2.39203 27.35 -8.82098c6.93994 -5.74005 11.1 -14.3781 13.12 -23.225
c1.93994 -8.30096 2.28003 -16.902 2.04004 -25.411c0.0100098 -107.699 0.409912 -215.399 0.449951 -323.099c-0.23999 -51.776 0.0799561 -103.559 0.0400391 -155.341c-0.27002 -20.1252 -5.35999 -40.2248 -15.02 -57.6916
c-5.81006 -10.4209 -13.65 -19.6445 -23.03 -26.7246c-13.27 -9.7295 -27.88 -18.0762 -43.95 -21.3926c-10.76 -2.40429 -21.74 -3.43847 -32.6901 -4.44629c-9.16992 -0.890625 -18.38 -0.551758 -27.5699 -0.792969c-24.76 -0.598635 -49.53 -0.649415 -74.29 -0.362304
c-26.4399 0.30957 -52.88 0.881836 -79.25 2.80664c-11.49 0.91113 -23.01 1.9502 -34.34 4.25781c-12.16 2.43164 -23.37 8.31441 -33.86 14.9912c-15.9601 10.3096 -30.52 22.7764 -44.4901 35.8027c-9.44 8.7823 -18.37 18.1182 -27.622 27.1075
c-7.698 7.5927 -15.633 14.9121 -23.598 22.1925c-74.098 72.155 -148.143 144.362 -222.22 216.537c-3.85297 3.94498 -8.40302 7.228 -13.53 9.06699c-10.219 3.668 -21.7 1.535 -31.086 -3.63199c-5.492 -2.91901 -9.67505 -7.70901 -14.298 -11.831
c-79.969 -73.605 -159.989 -147.158 -239.955 -220.762c-17.225 -16.0821 -33.226 -33.5694 -51.051 -48.9551c-15.252 -13.1895 -31.286 -25.833 -49.484 -34.3028c-12.874 -6.13668 -27.158 -7.49508 -41.076 -8.96383
c-30.329 -2.75586 -60.797 -3.30957 -91.227 -3.69238c-20.384 -0.143555 -40.774 -0.313477 -61.153 0.195312c-9.584 0.181641 -19.167 0.331055 -28.756 0.396484c-10.876 0.421875 -21.721 1.61133 -32.5038 3.11914
c-9.85149 1.52833 -19.6914 3.80958 -28.8183 8.06058c-9.753 4.499 -18.9365 10.2968 -27.4834 16.9209c-16.4258 13.1054 -26.8399 32.873 -32.0781 53.4336c-3.07812 11.8701 -4.12109 24.2093 -3.85254 36.4673c0.2002 158.606 0.39942 317.21 0.60547 475.821
c0.15625 12.397 1.70996 25.496 8.52242 36.013c5.3633 8.32098 14.3789 13.151 23.4688 15.661c4.1269 1.16302 8.3467 1.92902 12.5928 2.43597z" />
    <glyph glyph-name="x" unicode="x" horiz-adv-x="1103" 
d="M137.748 648.858c47.236 0.229004 94.465 0.463013 141.7 0.685059c5.927 0.122986 11.834 -0.65802 17.61 -1.966c3.526 -0.847046 7.31998 -0.983032 10.532 -2.81903c4.173 -2.271 7.685 -5.53101 11.767 -7.96002c5.064 -4.00195 9.17801 -9.03998 13.98 -13.361
c47.608 -44.372 95.203 -88.747 142.811 -133.117c3.84698 -3.56 7.60199 -7.22501 11.67 -10.538c4.116 -2.95502 8.79199 -5.86401 14.058 -5.69501c5.31198 -0.0249939 9.98898 2.98099 14.097 6.03299c45.149 42.093 90.31 84.184 135.472 126.276
c8.96198 8.461 18.186 16.656 26.833 25.45c2.21796 2.12201 4.32501 4.43799 7.01898 5.99402c4.53998 2.81097 8.43799 6.89795 13.73 8.34399c7.71301 1.49701 15.419 3.50195 23.34 3.35901c86.975 -0.403015 173.949 -0.840027 260.918 -1.26404
c4.63104 0.085022 9.59601 -1.008 12.958 -4.39197c3.867 -3.87305 5.07703 -9.54901 5.27704 -14.827c0.279968 -7.46002 -2.64703 -14.755 -7.258 -20.541c-2.67603 -3.46997 -5.92004 -6.43097 -9.302 -9.19098c-41.329 -35.004 -82.657 -70.009 -123.98 -105.013
c-55.229 -46.796 -110.57 -93.458 -165.766 -140.294c-5.23297 -4.54199 -10.852 -8.72198 -15.379 -14c-2.93701 -4.00198 -5.867 -8.49399 -5.97205 -13.617c-0.234985 -6.01999 3.29004 -11.383 7.01904 -15.822c9.98895 -9.35901 20.023 -18.68 30.057 -28
c6.76398 -6.50299 14.196 -12.27 21.28 -18.42c39.771 -33.846 79.772 -67.424 119.59 -101.223c42.637 -36.111 85.274 -72.2281 127.911 -108.337c6.927 -5.8516 14.496 -11.5411 18.545 -19.8848c3.63501 -7.0234 4.28497 -15.4971 1.73297 -22.9746
c-1.31396 -3.90529 -4.14697 -7.39454 -8.01898 -9.00197c-4.36401 -1.94629 -9.25 -1.47851 -13.895 -1.55566c-82.205 -0.404297 -164.411 -0.800781 -246.617 -1.2041c-6.78296 0 -13.626 -0.325196 -20.331 0.916992c-3.89899 0.749019 -7.77802 1.55566 -11.67 2.30469
c-4.83398 1.13281 -8.54303 4.61426 -12.507 7.34865c-6.20801 3.6572 -10.683 9.4306 -15.909 14.2529c-50.519 47.0977 -101.032 94.2083 -151.577 141.278c-3.61804 3.808 -8.05301 6.90601 -13.037 8.644c-3.80099 1.12601 -8.02701 0.891006 -11.605 -0.832993
c-6.397 -2.75301 -11.245 -7.86301 -16.281 -12.485c-48.734 -45.424 -97.474 -90.8543 -146.207 -136.285c-4.409 -4.1259 -8.37997 -8.7343 -13.103 -12.5097c-5.01099 -2.91603 -9.14499 -7.37404 -14.764 -9.18361c-3.729 -0.8584 -7.50302 -1.49024 -11.245 -2.29102
c-8.634 -1.77734 -17.485 -1.03515 -26.231 -1.13867c-82.624 0.416016 -165.242 0.793945 -247.86 1.2168c-4.9384 -0.05176 -10.2304 1.53613 -13.3642 5.53906c-3.69629 4.76464 -4.52637 11.1298 -4.14746 16.9746c0.74609 9.5283 6.55469 17.8662 13.6065 24.0039
c77.1494 65.3406 154.273 130.715 231.495 195.964c11.663 9.901 23.313 19.807 34.99 29.68c5.88 4.73199 11.238 10.044 16.798 15.133c7.95401 7.492 16.045 14.84 23.955 22.384c3.54501 4.38602 6.953 9.59302 6.72403 15.458
c-0.085022 5.12201 -3.009 9.61301 -5.93301 13.623c-4.017 4.71799 -8.94901 8.51898 -13.639 12.535c-39.595 33.508 -79.118 67.105 -118.799 100.514c-57.95 49.081 -115.9 98.178 -173.85 147.253c-7.32616 5.95496 -13.6523 13.961 -15.1045 23.49
c-0.84375 6.20898 -0.18946 13.03 3.4209 18.329c3.04882 4.41901 8.63478 6.255 13.8291 6.17603c39.543 0.214966 79.086 0.383972 118.628 0.584961z" />
    <glyph glyph-name="y" unicode="y" 
d="M21.0361 647.744c86.9759 0.424011 173.95 0.859985 260.919 1.263c7.91501 0.148987 15.608 -1.86102 23.314 -3.35303c5.89999 -1.685 10.166 -6.39099 15.359 -9.39697c5.233 -4.29004 9.64801 -9.47101 14.666 -14.007
c48.191 -44.911 96.369 -89.828 144.56 -134.738c5.86099 -5.40298 11.708 -11.612 19.729 -13.643c7.43799 -1.60699 14.562 2.72101 19.729 7.63501c44.017 41.058 88.061 82.089 132.084 123.134c9.38098 8.85699 19.043 17.429 28.103 26.627
c2.13898 2.02301 4.13397 4.26898 6.68597 5.79797c3.76001 2.29803 7.005 5.37604 10.957 7.36902c3.10596 1.65198 6.698 1.797 10.073 2.59601c5.573 1.263 11.271 2.05701 17.002 1.979c86.792 -0.410034 173.577 -0.838989 260.369 -1.263
c4.78198 0.0910034 9.94299 -1.11902 13.279 -4.758c3.745 -4.06104 4.83502 -9.80103 4.935 -15.146c0.119995 -7.75806 -3.24701 -15.211 -8.23798 -21.049c-3.336 -4.10004 -7.58801 -7.30304 -11.572 -10.739c-41.421 -35.089 -82.847 -70.171 -124.268 -105.26
c-39.073 -33.168 -78.308 -66.142 -117.38 -99.311c-32.74 -27.928 -65.591 -55.734 -98.514 -83.448c-0.569031 -2.48599 -0.968994 -5.017 -0.929993 -7.57599v-255.116c-0.085022 -7.3945 0.425964 -14.8408 -0.778015 -22.1758
c-0.830017 -5.1484 -2.289 -10.4277 -5.65802 -14.5351c-2.83899 -3.44922 -7.09796 -5.31054 -11.277 -6.61816c-6.784 -2.00488 -13.908 -2.54492 -20.953 -2.69531c-71.08 0.260742 -142.152 0.456055 -213.232 0.683594
c-6.78299 0.267578 -13.789 2.36328 -18.734 7.17969c-6.064 5.81831 -8.87 14.2861 -9.086 22.5195c-0.019989 42.3008 -0.10498 84.6018 -0.143982 126.902c-0.111023 49.909 0.0709839 99.811 -0.105011 149.714c-0.0450134 0.813995 0.04599 1.60098 0.274994 2.36899
c-18.61 15.276 -36.796 31.06 -55.224 46.55c-40.386 34.25 -80.753 68.518 -121.245 102.637c-56.426 47.801 -112.86 95.588 -169.28 143.388c-7.02536 6.12402 -12.8086 14.436 -13.5674 23.932c-0.37891 5.90399 0.45215 12.34 4.23926 17.112
c3.28419 4.12701 8.81839 5.57104 13.9072 5.44104z" />
    <glyph glyph-name="z" unicode="z" 
d="M31.292 648.472c2.2422 0.416016 4.5098 0.695007 6.7842 0.72699l919.57 0.00701904c11.067 -0.0780029 22.172 -3.87299 30.608 -11.112c5.836 -4.83502 10.392 -11.393 12.126 -18.827c1.40997 -5.38104 0.880005 -10.976 0.97998 -16.474
c-0.0299683 -25.117 0.0400391 -50.241 -0.039978 -75.358c-0.390015 -11.081 -5.742 -21.329 -12.663 -29.745c-4.07501 -5.00299 -8.83197 -9.44202 -14.056 -13.217c-3.44501 -2.59299 -7.36401 -4.43298 -11.075 -6.59
c-165.572 -92.606 -331.15 -185.204 -496.722 -277.81c-4.77698 -2.944 -10.398 -4.881 -13.979 -9.41c-3.32703 -3.97099 -5.10101 -9.88499 -2.71002 -14.752c2.418 -4.71199 7.14902 -7.85699 12.081 -9.48799c7.819 -2.619 16.176 -2.177 24.305 -2.242
c143.478 -0.565994 286.954 -1.13699 430.437 -1.702c14.427 -0.0850067 28.854 -0.0720062 43.281 -0.202011c11.574 -0.337997 22.953 -5.08899 31.427 -12.945c5.875 -5.537 9.034 -13.589 8.98401 -21.615c0.0200195 -27.716 0 -55.4328 0.0100098 -83.1428
c-0.150024 -6.499 0.619995 -13.1924 -1.48804 -19.4707c-2.69 -8.623 -9.35797 -15.4336 -16.91 -20.0742c-5.77002 -3.55469 -12.581 -5.39356 -19.352 -5.04883c-307.632 0.0322265 -615.258 -0.006836 -922.89 0.0195312
c-9.9561 -0.124023 -18.9824 5.33496 -25.9492 12.0352c-6.86232 6.4267 -12.4053 15.0634 -12.6006 24.7207c-0.0644599 28.3857 0.03222 56.7656 -0.0459 85.1511c-0.34375 8.20801 2.77539 16.143 7.11621 22.973c5.02339 7.993 11.7627 15.129 20.1983 19.548
c171.225 96.069 342.445 192.151 513.664 288.227c3.37299 1.91 7.10901 3.61401 9.35101 6.92801c2.93097 4.12 2.30701 9.87799 -0.213989 14.03c-2.638 4.17899 -7.41504 6.35599 -12.061 7.448c-5.21899 1.241 -10.626 1.37698 -15.961 1.267
c-158.339 0.643982 -316.672 1.28601 -475.011 1.93701c-7.2197 0.213989 -14.7646 -0.781006 -21.6143 2.09799c-8.7998 3.59399 -16.1884 10.405 -20.9775 18.561c-2.4043 4.263 -3.78906 9.117 -3.82813 14.023c-0.20117 29.667 -0.38965 59.333 -0.58496 88.999
c-0.00585997 4.79602 -0.37695 9.69702 1.00098 14.363c3.62598 13.205 15.3047 23.823 28.8086 26.163z" />
    <glyph glyph-name="zero" unicode="0" 
d="M128.968 647.775c6.369 0.578979 12.763 0.897949 19.159 0.838989h708.354c27.538 -0.176025 55.445 -6.37604 79.278 -20.524c18.5811 -11.049 34.698 -26.302 46.78 -44.234c11.244 -16.787 17.771 -36.758 18.051 -56.997
c0.279968 -136.281 0.47998 -272.561 0.72998 -408.841c0.0999756 -14.409 -2.70898 -28.9086 -8.81799 -41.9916c-8.33099 -17.8985 -22.317 -32.6582 -38.104 -44.253c-19.302 -14.038 -42.088 -22.5839 -65.297 -27.5498
c-15.403 -3.25586 -31.151 -4.7705 -46.878 -4.85449c-230.077 0.208007 -460.147 0.422851 -690.223 0.630859c-21.629 -0.182617 -43.42 2.9375 -63.7559 10.4697c-17.0927 6.2783 -33.0097 15.669 -46.8652 27.4785c-12.7519 10.8409 -23.7031 24.0918 -30.6182 39.4239
c-5.97261 13.1015 -8.82515 27.5359 -8.81246 41.9189c-0.20117 139.523 -0.42871 279.048 -0.62402 418.571c0.03223 17.327 4.79004 34.712 14.2783 49.264c7.585 11.809 17.8467 21.72 29.2207 29.863c24.5147 17.782 54.0469 28.155 84.1448 30.786zM332.937 479.058
c-9.918 -0.416016 -19.959 -3.57501 -27.538 -10.152c-9.22098 -8.065 -15.279 -19.568 -17.02 -31.677c-0.910004 -5.634 -0.644012 -11.36 -0.657013 -17.041c0.202026 -64.548 0.410004 -129.091 0.604004 -193.635c0.150024 -12.439 2.12601 -25.418 8.98801 -36.057
c5.233 -8.241 13.759 -14.064 23.099 -16.671c10.301 -3.112 21.161 -2.424 31.775 -2.495h310.008c7.15601 0.0590057 14.422 -0.408997 21.448 1.313c9.56 2.067 18.288 7.629 24.164 15.455c6.31 8.11699 9.13 18.503 9.14301 28.687
c-0.447998 66.291 -0.849976 132.576 -1.28601 198.867c-0.182983 8.89798 0.447998 17.912 -1.53998 26.66c-2.40503 11.711 -9.04102 22.876 -19.297 29.318c-8.90997 5.621 -19.666 7.51898 -30.064 7.47998c-110.61 -0.0389709 -221.225 0.0650024 -331.827 -0.0519714z
" />
    <glyph glyph-name="one" unicode="1" horiz-adv-x="518" 
d="M417.897 441.56c0.924988 -17.568 0 -8.89999 0 -26c0 -14 -0.169006 -240.697 0.0570068 -377.218c0.747986 -19.2744 -7.58401 -34.8252 -26.473 -37.9297c-6.427 -1.09961 -12.966 -0.742187 -19.446 -0.800781
c-63.044 -0.032226 -126.1 -0.051758 -189.138 -0.051758c-20.813 0 -33.643 23.2549 -32.763 43.3427c0.0390015 124.494 0.0059967 248.98 0.0189972 373.473c0.117004 6.298 -0.292999 12.615 0.311996 18.887c-0.522995 28.561 -3.741 51.193 -33.447 50.91
c-18.018 -0.171997 21.998 1.04599 -72.561 1.29901c-22.4976 0.406982 -43.7847 9.491 -43.9218 33.409c0 30.07 -0.045898 60.148 0.025391 90.219c0.364258 10.41 1.82226 21.828 9.11523 29.856c9.29922 9.245 24.6274 10.534 40.5849 10.351
c297.117 -0.00604248 204.739 -0.30603 308.739 -0.30603c19.538 0 44.371 -0.0880127 52.621 -14.061c5.66101 -9.26904 6.31699 -20.531 6.276 -31.13c-0.0190125 -57.35 0 -101.294 0 -151.249v-13z" />
    <glyph glyph-name="two" unicode="2" 
d="M837.624 648.756c-15.0291 1.11102 -30.1 0.77301 -45.156 0.825012h-731.414c-13.126 0.0650024 -26.6221 0.29303 -39.2021 -4.01801c-5.708 -1.91101 -11 -5.55298 -13.9004 -10.948c-5.67969 -10.129 -5.81933 -22.143 -5.71972 -33.449
c0 -27.078 0.0097599 -54.162 0 -81.24c0.0097599 -7.86603 2.17675 -16.077 7.63183 -21.961c5.94142 -6.534 14.6719 -9.621 23.1894 -11.027c8.8291 -1.54599 17.8194 -0.935974 26.7325 -1.11099c210.435 -0.59201 420.868 -1.22299 631.301 -1.827
c6.71698 0.026001 13.549 0.175995 20.063 -1.70999c12.886 -3.478 24.386 -13.555 27.787 -26.7c2.29401 -9.47299 2.42505 -19.426 0.721008 -29.009c-2.24396 -13.035 -12.553 -23.704 -24.769 -28.138c-5.34497 -1.944 -11.053 -2.76898 -16.728 -2.78299
c-116.367 -0.141998 -232.733 -0.23999 -349.099 -0.395996c-51.582 0.052002 -103.169 -0.325012 -154.75 0.0969849c-29.536 0.242004 -59.252 -2.73599 -87.742 -10.72c-18.5797 -5.27298 -36.6862 -12.645 -53.0954 -22.898
c-18.5674 -11.78 -33.4424 -29.242 -42.1152 -49.442c-6.75488 -15.668 -9.65723 -32.832 -9.48731 -49.838v-113.149c0.10059 -13.399 -0.62011 -26.916 1.77637 -40.177c3.75781 -23.6526 15.3564 -45.9905 32.7021 -62.5237
c13.6055 -13.1846 30.7568 -21.9414 48.1865 -28.9365c36.4799 -14.3614 76.1109 -18.7237 115.073 -18.1455h731.323c8.87402 0.051758 17.748 -0.09082 26.623 0.078125c10.095 0.552734 20.622 1.49512 29.684 6.3584c6.19598 3.28321 9.90796 9.75783 11.793 16.3047
c1.87799 6.4043 2.41803 13.1132 2.45801 19.7646v87.1499c0.0599976 8.93201 -2.93201 18.333 -9.94696 24.223c-8.82202 7.483 -20.856 9.381 -32.058 9.81099c-213.215 0.643005 -426.425 1.235 -639.641 1.87901c-8.23099 0.22699 -16.578 -0.612 -24.698 1.09799
c-13.861 2.80901 -26.558 13.172 -30.303 27.078c-2.32098 9.40199 -2.48898 19.289 -0.863983 28.82c2.33301 14.583 14.654 26.226 28.689 29.763c5.67599 1.54701 11.593 1.69 17.431 1.58601c146.063 0.188995 292.128 0.331985 438.186 0.493988
c18.8391 -0.0709991 37.6801 0.195999 56.5161 0.397003c38.799 -0.442001 78.249 3.90701 114.552 18.256c16.812 6.77399 33.358 15.147 46.699 27.63c17.469 16.117 29.405 38.026 33.604 61.411c1.414 7.59399 2.13397 15.31 2.19397 23.034v134.603
c-0.130005 20.927 -5.17096 42.05 -16.047 60.052c-6.80701 11.416 -15.662 21.604 -26.09 29.861c-9.69299 7.76099 -20.759 13.606 -32.045 18.697c-28.34 12.619 -59.2 18.769 -90.044 20.876z" />
    <glyph glyph-name="three" unicode="3" horiz-adv-x="1104" 
d="M837.81 647.941c-15.012 1.112 -30.076 0.774048 -45.114 0.827026h-729.801c-13.2373 0.0390015 -26.8076 0.414978 -39.5644 -3.69202c-5.6797 -1.80597 -11.1709 -5.07599 -14.2783 -10.333c-5.54688 -9.06598 -6.29688 -20.075 -6.28711 -30.447
c0 -28.608 -0.0195301 -57.215 0 -85.817c0.11035 -7.948 2.54004 -16.208 8.26365 -21.946c6.3682 -6.51199 15.4658 -9.36499 24.2725 -10.606c8.2851 -1.228 16.6689 -0.669006 25.0068 -0.851013c210.347 -0.59198 420.699 -1.22198 631.046 -1.82599
c6.77698 0.0320129 13.68 0.174988 20.256 -1.76199c13.472 -3.69101 25.378 -14.68 28.055 -28.692c1.90503 -9.48199 1.87805 -19.372 -0.156006 -28.835c-3.06696 -13.069 -14.154 -23.35 -26.847 -27.048c-5.854 -1.78699 -12.022 -2.099 -18.098 -1.96298
c-211.647 -0.253021 -423.285 -0.487 -634.925 -0.695007c-9.4297 -0.0840149 -18.9043 0.278992 -28.2754 -1.026c-6.6289 -0.929993 -13.4473 -2.30099 -19.1719 -5.95999c-4.5039 -2.88501 -7.21679 -7.871 -8.37597 -12.985
c-1.55078 -6.17999 -0.9707 -12.58 -1.05078 -18.886v-63.694c-0.2793 -10.586 1.70019 -22.57 10.3291 -29.68c4.0429 -3.177 9.0527 -4.802 14.0244 -5.82898c9.1972 -1.884 18.6318 -1.50201 27.958 -1.541h644.056c7.59796 0.0139923 15.279 -2.01401 21.589 -6.31601
c8.56 -5.862 14.928 -14.935 17.229 -25.085c2.28101 -10.353 2.41699 -21.18 0.442017 -31.598c-1.56604 -8.064 -5.53705 -15.623 -11.236 -21.543c-4.38098 -4.69901 -10.074 -8.215 -16.339 -9.743c-4.66602 -1.24701 -9.53302 -1.188 -14.324 -1.103
c-215.759 0.850998 -431.519 1.72099 -647.279 2.57999c-8.5127 0.0780029 -17.1114 -0.0659943 -25.4551 -1.95c-4.667 -1.08499 -9.3721 -2.68399 -13.1348 -5.75099c-4.13865 -3.457 -6.20896 -8.735 -7.13865 -13.915c-1.11035 -5.784 -0.62988 -11.677 -0.76074 -17.52
c-0.23926 -29.8877 -0.42969 -59.7696 -0.68945 -89.6514c-0.16016 -4.6524 0.14941 -9.377 1.57031 -13.8359c1.93945 -6.1407 6.03125 -11.8399 11.9267 -14.7002c6.9922 -3.47656 14.9658 -4.2041 22.668 -4.32812
c256.701 -0.220703 513.403 -0.421875 770.105 -0.636719c23.025 0.110352 46.09 1.37793 68.868 4.84863c20.263 3.13184 40.403 7.97365 59.223 16.2265c17.567 7.708 34.067 18.8018 45.836 34.1387c13.577 17.3642 19.648 39.6299 19.768 61.4585v402.308
c-0.119995 22.0439 -5.78198 44.309 -17.838 62.901c-6.85498 10.762 -15.603 20.316 -25.734 28.076c-9.495 7.32996 -20.205 12.899 -31.123 17.794c-28.191 12.458 -58.847 18.541 -89.495 20.632z" />
    <glyph glyph-name="four" unicode="4" horiz-adv-x="1104" 
d="M69 253c-7.5986 -0.324005 -32.3985 0.718994 -49 14c-15 12 -15.7861 38.186 -16 47c-0.0459001 65.861 0 7 -0.38477 164.264c-0.05761 23.739 0.17383 6.215 0.21875 134.499c-0.32519 8.125 1.28711 16.679 6.31832 23.264
c3.5362 4.88904 9.003 8.17804 14.8731 9.41205c5.2978 1.30096 10.7773 0.753967 16.166 0.884949c64.3596 0.195007 128.719 0.403015 193.079 0.605042c9.97699 0.154968 20.164 0.200989 29.823 -2.62c5.246 -1.521 10.537 -4.31702 13.17 -9.33405
c4.823 -8.95197 4.64001 -19.489 4.53699 -29.37v-178.1c-0.0390015 -4.992 1.20901 -10.037 3.88101 -14.281c2.521 -4.08301 6.16199 -7.366 10.178 -9.927c7.70999 -4.888 16.486 -8.164 25.573 -9.211c4.056 -0.526001 8.15799 -0.389984 12.24 -0.402008
c113.762 -0.00698853 227.53 0.00500488 341.292 -0.00698853c12.877 0.0579834 26.124 2.70401 37.077 9.75699c5.83099 3.71201 10.491 9.379 12.513 16.036c2.18396 6.57199 1.39099 13.566 1.56696 20.366c0.189026 53.088 0.370056 106.176 0.56604 159.269
c-0.0200195 4.33002 0.154968 8.672 -0.208008 12.995c-0.416992 8.49603 1.03302 17.661 6.68097 24.35c5.72803 6.59796 14.171 10.31 22.687 11.649c7.00702 1.16302 14.137 0.596985 21.21 0.669006c61.961 -0.397034 123.922 -0.786987 185.882 -1.19
c2.80798 0.0200195 5.58295 0.651001 8.41199 0.53302c10.14 0 20.15 -5.04401 26.164 -13.202c3.97498 -5.47198 5.69501 -12.278 5.95496 -18.961c-0.159973 -32.482 -0.0299683 -64.977 -0.0699463 -97.466v-480.338
c0.339966 -6.6631 0.0699463 -13.5332 -2.46002 -19.7998c-4.49902 -11.5704 -16.673 -19.2276 -28.919 -19.4815c-3.05597 -0.18847 -6.05902 0.48145 -9.08801 0.520512c-65.868 -0.416012 -131.735 -0.858402 -197.609 -1.25488
c-11.402 -0.07129 -23.563 3.12012 -31.559 11.6943c-5.987 6.54493 -7.651 15.8339 -7.31299 24.4277c0.454956 5.9023 0.175964 11.8242 0.214966 17.7324c-0.195007 55.1816 -0.383972 110.363 -0.578979 165.543c-0.0449829 6.87801 -2.09302 13.866 -6.474 19.242
c-5.12299 6.343 -12.676 10.16 -20.249 12.779c-8.48199 2.795 -17.466 3.881 -26.372 3.73099h-345.119c-12.546 -0.0779877 -157.913 -0.168991 -258.874 -0.276993z" />
    <glyph glyph-name="five" unicode="5" 
d="M165.307 649.225c15.03 1.11102 30.1 0.77301 45.157 0.825012h731.414c13.126 0.0650024 26.622 0.29303 39.202 -4.01801c5.70801 -1.91101 11 -5.55298 13.9 -10.948c5.67999 -10.129 5.82001 -22.144 5.72003 -33.449v-81.24
c-0.0100098 -7.867 -2.177 -16.078 -7.63202 -21.961c-5.94098 -6.535 -14.672 -9.62198 -23.189 -11.027c-8.82904 -1.54703 -17.82 -0.936005 -26.733 -1.11102c-210.434 -0.59198 -420.868 -1.22299 -631.301 -1.827c-6.716 0.026001 -13.548 0.175995 -20.063 -1.70999
c-12.886 -3.479 -24.386 -13.555 -27.786 -26.7c-2.29501 -9.47299 -2.42599 -19.426 -0.722015 -29.009c2.24402 -13.035 12.554 -23.704 24.77 -28.138c5.34399 -1.944 11.052 -2.76898 16.727 -2.78299c116.367 -0.143005 232.734 -0.23999 349.1 -0.397003
c51.5811 0.053009 103.169 -0.324005 154.75 0.0979919c29.535 0.241028 59.252 -2.73599 87.741 -10.721c18.58 -5.272 36.687 -12.644 53.096 -22.897c18.567 -11.78 33.442 -29.242 42.115 -49.442c6.755 -15.668 9.65698 -32.832 9.487 -49.838v-113.149
c-0.0999756 -13.399 0.619995 -26.916 -1.776 -40.178c-3.758 -23.6519 -15.356 -45.9898 -32.702 -62.523c-13.606 -13.1845 -30.757 -21.9414 -48.187 -28.9365c-36.479 -14.3613 -76.111 -18.7236 -115.073 -18.1455h-731.322
c-8.874 0.0517578 -17.748 -0.0908203 -26.623 0.078125c-10.0958 0.552734 -20.6221 1.49512 -29.6846 6.3584c-6.19533 3.28321 -9.90822 9.75778 -11.793 16.3047c-1.87304 6.4043 -2.41894 13.1133 -2.458 19.7647c-0.00585997 29.0468 0.0068301 58.0951 0 87.1491
c-0.0585999 8.933 2.93261 18.333 9.94729 24.224c8.8222 7.48199 20.8564 9.381 32.0576 9.81c213.216 0.643997 426.426 1.23601 639.642 1.879c8.22998 0.228012 16.578 -0.610992 24.698 1.09901c13.86 2.80899 26.558 13.172 30.303 27.078
c2.32001 9.401 2.48901 19.289 0.864014 28.819c-2.33398 14.583 -14.654 26.227 -28.69 29.764c-5.67499 1.547 -11.592 1.69 -17.43 1.586c-146.064 0.188995 -292.128 0.332001 -438.187 0.494003c-18.839 -0.0709991 -37.68 0.195999 -56.515 0.396988
c-38.799 -0.442993 -78.249 3.90701 -114.552 18.256c-16.8125 6.77399 -33.3584 15.147 -46.6992 27.629c-17.4688 16.118 -29.4053 38.027 -33.6045 61.412c-1.41113 7.59302 -2.13281 15.31 -2.19141 23.034v134.602c0.12989 20.928 5.16895 42.051 16.0449 60.053
c6.8066 11.416 15.6621 21.604 26.0899 29.86c9.6933 7.76202 20.7587 13.607 32.0449 18.698c28.3393 12.619 59.2003 18.769 90.0433 20.876z" />
    <glyph glyph-name="six" unicode="6" 
d="M141.089 0.0966797c6.79199 -0.539063 13.609 -0.825196 20.421 -0.805664c211.224 0.195312 422.449 0.442382 633.673 0.682617c30.845 -0.0917968 61.873 -0.176758 92.419 4.70508c14.188 2.33203 28.174 5.95999 41.66 10.957
c18.419 6.8184 35.934 17.4512 48.257 32.9961c12.732 16.1514 20.628 35.9287 23.281 56.2782c1.16998 8.592 1.58002 17.281 1.42999 25.944c0.140015 52.411 0.550049 104.819 0.650024 157.23c-0.299988 12.706 -2.03003 25.508 -6.48199 37.467
c-6.91998 18.309 -19.991 34.537 -37.305 43.915c-10.84 5.93399 -22.701 9.72299 -34.686 12.545c-12.803 2.95001 -25.769 5.15903 -38.806 6.72601c-18.563 2.24799 -37.267 2.93701 -55.94 3.491c-15.169 0.565002 -30.332 0.181 -45.507 0.265015
c-107.029 -0.00601196 -214.058 0.019989 -321.088 -0.0130005c-8.83801 0.59198 -17.723 0.175995 -26.582 0.298981h-109.869c-6.707 -0.0119934 -13.433 -0.0449829 -20.115 0.612c-13.238 1.46201 -25.555 9.755 -31.723 21.584
c-3.55402 6.75299 -4.13901 14.505 -4.63901 21.98c0.122986 58.935 0.169006 117.876 0.303986 176.811c-0.173981 9.29999 -2.56598 19.283 -9.586 25.86c-6.99998 6.44104 -16.943 8.09204 -26.12 8.27301c-64.485 0.0460205 -128.977 -0.0249634 -193.468 0.0390015
c-8.1436 0.682983 -16.6905 -1.34399 -23.0332 -6.65497c-8.501 -7.13605 -13.8047 -17.768 -15.0264 -28.745c-0.52637 -4.12103 -0.2666 -8.28003 -0.30567 -12.414c-0.00682998 -142.782 0 -285.562 0 -428.344c0.02637 -14.279 -0.0585899 -28.557 0.0459001 -42.83
c0.44141 -23.741 6.02442 -47.9002 19.1983 -67.9041c6.3105 -9.6768 14.2461 -18.2686 23.2344 -25.5156c12.9795 -10.4307 27.7392 -18.5938 43.3632 -24.333c16.8009 -6.19437 34.5239 -9.65726 52.3449 -11.1006zM306.013 164.937
c-11.933 0.480011 -22.819 7.57001 -29.298 17.398c-5.48599 7.916 -7.15601 17.743 -7.35098 27.192c-0.03302 6.181 0.551971 12.439 2.48297 18.341c2.27402 6.88301 6.66202 12.98 12.212 17.613c6.03799 5.05 13.94 7.5 21.753 7.62999
c11.698 0.0720062 23.397 0.052002 35.102 0.0980072c17.762 -0.052002 35.524 0.389999 53.287 0.376999c16.677 0.384003 33.366 0.0390015 50.05 0.110001c83.847 -0.188995 167.693 -0.376999 251.539 -0.533005c6.29199 -0.116989 12.72 0.376999 18.829 -1.46199
c7.72797 -2.047 14.311 -7.23401 18.944 -13.656c6.37103 -8.48599 8.00104 -19.477 7.70898 -29.837c-0.292969 -6.362 -1.125 -12.816 -3.53595 -18.757c-5.40704 -13.186 -18.093 -23.715 -32.626 -24.483c-12.004 -0.279007 -24.014 -0.0189972 -36.025 -0.0709991
c-83.184 0.14299 -166.36 0.298996 -249.544 0.442001c-1.52698 -0.0850067 -3.03497 -0.376999 -4.56198 -0.332001c-36.325 0.0529938 -72.648 -0.259003 -108.966 -0.0700073z" />
    <glyph glyph-name="seven" unicode="7" horiz-adv-x="1104" 
d="M979.34 0.296875c-2.69501 -0.436523 -5.43103 -0.677734 -8.16602 -0.709961c-63.393 -0.006836 -126.786 0.00585899 -190.187 -0.006836c-8.52197 0.051758 -17.497 0.800781 -25.038 5.15039c-7.92499 4.74121 -11.772 14.209 -12.053 23.1435l0.00598145 408.952
c0.314026 10.08 -0.95697 20.643 -6.336 29.388c-5.91901 9.612 -16.389 15.883 -27.394 17.804c-5.185 1.022 -10.479 0.911987 -15.734 0.917999c-216.186 0.638 -432.375 1.25598 -648.562 1.901c-10.2432 0.182983 -21.0332 1.61499 -29.7207 7.457
c-5.5811 3.72501 -9.57132 9.59799 -11.2481 16.071c-1.75977 6.14801 -1.32911 12.6 -1.36914 18.923c0 26.263 -0.0107501 52.5309 0 78.7939c0.0790999 7.25403 0.76953 14.619 3.18847 21.502c1.81055 5.06 4.75294 9.95001 9.29294 12.991
c4.544 3.04102 9.8907 4.61096 15.2051 5.67902c8.042 1.54297 16.2539 1.927 24.4199 1.862h712.314c17.374 -0.0390015 34.74 0.0839844 52.107 -0.0720215c24.479 -0.403015 49.002 -3.08002 72.757 -9.10901c19.407 -4.94299 38.291 -12.21 55.593 -22.349
c15.505 -9.14899 28.848 -21.978 38.31 -37.314c9.42804 -15.009 14.655 -32.416 16.215 -50.009c0.809998 -8.01099 0.52002 -16.073 0.559998 -24.109c-0.210022 -156.727 -0.419983 -313.449 -0.609985 -470.17c0.72998 -8.4854 0.76001 -17.6934 -3.95502 -25.1485
c-4.16797 -6.79195 -11.95 -10.3662 -19.595 -11.539z" />
    <glyph glyph-name="eight" unicode="8" horiz-adv-x="1100" 
d="M819 0c13.041 -0.0908203 33.115 -0.00585938 46.098 1.43848c16.229 1.69824 32.316 4.99121 47.804 10.1582c22.009 7.1387 42.691 18.9961 58.881 35.6426c6.93799 7.08 13.171 14.915 17.922 23.6347c6.59296 11.916 10.395 25.2949 11.475 38.851
c0.51001 5.831 0.340027 11.681 0.369995 17.525v96.97c-0.209961 12.995 0.790039 26.134 -1.69897 38.98c-4.198 23.603 -17.18 45.045 -34.309 61.549c18.026 17.421 31.478 40.32 34.928 65.388c1.41003 9.04602 1.03003 18.215 1.08002 27.332v108.683
c0.0100098 14.324 -2.93597 28.647 -8.70801 41.7531c-8.414 19.2419 -22.405 35.5829 -38.46 48.917c-18.352 15.215 -40.659 25.446 -64.034 29.981c-13.869 2.81104 -43.2271 1.44501 -57.348 1.19702h-331.422h-332c-14.121 0.247986 -42.935 0.86499 -56.805 -1.94598
c-23.3746 -4.53503 -45.6812 -14.766 -64.0347 -29.981c-16.0547 -13.334 -30.0449 -29.676 -38.459 -48.917c-5.77149 -13.106 -8.71875 -27.429 -8.70899 -41.753v-108.683c0.0507801 -9.117 -0.33008 -18.286 1.08008 -27.332
c3.45117 -25.068 16.9023 -47.967 34.9277 -65.388c-17.1289 -16.504 -30.1093 -37.946 -34.3086 -61.549c-2.48828 -12.847 -1.48828 -25.985 -1.69922 -38.98v-96.97c0.03125 -5.844 -0.13867 -11.694 0.3711 -17.525c1.08007 -13.5561 4.88086 -26.935 11.4746 -38.851
c4.75 -8.7197 10.9844 -16.5547 17.9219 -23.6348c16.1894 -16.6464 36.8711 -28.5039 58.8809 -35.6425c15.4882 -5.16704 31.5742 -8.46 47.8042 -10.1582c12.983 -1.44434 26.057 -1.5293 39.098 -1.43848c121.879 0.749023 162.879 0.749023 278.879 0.749023h192h49
h122zM338.477 479.642c134.557 0.277008 338.832 1.20499 345.02 -0.299011c10.379 -2.14099 19.711 -8.57098 25.666 -17.304c5.362 -7.841 6.755 -17.675 6.48199 -26.98c-0.457031 -8.06299 -2.32404 -16.34 -7.28302 -22.894
c-5.71399 -7.75 -14.108 -13.574 -23.506 -15.839c-6.38904 -1.67999 -211.674 -1.89099 -347.01 -2.168c-7.65701 -0.0149841 -13.192 -0.260986 -19.58 1.41901c-9.39899 2.26501 -17.793 8.08899 -23.506 15.839c-4.95901 6.55402 -6.82602 14.831 -7.28302 22.894
c-0.273987 9.30499 1.11902 19.139 6.48001 26.98c5.95499 8.733 15.287 15.163 25.666 17.304c6.18903 1.504 11.489 1.03201 18.854 1.048zM346.994 254.062c9.22302 0.697998 321.32 0.899002 327.411 0.542007c10.491 0.110001 21.151 -3.35901 28.998 -10.446
c5.32996 -4.606 9.547 -10.613 11.545 -17.407c1.94 -6.96301 2.75702 -18.553 1.23999 -25.679c-2.15302 -14.974 -14.459 -27.247 -28.789 -31.197c-6.29297 -1.868 -214.886 -2.347 -352.278 -2.62399c-7.60001 -0.0160065 -13.105 0.00698853 -19.398 1.875
c-14.33 3.95 -26.637 16.223 -28.789 31.197c-1.51801 7.12601 -0.701996 18.716 1.24002 25.679c1.99799 6.79401 6.215 12.801 11.545 17.407c7.845 7.08701 18.506 10.556 28.998 10.445c6.09 0.358002 12.187 0.156998 18.277 0.207993z" />
    <glyph glyph-name="nine" unicode="9" 
d="M864.558 648.149c-6.79199 0.539001 -13.61 0.825989 -20.42 0.80603c-211.226 -0.195007 -422.45 -0.442017 -633.674 -0.683044c-30.846 0.0910034 -61.873 0.176025 -92.419 -4.70496c-14.189 -2.33301 -28.1749 -5.96002 -41.6593 -10.958
c-18.4199 -6.81702 -35.9355 -17.45 -48.2578 -32.996c-12.7324 -16.15 -20.6289 -35.927 -23.2773 -56.277c-1.16993 -8.59302 -1.58008 -17.281 -1.43067 -25.944c-0.13965 -52.411 -0.5498 -104.82 -0.64941 -157.23c0.2998 -12.706 2.02929 -25.509 6.47754 -37.468
c6.92085 -18.308 19.9913 -34.537 37.3056 -43.915c10.8399 -5.93298 22.7012 -9.72198 34.6856 -12.544c12.8037 -2.95099 25.7697 -5.15997 38.8067 -6.72598c18.562 -2.24802 37.266 -2.93799 55.939 -3.48999c15.169 -0.56601 30.332 -0.182007 45.507 -0.266006
c107.029 0.0059967 214.059 -0.0200043 321.088 0.0130005c8.83899 -0.59201 17.725 -0.17601 26.582 -0.299011h109.869c6.70697 0.0120087 13.434 0.0449982 20.115 -0.612c13.24 -1.461 25.555 -9.754 31.723 -21.584c3.55499 -6.752 4.13995 -14.505 4.63995 -21.98
c-0.121948 -58.935 -0.168945 -117.876 -0.304993 -176.811c0.175049 -9.3008 2.56702 -19.2832 9.586 -25.8604c7 -6.44141 16.943 -8.0918 26.12 -8.27344c64.486 -0.045899 128.979 0.02539 193.469 -0.039063c8.14294 -0.682617 16.6899 1.34472 23.033 6.65527
c8.50104 7.13571 13.808 17.7685 15.028 28.7451c0.52002 4.1211 0.27002 8.2803 0.299988 12.4141v428.344c-0.0200195 14.279 0.0599976 28.557 -0.039978 42.83c-0.440002 23.741 -6.026 47.899 -19.2 67.904c-6.31097 9.677 -14.246 18.269 -23.234 25.516
c-12.98 10.43 -27.74 18.594 -43.364 24.333c-16.8 6.19397 -34.5229 9.65698 -52.344 11.1zM699.634 483.31c11.932 -0.480988 22.8181 -7.57199 29.298 -17.399c5.48499 -7.91602 7.15601 -17.743 7.34998 -27.192c0.03302 -6.181 -0.552002 -12.44 -2.48199 -18.341
c-2.27496 -6.883 -6.66101 -12.98 -12.212 -17.613c-6.03802 -5.05002 -13.941 -7.5 -21.753 -7.63c-11.697 -0.0720215 -23.397 -0.052002 -35.103 -0.0980225c-17.76 0.052002 -35.524 -0.389984 -53.287 -0.377991
c-16.676 -0.382996 -33.366 -0.0379944 -50.049 -0.109009c-83.847 0.188019 -167.694 0.377014 -251.54 0.53302c-6.29199 0.115997 -12.718 -0.377014 -18.829 1.46201c-7.72702 2.047 -14.31 7.233 -18.944 13.655c-6.37 8.48798 -8.00101 19.478 -7.70901 29.838
c0.292999 6.362 1.125 12.816 3.53601 18.757c5.40698 13.186 18.094 23.715 32.626 24.482c12.004 0.279999 24.015 0.019989 36.026 0.071991c83.183 -0.143005 166.36 -0.299011 249.543 -0.442993c1.52802 0.0849915 3.03601 0.377991 4.56305 0.332001
c36.324 -0.0509949 72.647 0.259979 108.966 0.071991z" />
    <glyph glyph-name="period" unicode="." horiz-adv-x="362" 
d="M26.3936 160.217c6.5576 1.04701 13.2138 0.734009 19.8242 0.779999c60.7242 -0.00698853 121.453 0.00700378 182.178 -0.00698853c8.659 -0.201004 18.042 -2.048 24.397 -8.392c6.01901 -5.98601 7.651 -14.919 7.33899 -23.104
c-0.649994 -8.009 0.104004 -14.971 0 -23l-0.0579834 -74.3397c-0.00601196 -7.4043 -1.177 -15.1865 -5.724 -21.2041c-2.571 -3.61133 -6.32501 -6.24024 -10.444 -7.80176c-6.961 -2.66113 -14.515 -3.19434 -21.906 -3.14844c-61.804 0.00585938 -123.613 0 -185.423 0
c-6.8125 -0.136719 -13.7998 0.40918 -20.1503 3.03809c-4.4434 1.82812 -8.43852 4.87304 -11.0411 8.93941c-3.24023 4.9903 -4.38476 11.0411 -4.46972 16.917c-0.124024 3.6953 0.383784 7.3623 0.371094 11.0674l-0.27539 82.3561
c0.11719 5.407 -0.442384 10.872 0.69629 16.207c1.17187 5.933 4.11914 11.652 8.80369 15.549c4.5147 3.631 10.2471 5.26399 15.8819 6.14299z" />
    <glyph glyph-name="comma" unicode="," horiz-adv-x="362" 
d="M26.3936 160.217c6.5576 1.04701 13.2138 0.734009 19.8242 0.779999c60.7242 -0.00698853 121.453 0.00700378 182.178 -0.00698853c8.659 -0.201004 18.042 -2.048 24.397 -8.392c6.01901 -5.98601 7.651 -14.919 7.33899 -23.104
c-0.649994 -8.009 0.0240173 -14.974 0 -23l-0.743988 -247.663c-0.00601196 -7.40399 -1.17801 -15.186 -5.72501 -21.204c-2.571 -3.61099 -6.325 -6.24001 -10.443 -7.802c-6.96201 -2.661 -14.516 -3.194 -21.907 -3.14799c-61.804 0.0059967 -123.613 0 -185.422 0
c-6.8125 -0.137009 -13.7998 0.408997 -20.1504 3.03799c-4.4433 1.828 -8.43844 4.873 -11.041 8.93901c-3.24024 4.991 -4.38477 11.041 -4.46973 16.917c-0.124023 3.696 0.383789 7.36301 0.371094 11.068l0.411134 255.679
c0.00879002 5.405 -0.442384 10.872 0.69629 16.207c1.17187 5.933 4.11914 11.652 8.80369 15.549c4.5147 3.631 10.2471 5.26399 15.8819 6.14299z" />
    <glyph glyph-name="colon" unicode=":" horiz-adv-x="362" 
d="M27.7998 508.48c6.5576 1.048 13.2139 0.734985 19.8242 0.781982c60.724 -0.00799561 120.868 0.139008 181.591 0.126007c8.66 -0.200989 18.043 -2.047 24.398 -8.392c6.01999 -5.98502 7.651 -14.92 7.34 -23.104
c-0.652008 -8.008 -0.348999 -16.066 -0.332001 -24.092l0.940002 -55.382c0.126984 -7.40298 -1.17599 -15.185 -5.72301 -21.203c-2.57199 -3.61099 -6.326 -6.23999 -10.445 -7.80301c-6.961 -2.66098 -14.514 -3.19299 -21.905 -3.14697
c-61.804 0.00598145 -123.028 -0.134003 -184.838 -0.134003c-6.8125 -0.138 -13.7998 0.40799 -20.1504 3.03799c-4.4434 1.827 -8.4385 4.87299 -11.041 8.939c-3.24023 4.992 -4.38476 11.042 -4.46972 16.917c-0.12403 3.69601 0.4248 7.36099 0.37109 11.068
l-0.94238 64.489c-0.01074 5.405 -0.44238 10.872 0.69629 16.206c1.17187 5.935 4.11914 11.653 8.80374 15.55c4.5146 3.63098 10.247 5.26398 15.8818 6.142zM27.7998 278.48c6.5576 1.04898 13.2139 0.734985 19.8242 0.781982
c60.724 -0.00799561 120.868 0.139008 181.591 0.126007c8.66 -0.200989 18.043 -2.047 24.398 -8.392c6.01999 -5.98502 7.651 -14.92 7.34 -23.104c-0.652008 -8.008 -0.348999 -16.066 -0.332001 -24.092l0.940002 -55.382
c0.126984 -7.403 -1.17599 -15.185 -5.72301 -21.203c-2.57199 -3.61099 -6.326 -6.23999 -10.445 -7.80299c-6.961 -2.661 -14.514 -3.19301 -21.905 -3.147c-61.804 0.0059967 -123.028 -0.134003 -184.838 -0.134003
c-6.8125 -0.136993 -13.7998 0.408997 -20.1504 3.03801c-4.4434 1.82799 -8.4385 4.873 -11.041 8.939c-3.24023 4.992 -4.38476 11.042 -4.46972 16.917c-0.12403 3.696 0.4248 7.36101 0.37109 11.068l-0.94238 64.489c-0.01074 5.40601 -0.44238 10.873 0.69629 16.207
c1.17187 5.93399 4.11914 11.652 8.80374 15.549c4.5146 3.63098 10.247 5.26398 15.8818 6.142z" />
    <glyph glyph-name="hyphen" unicode="-" horiz-adv-x="598" 
d="M27.7266 396.35c6.5576 1.048 13.2138 0.734009 19.8242 0.781006c60.7232 -0.00802612 355.922 -0.144012 416.645 -0.157013c8.659 -0.201996 18.042 -2.047 24.399 -8.392c6.01801 -5.98502 7.64999 -14.92 7.33899 -23.104
c-0.651978 -8.008 -0.349976 -16.066 -0.332001 -24.092l0.940002 -55.382c0.126007 -7.40298 -1.177 -15.185 -5.724 -21.203c-2.57098 -3.612 -6.32498 -6.23999 -10.444 -7.80301c-6.961 -2.66098 -14.515 -3.19299 -21.905 -3.14699
c-61.805 0.00500488 -358.082 0.149002 -419.892 0.149002c-6.8125 -0.136993 -13.7998 0.408997 -20.1503 3.03799c-4.4434 1.828 -8.43852 4.87302 -11.0411 8.94c-3.24023 4.991 -4.38476 11.042 -4.46972 16.917c-0.12403 3.69501 0.4248 7.36002 0.37109 11.067
l-0.94238 64.489c-0.0107498 5.40601 -0.44239 10.873 0.69629 16.207c1.17187 5.93402 4.11914 11.653 8.80368 15.549c4.5147 3.63101 10.2471 5.26401 15.8819 6.14301z" />
    <glyph glyph-name="slash" unicode="/" horiz-adv-x="797" 
d="M471.047 649.22c6.55701 1.04706 13.214 0.734009 19.824 0.780029c60.724 -0.00799561 111.525 0.0770264 172.249 0.0620117c8.659 -0.200012 18.042 -2.047 24.398 -8.39099c6.01898 -5.98602 9.414 -15.486 9.10199 -23.671
c-0.651001 -8.01001 1.85498 -16.54 -2.09497 -23.526l-433.498 -562.32c-4.52902 -5.875 -12.608 -14.6367 -17.156 -20.6543c-2.57001 -3.61133 -5.881 -7.43848 -10 -9c-6.961 -2.66113 -12.609 -2.5459 -20 -2.5c-61.804 0.00585938 -114.531 0 -176.341 0
c-6.8125 -0.136719 -13.8008 0.40918 -20.1504 3.03809c-4.4444 1.82812 -8.43849 4.87304 -11.041 8.93941c-3.24121 4.9903 -5.80078 9.1465 -5.88575 15.0225c-0.124023 3.6953 -0.445312 10.0195 1.78711 12.9619l433.497 571.429
c2.62799 4.72198 7.108 10.07 10.134 14.609c6 9 8.491 12.533 13.177 16.43c4.51401 3.63098 6.36398 5.91101 11.999 6.78998z" />
    <glyph glyph-name="space" unicode=" " horiz-adv-x="600" 
 />
    <glyph glyph-name="equal" unicode="=" horiz-adv-x="597" 
d="M27.7998 508.48c6.5576 1.048 13.2139 0.734985 19.8242 0.781982c60.724 -0.00799561 355.922 -0.143982 416.646 -0.15799c8.659 -0.200989 18.042 -2.04599 24.398 -8.39099c6.01901 -5.98502 7.64999 -14.92 7.33899 -23.105
c-0.651978 -8.00699 -0.349976 -16.065 -0.332001 -24.091l0.940002 -55.382c0.126007 -7.40402 -1.177 -15.185 -5.72299 -21.203c-2.57199 -3.612 -6.32599 -6.241 -10.445 -7.80301c-6.961 -2.66101 -14.514 -3.19299 -21.905 -3.14801
c-61.805 0.00601196 -358.082 0.150024 -419.892 0.150024c-6.8125 -0.138 -13.7998 0.40799 -20.1504 3.03799c-4.4434 1.827 -8.4385 4.87299 -11.041 8.939c-3.24023 4.992 -4.38476 11.042 -4.46972 16.917c-0.12403 3.69601 0.4248 7.36099 0.37109 11.068
l-0.94238 64.489c-0.01074 5.405 -0.44238 10.872 0.69629 16.206c1.17187 5.935 4.11914 11.653 8.80374 15.55c4.5146 3.63098 10.247 5.26398 15.8818 6.142zM27.7998 278.48c6.5576 1.04898 13.2139 0.734985 19.8242 0.781982
c60.724 -0.00799561 355.922 -0.143982 416.646 -0.15799c8.659 -0.200989 18.042 -2.04599 24.398 -8.39099c6.01901 -5.98502 7.64999 -14.92 7.33899 -23.105c-0.651978 -8.007 -0.349976 -16.065 -0.332001 -24.091l0.940002 -55.382
c0.126007 -7.40399 -1.177 -15.185 -5.72299 -21.203c-2.57199 -3.612 -6.32599 -6.24101 -10.445 -7.80301c-6.961 -2.661 -14.514 -3.19299 -21.905 -3.14799c-61.805 0.0059967 -358.082 0.149994 -419.892 0.149994
c-6.8125 -0.136993 -13.7998 0.408997 -20.1504 3.03801c-4.4434 1.82799 -8.4385 4.873 -11.041 8.939c-3.24023 4.992 -4.38476 11.042 -4.46972 16.917c-0.12403 3.696 0.4248 7.36101 0.37109 11.068l-0.94238 64.489c-0.01074 5.40601 -0.44238 10.873 0.69629 16.207
c1.17187 5.93399 4.11914 11.652 8.80374 15.549c4.5146 3.63098 10.247 5.26398 15.8818 6.142z" />
    <glyph glyph-name="question" unicode="?" horiz-adv-x="942" 
d="M26.3936 160.217c6.5576 1.04701 13.2138 0.734009 19.8242 0.779999c60.7242 -0.00698853 121.453 0.00700378 182.178 -0.00698853c8.659 -0.201004 18.042 -2.048 24.397 -8.392c6.01901 -5.98601 7.651 -14.919 7.33899 -23.104
c-0.649994 -8.009 0.104004 -14.971 0 -23l-0.0579834 -74.3397c-0.00601196 -7.4043 -1.177 -15.1865 -5.724 -21.2041c-2.571 -3.61133 -6.32501 -6.24024 -10.444 -7.80176c-6.961 -2.66113 -14.515 -3.19434 -21.906 -3.14844c-61.804 0.00585938 -123.613 0 -185.423 0
c-6.8125 -0.136719 -13.7998 0.40918 -20.1503 3.03809c-4.4434 1.82812 -8.43852 4.87304 -11.0411 8.93941c-3.24023 4.9903 -4.38476 11.0411 -4.46972 16.917c-0.124024 3.6953 0.383784 7.3623 0.371094 11.0674l-0.27539 82.3561
c0.11719 5.407 -0.442384 10.872 0.69629 16.207c1.17187 5.933 4.11914 11.652 8.80369 15.549c4.5147 3.631 10.2471 5.26399 15.8819 6.14299zM40 255c89.942 0.0890045 175.061 0 265.764 0c2.78101 0 13.408 0.0130005 20.115 0
c36.623 0 73.246 0.119995 109.869 0.119995c8.858 0.123001 17.743 -0.292999 26.582 0.299011c107.029 -0.0320129 54.159 0.587006 161.189 0.580994c106.28 0.588013 216.213 -1.91299 218.721 104.409c-0.098999 52.411 -0.51001 104.82 -0.649963 157.23
c1.37097 78.976 -46.153 114.918 -114.625 126.176c-30.546 4.88098 -61.572 4.79602 -92.419 4.70502c-211.223 0.23999 -377.821 -0.715027 -589.046 -0.52002c-6.8105 0.0200195 -17.2223 -2.88898 -23 -6.5c-16 -10 -19.5 -24 -19.5 -36.5
c0 -16.645 0.16672 -59.503 0.5 -78.5c0.5 -28.5 18 -43.5 46 -43.5h204c54.79 0 106.136 -0.186005 160.742 -0.108002c1.52798 0.0450134 3.035 -0.247009 4.56299 -0.332001c83.183 0.143005 6.461 0.893005 89.644 1.03601
c12.01 -0.052002 24.022 0.207977 36.026 -0.0710144c39.58 -2.09299 52.938 -75.228 9.508 -86.733c-6.10999 -1.83899 -12.537 -1.345 -18.829 -1.46201c-83.845 -0.155975 -7.79297 -0.937988 -91.639 -1.12698c-16.684 0.0709839 -285.838 -0.585999 -302.515 -0.203003
c-17.763 -0.0119934 -35.526 0.428986 -53.2871 0.377014c-26.4998 0.103973 -61.3596 5.879 -76.7129 -10.377c-8.5 -9 -8.5 -18.5 -8.5 -29.5c-1.01555 -25.389 0 -46.981 0 -64c0 -26.651 16.234 -33.373 37.5 -35.5z" />
    <glyph glyph-name="exclam" unicode="!" horiz-adv-x="362" 
d="M26.3936 160.217c6.5576 1.04701 13.2138 0.734009 19.8242 0.779999c60.7242 -0.00698853 121.453 0.00700378 182.178 -0.00698853c8.659 -0.201004 18.042 -2.048 24.397 -8.392c6.01901 -5.98601 7.651 -14.919 7.33899 -23.104
c-0.649994 -8.009 0.104004 -14.971 0 -23l-0.0579834 -74.3397c-0.00601196 -7.4043 -1.177 -15.1865 -5.724 -21.2041c-2.571 -3.61133 -6.32501 -6.24024 -10.444 -7.80176c-6.961 -2.66113 -14.515 -3.19434 -21.906 -3.14844c-61.804 0.00585938 -123.613 0 -185.423 0
c-6.8125 -0.136719 -13.7998 0.40918 -20.1503 3.03809c-4.4434 1.82812 -8.43852 4.87304 -11.0411 8.93941c-3.24023 4.9903 -4.38476 11.0411 -4.46972 16.917c-0.124024 3.6953 0.383784 7.3623 0.371094 11.0674l-0.27539 82.3561
c0.11719 5.407 -0.442384 10.872 0.69629 16.207c1.17187 5.933 4.11914 11.652 8.80369 15.549c4.5147 3.631 10.2471 5.26399 15.8819 6.14299zM30.2617 650.723c6.5576 1.04797 13.2139 0.733948 19.8242 0.779968l182.177 -0.00701904
c8.659 -0.200989 18.042 -2.04797 24.398 -8.39197c6.01898 -5.98602 7.651 -14.918 7.33899 -23.104c-0.649994 -8.00897 -0.348999 -16.064 -0.332001 -24.093l-1.59399 -309.753c-0.0379944 -7.40298 -1.177 -15.185 -5.724 -21.204
c-2.571 -3.61102 -6.32501 -6.24002 -10.444 -7.802c-6.961 -2.66101 -14.515 -3.19402 -21.906 -3.14801c-61.804 0.0059967 -123.613 0 -185.423 0c-6.8125 -0.136993 -13.7998 0.408997 -20.1503 3.03799c-4.4434 1.828 -8.43852 4.87302 -11.0411 8.94
c-3.24023 4.991 -4.38476 11.042 -4.46972 16.917c-0.12403 3.69501 0.35253 7.36301 0.37109 11.067l1.59277 318.862c-0.0107398 5.40503 -0.44238 10.872 0.69629 16.207c1.17188 5.93298 4.11914 11.652 8.80373 15.549c4.5146 3.63098 10.2471 5.26398 15.8818 6.14301
z" />
    <glyph glyph-name="semicolon" unicode=";" horiz-adv-x="362" 
d="M26.3936 160.217c6.5576 1.04701 13.2138 0.734009 19.8242 0.779999c60.7242 -0.00698853 121.453 0.00700378 182.178 -0.00698853c8.659 -0.201004 18.042 -2.048 24.397 -8.392c6.01901 -5.98601 7.651 -14.919 7.33899 -23.104
c-0.649994 -8.009 0.0240173 -14.974 0 -23l-0.743988 -247.663c-0.00601196 -7.40399 -1.17801 -15.186 -5.72501 -21.204c-2.571 -3.61099 -6.325 -6.24001 -10.443 -7.802c-6.96201 -2.661 -14.516 -3.194 -21.907 -3.14799c-61.804 0.0059967 -123.613 0 -185.422 0
c-6.8125 -0.137009 -13.7998 0.408997 -20.1504 3.03799c-4.4433 1.828 -8.43844 4.873 -11.041 8.93901c-3.24024 4.991 -4.38477 11.041 -4.46973 16.917c-0.124023 3.696 0.383789 7.36301 0.371094 11.068l0.411134 255.679
c0.00879002 5.405 -0.442384 10.872 0.69629 16.207c1.17187 5.933 4.11914 11.652 8.80369 15.549c4.5147 3.631 10.2471 5.26399 15.8819 6.14299zM27.7266 396.35c6.5576 1.048 13.2138 0.734009 19.8242 0.781006
c60.7232 -0.00802612 121.453 0.00598145 182.177 -0.00802612c8.659 -0.200989 18.042 -2.047 24.398 -8.39099c6.01898 -5.98599 7.651 -14.92 7.33899 -23.105c-0.651001 -8.00803 -0.348999 -16.065 -0.332001 -24.092l0.94101 -55.381
c0.126007 -7.40399 -1.177 -15.185 -5.724 -21.204c-2.571 -3.61102 -6.32501 -6.24002 -10.444 -7.802c-6.961 -2.66101 -14.515 -3.19402 -21.906 -3.14801c-61.804 0.0059967 -123.613 0 -185.423 0c-6.8125 -0.136993 -13.7998 0.408997 -20.1503 3.03799
c-4.4434 1.828 -8.43852 4.87302 -11.0411 8.94c-3.24023 4.991 -4.38476 11.042 -4.46972 16.917c-0.12403 3.69501 0.4248 7.36002 0.37109 11.067l-0.94238 64.489c-0.0107498 5.40601 -0.44239 10.873 0.69629 16.207c1.17187 5.93402 4.11914 11.653 8.80368 15.549
c4.5147 3.63101 10.2471 5.26401 15.8819 6.14301z" />
    <glyph glyph-name="bracketleft" unicode="[" horiz-adv-x="576" 
d="M474.662 -78c-2 -19 -6 -30 -22 -38c-14.083 -7.041 -34.273 -7.993 -50 -8c-86.027 -0.0390015 -19.924 -0.208 -250 0c-21.629 -0.182999 -43.42 2.938 -63.7558 10.47c-17.0927 6.278 -33.0097 15.6687 -46.8652 27.4782
c-12.7519 10.8409 -23.7031 24.0918 -30.6181 39.4239c-5.9727 13.1015 -8.82524 27.5361 -8.81255 41.9189c-0.20117 139.523 -0.55566 528.434 -0.75097 667.957c0.03222 17.327 4.79003 34.712 14.2783 49.264c7.585 11.808 17.8467 21.719 29.2207 29.863
c24.5146 17.782 54.0469 28.154 84.1446 30.786c6.36899 0.578003 12.764 0.89801 19.159 0.838989h270c27.539 -0.176025 58 -14.285 58 -42c0 -20 -1 -33.029 -1 -42c0 -27 -34 -36 -57 -36c-13 0 -94.248 1.20099 -104.619 0.450012
c-24.568 -1.78003 -8.56799 0.219971 -31.631 -0.721985c-9.91898 -0.405029 -19.96 -3.57501 -27.538 -10.152c-9.222 -8.065 -15.279 -19.568 -17.02 -31.678c-0.911011 -5.633 -0.643997 -11.359 -0.658005 -17.041
c0.201996 -64.547 -0.589996 -475.09 -0.395004 -539.634c0.149002 -12.4385 2.12601 -25.418 8.98801 -36.0567c5.23199 -8.2412 13.759 -14.0644 23.099 -16.6709c10.3 -3.11231 21.17 -2.94434 31.774 -2.49512c15.813 0.669922 10.813 -0.330078 28.813 -0.330078
c7.15601 0 81.952 -1.66992 89.187 -1.66992c30 0 56 -1 56 -32c0 -19.9111 2.05103 -24.5205 0 -44z" />
    <glyph glyph-name="bracketright" unicode="]" horiz-adv-x="576" 
d="M3.26074 -78c2 -19 6 -30 22 -38c14.0831 -7.041 34.2735 -7.993 50 -8c86.0273 -0.0390015 19.9239 -0.208 250 0c21.629 -0.182999 43.42 2.938 63.756 10.47c17.092 6.278 33.009 15.6687 46.865 27.4782c12.752 10.8409 23.703 24.0918 30.618 39.4239
c5.97299 13.1015 8.82501 27.5361 8.81201 41.9189c0.201996 139.523 0.556 528.434 0.750977 667.957c-0.0319824 17.326 -4.78998 34.711 -14.278 49.264c-7.58499 11.808 -17.847 21.718 -29.221 29.863c-24.514 17.781 -54.046 28.154 -84.144 30.785
c-6.36902 0.578003 -12.764 0.899048 -19.159 0.840027h-270c-27.539 -0.176025 -58 -14.285 -58 -42c0 -20 1 -33.029 1 -42c0 -27 34 -36 57 -36c13 0 94.2483 1.20099 104.619 0.448975c24.568 -1.77899 8.56799 0.221008 31.631 -0.721985
c9.91899 -0.404968 19.96 -3.57501 27.538 -10.151c9.222 -8.06598 15.279 -19.568 17.02 -31.678c0.910004 -5.63403 0.643997 -11.359 0.658005 -17.041c-0.203003 -64.548 0.588989 -475.09 0.394989 -539.634c-0.148987 -12.4385 -2.12599 -25.418 -8.98799 -36.0567
c-5.233 -8.2412 -13.759 -14.0644 -23.099 -16.6709c-10.301 -3.11231 -21.17 -2.94434 -31.774 -2.49512c-15.813 0.669922 -10.813 -0.330078 -28.813 -0.330078c-7.15599 0 -81.9519 -1.66992 -89.1873 -1.66992c-30 0 -56 -1 -56 -32
c0 -19.9111 -2.05078 -24.5205 0 -44z" />
    <glyph glyph-name="parenleft" unicode="(" horiz-adv-x="576" 
d="M474.662 -78c-2 -19 -6 -30 -22 -38c-14.083 -7.041 -34.273 -7.993 -50 -8c-86.027 -0.0390015 -19.924 -0.208 -250 0c-21.629 -0.182999 -43.42 2.938 -63.7558 10.47c-17.0927 6.278 -33.0097 15.6687 -46.8652 27.4782
c-12.7519 10.8409 -23.7031 24.0918 -30.6181 39.4239c-5.9727 13.1015 -8.82524 27.5361 -8.81255 41.9189c-0.20117 139.523 -0.55566 528.434 -0.75097 667.957c0.03222 17.327 4.79003 34.712 14.2783 49.264c7.585 11.808 17.8467 21.719 29.2207 29.863
c24.5146 17.782 54.0469 28.154 84.1446 30.786c6.36899 0.578003 12.764 0.89801 19.159 0.838989h270c27.539 -0.176025 58 -14.285 58 -42c0 -20 -1 -33.029 -1 -42c0 -27 -34 -36 -57 -36c-13 0 -94.248 1.20099 -104.619 0.450012
c-24.568 -1.78003 -8.56799 0.219971 -31.631 -0.721985c-9.91898 -0.405029 -19.96 -3.57501 -27.538 -10.152c-9.222 -8.065 -15.279 -19.568 -17.02 -31.678c-0.911011 -5.633 -0.643997 -11.359 -0.658005 -17.041
c0.201996 -64.547 -0.589996 -475.09 -0.395004 -539.634c0.149002 -12.4385 2.12601 -25.418 8.98801 -36.0567c5.23199 -8.2412 13.759 -14.0644 23.099 -16.6709c10.3 -3.11231 21.17 -2.94434 31.774 -2.49512c15.813 0.669922 10.813 -0.330078 28.813 -0.330078
c7.15601 0 81.952 -1.66992 89.187 -1.66992c30 0 56 -1 56 -32c0 -19.9111 2.05103 -24.5205 0 -44z" />
    <glyph glyph-name="parenright" unicode=")" horiz-adv-x="576" 
d="M3.26074 -78c2 -19 6 -30 22 -38c14.0831 -7.041 34.2735 -7.993 50 -8c86.0273 -0.0390015 19.9239 -0.208 250 0c21.629 -0.182999 43.42 2.938 63.756 10.47c17.092 6.278 33.009 15.6687 46.865 27.4782c12.752 10.8409 23.703 24.0918 30.618 39.4239
c5.97299 13.1015 8.82501 27.5361 8.81201 41.9189c0.201996 139.523 0.556 528.434 0.750977 667.957c-0.0319824 17.326 -4.78998 34.711 -14.278 49.264c-7.58499 11.808 -17.847 21.718 -29.221 29.863c-24.514 17.781 -54.046 28.154 -84.144 30.785
c-6.36902 0.578003 -12.764 0.899048 -19.159 0.840027h-270c-27.539 -0.176025 -58 -14.285 -58 -42c0 -20 1 -33.029 1 -42c0 -27 34 -36 57 -36c13 0 94.2483 1.20099 104.619 0.448975c24.568 -1.77899 8.56799 0.221008 31.631 -0.721985
c9.91899 -0.404968 19.96 -3.57501 27.538 -10.151c9.222 -8.06598 15.279 -19.568 17.02 -31.678c0.910004 -5.63403 0.643997 -11.359 0.658005 -17.041c-0.203003 -64.548 0.588989 -475.09 0.394989 -539.634c-0.148987 -12.4385 -2.12599 -25.418 -8.98799 -36.0567
c-5.233 -8.2412 -13.759 -14.0644 -23.099 -16.6709c-10.301 -3.11231 -21.17 -2.94434 -31.774 -2.49512c-15.813 0.669922 -10.813 -0.330078 -28.813 -0.330078c-7.15599 0 -81.9519 -1.66992 -89.1873 -1.66992c-30 0 -56 -1 -56 -32
c0 -19.9111 -2.05078 -24.5205 0 -44z" />
    <glyph glyph-name="dollar" unicode="$" 
d="M165.307 649.225c15.03 1.11102 30.1 0.77301 45.157 0.825012h159.29c-0.0310059 18.559 -0.0499878 33.619 -0.0509949 43.276c0.117004 5.40698 -0.442017 10.872 0.695984 16.208c1.17203 5.93402 4.12003 11.653 8.80402 15.55
c4.51498 3.63 10.247 5.26404 15.882 6.14301c6.55801 1.04602 13.214 0.72699 19.824 0.77301h182.177c8.659 -0.202026 18.042 -2.04999 24.398 -8.39398c6.01898 -5.98505 7.65198 -14.918 7.33899 -23.103c-0.650024 -8.00897 -0.22699 -16.065 -0.33197 -24.093
c0.0139771 -8.44397 0.0279541 -17.241 0.0419922 -26.36h313.345c13.126 0.0650024 26.622 0.29303 39.202 -4.01801c5.70801 -1.91101 11 -5.55298 13.9 -10.948c5.67999 -10.129 5.82001 -22.144 5.72003 -33.449v-81.24
c-0.0100098 -7.867 -2.177 -16.078 -7.63202 -21.961c-5.94098 -6.535 -14.672 -9.62198 -23.189 -11.027c-8.82904 -1.54703 -17.82 -0.936005 -26.733 -1.11102c-104.798 -0.294983 -209.596 -0.598999 -314.394 -0.904999
c0.0339966 -29.068 0.0689697 -59.109 0.10199 -89.626c8.33899 -0.0110168 16.679 -0.0220032 25.017 -0.03302c51.5811 0.053009 103.169 -0.324005 154.75 0.0979919c29.535 0.241028 59.252 -2.73599 87.741 -10.721c18.58 -5.272 36.687 -12.644 53.096 -22.897
c18.567 -11.78 33.442 -29.242 42.115 -49.442c6.755 -15.668 9.65698 -32.832 9.487 -49.838v-113.149c-0.0999756 -13.399 0.619995 -26.916 -1.776 -40.178c-3.758 -23.6519 -15.356 -45.9898 -32.702 -62.523c-13.606 -13.1845 -30.757 -21.9414 -48.187 -28.9365
c-36.479 -14.3613 -76.111 -18.7236 -115.073 -18.1455l-174.107 -3.31957e-014c0.0159912 -21.7629 0.0289917 -42.1442 0.039978 -60.8008c0.286987 -7.3984 -1.177 -15.1865 -5.724 -21.2041c-2.57098 -3.61131 -6.32501 -6.2402 -10.444 -7.8017
c-6.961 -2.66019 -14.515 -3.1944 -21.9059 -3.1485c-61.804 0.0069046 -123.613 0 -185.423 0c-6.81299 -0.136696 -13.8 0.410202 -20.151 3.0381c-4.44299 1.8281 -8.43799 4.8731 -11.041 8.9395c-3.24002 4.9912 -4.384 11.042 -4.46902 16.917
c-0.123993 3.6953 0.527008 7.3652 0.371002 11.0673c-0.0249939 17.6643 -0.0499878 35.3287 -0.072998 52.9932l-298.395 5.53203e-015c-8.874 0.0517578 -17.748 -0.0908203 -26.623 0.078125c-10.0958 0.552734 -20.6221 1.49512 -29.6846 6.3584
c-6.19533 3.28321 -9.90822 9.75778 -11.793 16.3047c-1.87304 6.4043 -2.41894 13.1133 -2.458 19.7647c-0.00585997 29.0468 0.0068301 58.0951 0 87.1491c-0.0585999 8.933 2.93261 18.333 9.94729 24.224c8.8222 7.48199 20.8564 9.381 32.0576 9.81
c108.912 0.32901 217.822 0.643997 326.733 0.960007c-0.0389709 29.878 -0.0779724 59.756 -0.116974 89.634c-38.473 0.0410004 -76.944 0.0820007 -115.416 0.125c-18.839 -0.0709991 -37.68 0.195999 -56.515 0.396988
c-38.799 -0.442993 -78.249 3.90701 -114.552 18.256c-16.8125 6.77399 -33.3584 15.147 -46.6992 27.629c-17.4688 16.118 -29.4053 38.027 -33.6045 61.412c-1.41113 7.59302 -2.13281 15.283 -2.19141 23.007v134.629c0.12989 20.928 5.16895 42.051 16.0449 60.053
c6.8066 11.416 15.6621 21.604 26.0899 29.86c9.6933 7.76202 20.7587 13.607 32.0449 18.698c28.3393 12.619 59.2003 18.769 90.0433 20.876zM370.083 484.637c-19.413 -0.0559998 -38.826 -0.112 -58.238 -0.167999c-6.716 0.026001 -13.548 0.175995 -20.063 -1.70999
c-12.886 -3.479 -24.386 -13.555 -27.786 -26.7c-2.29501 -9.47299 -2.42599 -19.426 -0.722015 -29.009c2.24402 -13.035 12.554 -23.704 24.77 -28.138c5.34399 -1.944 11.052 -2.76898 16.727 -2.78299c21.828 -0.0270081 43.655 -0.052002 65.483 -0.0759888
c-0.0409851 24.66 -0.102997 55.721 -0.17099 88.584zM629.082 165.406l54.006 0.161987c8.22998 0.228012 16.578 -0.610992 24.698 1.09901c13.86 2.80899 26.558 13.172 30.303 27.078c2.32001 9.401 2.48901 19.289 0.864014 28.819
c-2.33398 14.583 -14.654 26.227 -28.69 29.764c-5.67499 1.547 -11.592 1.69 -17.43 1.586c-21.278 0.0279999 -42.556 0.0540009 -63.834 0.0800018c0.0289917 -29.956 0.0570068 -59.639 0.0829468 -88.588z" />
    <glyph glyph-name="backslash" unicode="\" horiz-adv-x="797" 
d="M227.412 649.22c-6.558 1.04706 -13.214 0.734009 -19.824 0.780029c-60.724 -0.00799561 -111.524 0.0770264 -172.249 0.0620117c-8.6592 -0.200012 -18.042 -2.047 -24.3975 -8.39099c-6.01952 -5.98602 -9.41406 -15.486 -9.10253 -23.671
c0.65136 -8.01001 -1.8545 -16.54 2.09472 -23.526l433.498 -562.32c4.52899 -5.875 12.608 -14.6367 17.156 -20.6543c2.56998 -3.61133 5.88098 -7.43848 10 -9c6.961 -2.66113 12.609 -2.5459 20 -2.5c61.804 0.00585938 114.531 0 176.341 0
c6.81201 -0.136719 13.8 0.40918 20.15 3.03809c4.44403 1.82812 8.43903 4.87304 11.041 8.93941c3.24103 4.9903 5.80103 9.1465 5.88599 15.0225c0.124023 3.6953 0.445007 10.0195 -1.78699 12.9619l-433.497 571.429c-2.62799 4.72198 -7.10799 10.07 -10.134 14.609
c-6 9 -8.491 12.533 -13.177 16.43c-4.515 3.63098 -6.364 5.91101 -11.999 6.78998z" />
    <glyph glyph-name="numbersign" unicode="#" horiz-adv-x="3832" 
d="M116.436 642c15.716 3.50098 31.736 6.23602 47.905 6.23602c266.111 -0.103027 532.277 0.098999 798.388 -0.103027c18.307 1.11603 37.681 -11.504 38.501 -30.971c0.910034 -37.204 0.960022 -74.557 -0.0499878 -111.764
c-0.919983 -19.208 -21.109 -29.497 -38.502 -28.08c-205.139 -0.453979 -410.279 0.156006 -615.423 -0.304993c-30.866 1.17001 -59.239 -23.414 -59.545 -54.839c-1.22299 -65.743 -0.713989 -131.585 -0.253998 -197.328
c-0.408997 -25.697 16.626 -53.931 44.953 -53.728c114.774 -0.455994 229.6 -0.606003 344.372 0.052002c23.698 0 42.006 21.087 42.311 43.947c1.63104 47.288 -0.55896 94.734 1.01801 142.023c0.406006 20.123 19.069 35.278 38.751 34.266
c69.717 0.252991 139.489 0.557007 209.209 -0.098999c18.814 0.35199 34.38 -15.923 33.46 -34.622c0 -81.555 1.12 -163.264 -0.51001 -244.819c-9.40802 -71.4705 -81.162 -116.529 -150.115 -112.119c-235.656 0.204102 -471.254 -0.250976 -706.905 0.25293
c-69.6689 1.4707 -136.847 52.6143 -143.049 124.336c-1.32227 131.533 -0.205078 263.117 -0.55957 394.648c3 62.496 56.0371 112.324 116.044 123.016zM1117.53 527.348c9.19995 77.0959 88.4299 121.039 160.49 120.838
c362.68 -0.104004 725.36 0.403015 1087.99 -0.253967c48.5701 1.01501 99.48 -33.426 103.7 -84.164c0.0900879 -118.557 -0.0998535 -228.413 0.5 -347.614c-0.530029 -13.855 8.65015 -19.66 18.0701 -12.588c145.9 129.15 285.93 252.768 431.42 382.326
c37.99 35.784 103.79 35.278 141.22 -1.16803c141.57 -128.39 282.38 -257.641 423.8 -386.185c3.51001 -2.40601 15.52 -1.33701 14.8501 9.13499l0.149902 383.237c-1.04004 33.127 6.79004 57.048 53.4001 56.679h133.35
c40.73 0.0169678 46.4001 -29.426 45.3101 -57.303c-0.0500488 -140.351 0.800049 -336.7 0.5 -477.003c0 -34.5662 -18.27 -71.0613 -43.22 -89.8143c-36.3801 -30.0664 -120.04 -22.9609 -188.72 -23.7246c-65.3401 0.756836 -92.1501 -2.7959 -131.22 13.4756
c-31.5901 13.1621 -61 38.7129 -116.59 91.4453l-235.65 220.136c-15.8699 15.305 -40.99 10.593 -55.5298 -3.90601c-84.4702 -74.254 -168.83 -148.608 -253.05 -223.122c-52.9102 -48.4756 -75.24 -70.2656 -108.73 -84.9775
c-37.8901 -16.6397 -82.0701 -12.5205 -187.48 -13.0518c-59.1201 -2.0791 -91.9001 -0.860347 -130.34 24.0264c-30.21 18.9082 -44.3899 55.2978 -44.3401 89.7645c-0.359863 108.068 0.150146 216.133 -0.26001 324.196c0.560059 17.286 -8.75 33.403 -24.51 40.803
c-248.87 -1.31799 -497.69 -1.621 -746.57 -1.418c-31.5299 1.82599 -61.4299 -22.66 -61.74 -54.896c-1.2699 -65.588 -0.659912 -131.282 -0.299927 -196.867c-0.810059 -26.611 17.75 -55.502 46.89 -54.385c208.49 -0.409988 417.04 0.0500031 625.54 -0.202988
c19.4199 1.672 41.29 -10.798 41.49 -32.087c0.459961 -35.378 1.17017 -70.8587 -0.409912 -106.242c-1.62012 -22.6035 -25.52 -34.3633 -46.1201 -32.6416c-271.04 0.201172 -542.09 -0.505859 -813.09 0.355469c-69.25 2.2832 -135.06 53.7812 -140.9 124.995
c-0.619995 134.018 -0.869995 268.183 0.0999756 402.202z" />
    <glyph glyph-name="quotedbl" unicode="&#x22;" horiz-adv-x="754" 
d="M29.4512 652.142c6.5576 1.04596 13.2138 0.733948 19.8242 0.779968l182.178 -0.00701904c8.659 -0.200989 18.042 -2.04797 24.398 -8.39301c6.019 -5.98499 7.65102 -14.918 7.338 -23.103c-0.648987 -8.00903 0.0249939 -14.975 0 -23l-0.743988 -247.663
c-0.00601196 -7.40402 -1.177 -15.187 -5.724 -21.204c-2.57201 -3.612 -6.32501 -6.23999 -10.444 -7.802c-6.96199 -2.66101 -14.515 -3.194 -21.906 -3.14801c-61.805 0.00500488 -123.613 0 -185.423 0c-6.8125 -0.136993 -13.7998 0.408997 -20.1503 3.03802
c-4.4434 1.82797 -8.4385 4.87299 -11.0411 8.939c-3.24024 4.98999 -4.38477 11.041 -4.46973 16.917c-0.12402 3.69501 0.38379 7.362 0.37109 11.067l0.41114 255.68c0.00878 5.40399 -0.44239 10.872 0.69628 16.207c1.17188 5.93298 4.11915 11.652 8.80368 15.549
c4.5147 3.63098 10.2471 5.26398 15.8819 6.14301zM419.451 652.142c6.55801 1.04596 13.214 0.733948 19.824 0.779968l182.178 -0.00701904c8.659 -0.200989 18.042 -2.04797 24.398 -8.39301c6.01898 -5.98499 7.651 -14.918 7.33801 -23.103
c-0.649048 -8.00903 0.0249634 -14.975 0 -23l-0.744019 -247.663c-0.00598145 -7.40402 -1.177 -15.187 -5.724 -21.204c-2.57202 -3.612 -6.32501 -6.23999 -10.444 -7.802c-6.96198 -2.66101 -14.515 -3.194 -21.906 -3.14801c-61.805 0.00500488 -123.613 0 -185.423 0
c-6.81201 -0.136993 -13.8 0.408997 -20.15 3.03802c-4.444 1.82797 -8.439 4.87299 -11.041 8.939c-3.23999 4.98999 -4.38498 11.041 -4.47 16.917c-0.123993 3.69501 0.384003 7.362 0.371002 11.067l0.411011 255.68
c0.00900269 5.40399 -0.441986 10.872 0.696991 16.207c1.172 5.93298 4.11902 11.652 8.80301 15.549c4.51501 3.63098 10.247 5.26398 15.882 6.14301z" />
    <glyph glyph-name="quotesingle" unicode="'" horiz-adv-x="364" 
d="M29.4512 652.142c6.5576 1.04596 13.2138 0.733948 19.8242 0.779968l182.178 -0.00701904c8.659 -0.200989 18.042 -2.04797 24.398 -8.39301c6.019 -5.98499 7.65102 -14.918 7.338 -23.103c-0.648987 -8.00903 0.0249939 -14.975 0 -23l-0.743988 -247.663
c-0.00601196 -7.40402 -1.177 -15.187 -5.724 -21.204c-2.57201 -3.612 -6.32501 -6.23999 -10.444 -7.802c-6.96199 -2.66101 -14.515 -3.194 -21.906 -3.14801c-61.805 0.00500488 -123.613 0 -185.423 0c-6.8125 -0.136993 -13.7998 0.408997 -20.1503 3.03802
c-4.4434 1.82797 -8.4385 4.87299 -11.0411 8.939c-3.24024 4.98999 -4.38477 11.041 -4.46973 16.917c-0.12402 3.69501 0.38379 7.362 0.37109 11.067l0.41114 255.68c0.00878 5.40399 -0.44239 10.872 0.69628 16.207c1.17188 5.93298 4.11915 11.652 8.80368 15.549
c4.5147 3.63098 10.2471 5.26398 15.8819 6.14301z" />
    <glyph glyph-name="underscore" unicode="_" horiz-adv-x="800" 
d="M700 0v100h-700v-100h700z" />
    <glyph glyph-name="percent" unicode="%" horiz-adv-x="872" 
d="M537.142 160.217c6.55798 1.04701 13.213 0.734009 19.825 0.779999c60.723 -0.00698853 121.453 0.00700378 182.177 -0.00698853c8.66003 -0.201004 18.042 -2.048 24.398 -8.392c6.01898 -5.98601 7.65002 -14.919 7.33899 -23.104
c-0.651001 -8.009 0.103027 -14.971 0 -23l-0.0579834 -74.3397c-0.00701904 -7.4043 -1.177 -15.1865 -5.72498 -21.2041c-2.57104 -3.61133 -6.32501 -6.24024 -10.443 -7.80176c-6.96204 -2.66113 -14.515 -3.19434 -21.906 -3.14844
c-61.804 0.00585938 -123.613 0 -185.423 0c-6.81201 -0.136719 -13.801 0.40918 -20.15 3.03809c-4.44501 1.82812 -8.44 4.87304 -11.041 8.93941c-3.24103 4.9903 -4.38501 11.0411 -4.47 16.917c-0.124023 3.6953 0.384003 7.3623 0.371002 11.0674l-0.275024 82.3561
c0.117004 5.407 -0.444 10.872 0.695984 16.207c1.17206 5.933 4.11902 11.652 8.80402 15.549c4.513 3.631 10.247 5.26399 15.881 6.14299zM30.3213 658.217c6.5576 1.047 13.2139 0.734009 19.8242 0.780029l182.177 -0.00701904
c8.659 -0.200989 18.042 -2.04797 24.398 -8.39197c6.01898 -5.98602 7.651 -14.919 7.33899 -23.104c-0.649994 -8.00903 0.104004 -14.971 0 -23l-0.0579834 -74.34c-0.00601196 -7.40399 -1.177 -15.186 -5.724 -21.204
c-2.57101 -3.61102 -6.32501 -6.24002 -10.444 -7.802c-6.961 -2.66101 -14.516 -3.194 -21.906 -3.14801h-185.423c-6.8125 -0.136993 -13.7998 0.408997 -20.1504 3.03799c-4.4434 1.828 -8.4385 4.87302 -11.041 8.94c-3.24024 4.99002 -4.38477 11.041 -4.46973 16.917
c-0.12402 3.69501 0.38379 7.362 0.37109 11.067l-0.27539 82.356c0.11719 5.40698 -0.44238 10.872 0.69629 16.207c1.17188 5.93298 4.11914 11.652 8.80376 15.549c4.5146 3.63104 10.247 5.26404 15.8818 6.14301zM501.176 649.22
c6.55701 1.04706 13.214 0.734009 19.824 0.780029c60.724 -0.00799561 111.524 0.0770264 172.249 0.0620117c8.659 -0.200012 18.042 -2.047 24.397 -8.39099c6.02002 -5.98602 9.41498 -15.486 9.10303 -23.671c-0.651001 -8.01001 1.85498 -16.54 -2.09503 -23.526
l-433.498 -562.32c-4.52899 -5.875 -12.608 -14.6367 -17.156 -20.6543c-2.57001 -3.61133 -5.88101 -7.43848 -10 -9c-6.961 -2.66113 -12.609 -2.5459 -20 -2.5c-61.804 0.00585938 -114.531 0 -176.341 0c-6.8125 -0.136719 -13.8008 0.40918 -20.1504 3.03809
c-4.4443 1.82812 -8.4385 4.87304 -11.041 8.93941c-3.2412 4.9903 -5.8008 9.1465 -5.8858 15.0225c-0.124001 3.6953 -0.445301 10.0195 1.7871 12.9619l433.497 571.429c2.62799 4.72198 7.108 10.07 10.134 14.609c6 9 8.491 12.533 13.177 16.43
c4.51401 3.63098 6.36398 5.91101 11.999 6.78998z" />
    <glyph glyph-name="plus" unicode="+" horiz-adv-x="598" 
d="M27.7266 396.35c6.5576 1.048 13.2138 0.734009 19.8242 0.781006c13.3886 0 38.176 -0.0100098 69.3352 -0.0210266l-0.138 75.712c0.116997 5.40701 -0.442001 10.872 0.695999 16.207c1.172 5.93301 4.119 11.652 8.804 15.549
c4.515 3.63101 10.247 5.26401 15.882 6.14301c6.558 1.047 13.214 0.72699 19.824 0.77298h182.178c8.659 -0.200989 18.042 -2.04797 24.397 -8.392c6.02002 -5.98599 7.65201 -14.919 7.33902 -23.104c-0.649017 -8.00897 0.10498 -14.971 0 -23l0.0429993 -59.993
c39.992 -0.0159912 72.282 -0.0280151 88.285 -0.0310059c8.659 -0.201996 18.042 -2.047 24.399 -8.392c6.01801 -5.98502 7.64999 -14.92 7.33899 -23.104c-0.651978 -8.008 -0.349976 -16.066 -0.332001 -24.092l0.940002 -55.382
c0.126007 -7.40298 -1.177 -15.185 -5.724 -21.203c-2.57098 -3.612 -6.32498 -6.23999 -10.444 -7.80301c-6.961 -2.66098 -14.515 -3.19299 -21.905 -3.14699c-15.378 0 -45.27 0.0110016 -82.455 0.0250092l0.0599976 -83.722
c0.00500488 -7.40201 -1.177 -15.186 -5.72299 -21.204c-2.57202 -3.61099 -6.32602 -6.23999 -10.445 -7.802c-6.961 -2.661 -14.514 -3.194 -21.906 -3.14799c-61.804 0.0059967 -123.613 0 -185.423 0c-6.812 -0.136993 -13.8 0.408997 -20.15 3.03799
c-4.444 1.828 -8.439 4.873 -11.041 8.94c-3.24 4.99001 -4.385 11.041 -4.47 16.917c-0.124001 3.69499 0.377998 7.36299 0.371002 11.067l-0.139 76.017c-35.3784 0.0130005 -63.7317 0.0209961 -78.5709 0.0209961
c-6.8125 -0.136993 -13.7998 0.408997 -20.1503 3.03799c-4.4434 1.828 -8.43852 4.87302 -11.0411 8.94c-3.24023 4.991 -4.38476 11.042 -4.46972 16.917c-0.12403 3.69501 0.4248 7.36002 0.37109 11.067l-0.94238 64.489
c-0.0107498 5.40601 -0.44239 10.873 0.69629 16.207c1.17187 5.93402 4.11914 11.653 8.80368 15.549c4.5147 3.63101 10.2471 5.26401 15.8819 6.14301z" />
    <glyph glyph-name="less" unicode="&#x3c;" horiz-adv-x="684" 
d="M293.344 607.686c6.577 1.177 13.278 0.850037 19.933 0.857056c84.215 -0.419006 168.429 -0.812012 252.651 -1.24304c4.724 0.0250244 9.763 -1.40698 12.925 -5.11798c3.50696 -4.08398 4.54797 -9.67303 4.63898 -14.908
c0.112 -7.78198 -3.25299 -15.262 -8.22498 -21.12c-2.638 -3.24597 -5.82605 -5.96802 -9.02704 -8.638c-70.254 -59.79 -140.475 -119.614 -210.724 -179.404c-9.56198 -8.311 -19.536 -16.152 -28.639 -24.967c-2.42102 -2.34299 -5.03201 -4.509 -7.32901 -6.97
c-3.228 -4.28598 -6.435 -9.20099 -6.29599 -14.784c-0.0720215 -4.37799 2.09399 -8.35098 4.45599 -11.891c2.311 -3.72601 5.94199 -6.29001 8.991 -9.35901c9.70599 -9.064 19.38 -18.167 29.112 -27.205c41.275 -35.027 82.453 -70.177 123.69 -105.248
c65.759 -55.74 15.547 -14.363 81.221 -70.207c3.04901 -2.637 6.18402 -5.16901 9.17401 -7.8853c6.10699 -5.7402 11.095 -13.1875 12.125 -21.6689c0.660034 -6.1524 -0.0700073 -12.8868 -3.79401 -18.0176c-3.23901 -4.417 -8.97101 -6.0137 -14.227 -5.8633
c-87.244 -0.4189 -174.488 -0.883797 -261.733 -1.2637c-5.289 0.0205002 -10.53 0.818401 -15.681 1.9707c-3.383 0.817402 -6.995 0.955101 -10.111 2.6172c-3.94601 1.9903 -7.172 5.0723 -10.916 7.376c-2.57199 1.5381 -4.582 3.8018 -6.728 5.8437
c-8.974 9.1563 -18.54 17.6963 -27.84 26.5118c-110.143 103.193 -104.538 109.008 -214.676 212.202c-5.4248 6.56302 -10.3134 14.109 -11.747 22.643c-1.3418 8.51501 2.33008 16.754 6.95704 23.671c1.6035 2.31097 3.1084 4.72598 5.1172 6.715
c74.3388 69.64 148.716 139.254 223.048 208.906c6.27 5.93597 12.704 11.703 18.731 17.893c2.89801 2.77496 5.56201 5.90295 9.08401 7.93097c4.496 2.87903 8.435 6.97101 13.782 8.24103c4.02499 0.770996 8.02402 1.63501 12.056 2.38196z" />
    <glyph glyph-name="greater" unicode="&#x3e;" horiz-adv-x="684" 
d="M294.814 606.045c-6.577 1.17804 -13.278 0.851013 -19.933 0.856995c-84.215 -0.419006 -168.429 -0.810974 -252.651 -1.24298c-4.7246 0.026001 -9.7637 -1.40698 -12.9248 -5.11798c-3.50781 -4.08405 -4.54882 -9.67303 -4.63964 -14.907
c-0.11133 -7.78198 3.25293 -15.263 8.22558 -21.12c2.6377 -3.24597 5.8252 -5.96899 9.0264 -8.63898c70.2539 -59.79 140.476 -119.613 210.725 -179.403c9.56099 -8.31198 19.535 -16.153 28.638 -24.968c2.42099 -2.34299 5.03198 -4.509 7.32898 -6.97
c3.22803 -4.28601 6.43503 -9.20099 6.29602 -14.784c0.072998 -4.37799 -2.09399 -8.35101 -4.45599 -11.891c-2.31 -3.72501 -5.94202 -6.29001 -8.991 -9.35901c-9.70601 -9.06299 -19.38 -18.167 -29.111 -27.205c-41.276 -35.026 -82.453 -70.177 -123.691 -105.248
c-65.7586 -55.739 -15.5466 -14.362 -81.2205 -70.206c-3.0488 -2.638 -6.1845 -5.17001 -9.1738 -7.8859c-6.1074 -5.7403 -11.0957 -13.1875 -12.125 -21.669c-0.66016 -6.15231 0.0693297 -12.8867 3.79394 -18.0175c3.23826 -4.417 8.97066 -6.0137 14.2266 -5.8633
c87.2438 -0.418999 174.488 -0.883801 261.734 -1.2637c5.289 0.0205002 10.529 0.818398 15.68 1.9707c3.383 0.817398 6.995 0.955101 10.112 2.6172c3.94501 1.9902 7.17102 5.0723 10.916 7.376c2.57098 1.5381 4.582 3.8017 6.72699 5.8437
c8.974 9.1563 18.54 17.6963 27.84 26.5117c110.144 103.193 104.538 109.009 214.676 212.202c5.42499 6.564 10.313 14.109 11.747 22.644c1.34198 8.51401 -2.33002 16.754 -6.95703 23.671c-1.604 2.31 -3.10901 4.72501 -5.117 6.71399
c-74.339 69.64 -148.717 139.254 -223.049 208.907c-6.27002 5.935 -12.703 11.703 -18.731 17.892c-2.89798 2.776 -5.56198 5.90399 -9.08398 7.93195c-4.496 2.87903 -8.435 6.97101 -13.782 8.24005c-4.02499 0.771973 -8.02301 1.63599 -12.056 2.38196z" />
    <glyph glyph-name="asterisk" unicode="*" horiz-adv-x="3832" 
d="M116.436 642c15.716 3.50098 31.736 6.23602 47.905 6.23602c266.111 -0.103027 532.277 0.098999 798.388 -0.103027c18.307 1.11603 37.681 -11.504 38.501 -30.971c0.910034 -37.204 0.960022 -74.557 -0.0499878 -111.764
c-0.919983 -19.208 -21.109 -29.497 -38.502 -28.08c-205.139 -0.453979 -410.279 0.156006 -615.423 -0.304993c-30.866 1.17001 -59.239 -23.414 -59.545 -54.839c-1.22299 -65.743 -0.713989 -131.585 -0.253998 -197.328
c-0.408997 -25.697 16.626 -53.931 44.953 -53.728c114.774 -0.455994 229.6 -0.606003 344.372 0.052002c23.698 0 42.006 21.087 42.311 43.947c1.63104 47.288 -0.55896 94.734 1.01801 142.023c0.406006 20.123 19.069 35.278 38.751 34.266
c69.717 0.252991 139.489 0.557007 209.209 -0.098999c18.814 0.35199 34.38 -15.923 33.46 -34.622c0 -81.555 1.12 -163.264 -0.51001 -244.819c-9.40802 -71.4705 -81.162 -116.529 -150.115 -112.119c-235.656 0.204102 -471.254 -0.250976 -706.905 0.25293
c-69.6689 1.4707 -136.847 52.6143 -143.049 124.336c-1.32227 131.533 -0.205078 263.117 -0.55957 394.648c3 62.496 56.0371 112.324 116.044 123.016zM1117.53 527.348c9.19995 77.0959 88.4299 121.039 160.49 120.838
c362.68 -0.104004 725.36 0.403015 1087.99 -0.253967c48.5701 1.01501 99.48 -33.426 103.7 -84.164c0.0900879 -118.557 -0.0998535 -228.413 0.5 -347.614c-0.530029 -13.855 8.65015 -19.66 18.0701 -12.588c145.9 129.15 285.93 252.768 431.42 382.326
c37.99 35.784 103.79 35.278 141.22 -1.16803c141.57 -128.39 282.38 -257.641 423.8 -386.185c3.51001 -2.40601 15.52 -1.33701 14.8501 9.13499l0.149902 383.237c-1.04004 33.127 6.79004 57.048 53.4001 56.679h133.35
c40.73 0.0169678 46.4001 -29.426 45.3101 -57.303c-0.0500488 -140.351 0.800049 -336.7 0.5 -477.003c0 -34.5662 -18.27 -71.0613 -43.22 -89.8143c-36.3801 -30.0664 -120.04 -22.9609 -188.72 -23.7246c-65.3401 0.756836 -92.1501 -2.7959 -131.22 13.4756
c-31.5901 13.1621 -61 38.7129 -116.59 91.4453l-235.65 220.136c-15.8699 15.305 -40.99 10.593 -55.5298 -3.90601c-84.4702 -74.254 -168.83 -148.608 -253.05 -223.122c-52.9102 -48.4756 -75.24 -70.2656 -108.73 -84.9775
c-37.8901 -16.6397 -82.0701 -12.5205 -187.48 -13.0518c-59.1201 -2.0791 -91.9001 -0.860347 -130.34 24.0264c-30.21 18.9082 -44.3899 55.2978 -44.3401 89.7645c-0.359863 108.068 0.150146 216.133 -0.26001 324.196c0.560059 17.286 -8.75 33.403 -24.51 40.803
c-248.87 -1.31799 -497.69 -1.621 -746.57 -1.418c-31.5299 1.82599 -61.4299 -22.66 -61.74 -54.896c-1.2699 -65.588 -0.659912 -131.282 -0.299927 -196.867c-0.810059 -26.611 17.75 -55.502 46.89 -54.385c208.49 -0.409988 417.04 0.0500031 625.54 -0.202988
c19.4199 1.672 41.29 -10.798 41.49 -32.087c0.459961 -35.378 1.17017 -70.8587 -0.409912 -106.242c-1.62012 -22.6035 -25.52 -34.3633 -46.1201 -32.6416c-271.04 0.201172 -542.09 -0.505859 -813.09 0.355469c-69.25 2.2832 -135.06 53.7812 -140.9 124.995
c-0.619995 134.018 -0.869995 268.183 0.0999756 402.202z" />
  </font>
</defs>
</svg>
